<svg width="20" height="20" viewBox="0 0 20 20" fill="none" xmlns="http://www.w3.org/2000/svg">
<g clip-path="url(#clip0_56_311)">
<path d="M0 10C0 18.0667 1.93333 20 10 20C18.0667 20 20 18.0667 20 10C20 1.93333 18.0667 0 10 0C1.93333 0 0 1.93333 0 10ZM4.03333 12.0767L7.16833 4.9475C7.69833 3.74833 8.71667 3.09667 10 3.09667C11.2833 3.09667 12.3017 3.7475 12.8317 4.94917L15.9667 12.0775C16.11 12.4258 16.2333 12.8717 16.2333 13.2592C16.2333 15.03 14.99 16.2733 13.2192 16.2733C12.6142 16.2733 12.1358 16.1208 11.65 15.965C11.1525 15.805 10.6475 15.6425 10 15.6425C9.35833 15.6425 8.84167 15.805 8.33667 15.9642C7.845 16.1208 7.36333 16.2733 6.78083 16.2733C5.01 16.2733 3.76667 15.03 3.76667 13.2592C3.76667 12.8717 3.89 12.4258 4.03333 12.0775V12.0767ZM10 6.19167L6.90417 13.1967C7.8225 12.77 8.88 12.565 10 12.565C11.0808 12.565 12.1775 12.77 13.0533 13.1967L10 6.19167Z" fill="#5A45FF"/>
</g>
<defs>
<clipPath id="clip0_56_311">
<rect width="20" height="20" fill="white"/>
</clipPath>
</defs>
</svg>
