<svg width="20" height="20" viewBox="0 0 20 20" fill="none" xmlns="http://www.w3.org/2000/svg">
<g clip-path="url(#clip0_56_306)">
<path d="M10 7.88136e-06C4.47667 7.88136e-06 0 4.47751 0 10C0 15.5233 4.47667 20 10 20C15.5225 20 20 15.5233 20 10C20.0004 9.05747 19.8677 8.1196 19.6058 7.21417C19.5567 7.09495 19.4635 6.99929 19.3456 6.94718C19.2276 6.89507 19.0941 6.89053 18.9729 6.93452C18.8517 6.9785 18.7522 7.06761 18.6951 7.18323C18.6381 7.29885 18.6279 7.43205 18.6667 7.55501H18.665C18.8858 8.34084 19 9.16167 19 10C19.0033 11.1824 18.772 12.3537 18.3195 13.4461C17.8671 14.5385 17.2025 15.5303 16.3642 16.3642C15.5304 17.2025 14.5385 17.8672 13.4461 18.3196C12.3537 18.772 11.1824 19.0033 10 19C8.81761 19.0033 7.64632 18.772 6.55391 18.3195C5.4615 17.8671 4.46968 17.2025 3.63583 16.3642C2.79745 15.5304 2.13279 14.5386 1.68035 13.4462C1.2279 12.3537 0.996657 11.1824 1 10C0.996749 8.81762 1.22804 7.64632 1.68048 6.55392C2.13292 5.46151 2.79752 4.46968 3.63583 3.63584C4.46962 2.79746 5.46144 2.1328 6.55386 1.68036C7.64628 1.22791 8.8176 0.996665 10 1.00001C12.1467 1.00001 14.1775 1.74667 15.7983 3.11667C15.6959 3.37668 15.6857 3.66395 15.7694 3.93057C15.8532 4.19719 16.0258 4.42704 16.2585 4.58179C16.4912 4.73653 16.7699 4.80681 17.0482 4.78091C17.3265 4.755 17.5874 4.63448 17.7876 4.43944C17.9877 4.2444 18.1149 3.98664 18.148 3.70914C18.1811 3.43165 18.1181 3.15119 17.9694 2.91456C17.8207 2.67793 17.5954 2.49943 17.331 2.40882C17.0667 2.31822 16.7792 2.32099 16.5167 2.41667C14.7051 0.854814 12.3919 -0.0029996 10 7.88136e-06ZM8.8 4.90001L5.3 13.985H7.49167L8.06417 12.445H11.3717L10.7725 10.7433H8.595L10.0117 6.83417L12.5317 13.9842H14.7242L11.225 4.90001H8.8Z" fill="white"/>
</g>
<defs>
<clipPath id="clip0_56_306">
<rect width="20" height="20" fill="white"/>
</clipPath>
</defs>
</svg>
