<svg width="20" height="20" viewBox="0 0 20 20" fill="none" xmlns="http://www.w3.org/2000/svg">
<path d="M10.4842 0C10.8475 0.0308333 11.21 0.0833333 11.5667 0.155C12.9658 0.474167 14.1675 1.16583 15.2183 2.12583C16.1858 3.00917 16.8158 4.1025 17.1642 5.36C17.2383 5.6275 17.3442 5.82667 17.6525 5.88C17.8233 5.90917 17.8508 6.08417 17.8517 6.23833C17.8542 6.77667 17.8533 7.31667 17.8533 7.855L17.8517 8.86333C17.8508 9.16 17.755 9.2625 17.4633 9.25833C17.2875 9.25583 17.2192 9.3575 17.1767 9.50083C17.055 9.90833 16.9017 10.3058 16.7167 10.6892C16.035 12.0908 14.98 13.1375 13.6433 13.9142C13.5792 13.9517 13.5142 13.9875 13.4492 14.0233C13.2392 14.1375 13.2342 14.145 13.32 14.3692C13.415 14.6183 13.6183 14.81 13.8733 14.89C14.0975 14.97 14.3342 15.0017 14.5625 15.065C14.6324 15.0784 14.6992 15.105 14.7592 15.1433C14.7042 15.2117 14.6292 15.1992 14.5667 15.2117C14.2667 15.2725 13.9725 15.365 13.6617 15.3533C13.5378 15.357 13.4143 15.3389 13.2967 15.3C13.2017 15.2625 13.17 15.295 13.15 15.3908C13.1046 15.6439 13.0812 15.9004 13.08 16.1575C13.0675 16.6717 13.0208 17.1825 12.9867 17.6942C12.9517 18.1925 12.9717 18.2367 13.4517 18.3958C13.6858 18.4742 13.9208 18.5517 14.1533 18.6342C14.2108 18.6542 14.2783 18.6658 14.3133 18.7317C14.28 18.7792 14.2317 18.7608 14.1917 18.7608C13.7808 18.7633 13.3708 18.765 12.96 18.7617C12.5233 18.7575 12.2883 18.5267 12.2558 18.0925C12.21 17.4575 12.1558 16.8225 12.1042 16.1875C12.0991 16.1537 12.0919 16.1203 12.0825 16.0875C12.0167 16.4667 12.0283 16.82 12.0125 17.1692C11.9933 17.6092 12.0058 18.05 12.0067 18.4892C12.0067 18.7142 12.0783 18.8125 12.2858 18.8917C12.585 19.0042 12.8783 19.1375 13.2142 19.11C13.3317 19.1 13.4442 19.1617 13.5492 19.2175C13.5758 19.2317 13.61 19.245 13.6067 19.2783C13.6033 19.3142 13.5658 19.3175 13.5367 19.3158C12.9892 19.3 12.4392 19.37 11.8933 19.2925C11.6242 19.2542 11.4492 19.0958 11.3675 18.8325C11.2892 18.58 11.2725 18.3183 11.2533 18.0575C11.215 17.5358 11.1883 17.0133 11.1567 16.4908C11.1587 16.4648 11.1552 16.4387 11.1465 16.4141C11.1377 16.3896 11.1239 16.3672 11.1058 16.3483C11.0783 16.3972 11.0692 16.4542 11.08 16.5092C11.0783 17.3058 11.0783 18.1017 11.0792 18.8975C11.0792 19.2208 11.1817 19.3767 11.4908 19.4875C11.8917 19.6308 12.3042 19.7358 12.7158 19.84C12.8075 19.8633 12.9033 19.8792 12.9175 20H11.3742C11.3317 19.9917 11.2883 19.9817 11.245 19.975C10.6608 19.8917 10.4108 19.665 10.2925 19.1067L10.2367 18.8308L10.0483 17.9117C9.99084 18.0117 9.95 18.12 9.92834 18.2333C9.85917 18.5658 9.8025 18.9017 9.72584 19.2333C9.63167 19.6442 9.35584 19.8692 8.94917 19.9475L8.67417 20H7.13167C7.17917 19.8575 7.31167 19.8458 7.4275 19.8158C7.82417 19.71 8.2275 19.63 8.60834 19.475C8.69945 19.4422 8.77915 19.3838 8.83784 19.3068C8.89654 19.2297 8.93172 19.1374 8.93917 19.0408C8.9875 18.6783 8.94084 18.32 8.92834 17.9608C8.91605 17.8713 8.89426 17.7833 8.86334 17.6983C8.82816 17.7493 8.80769 17.809 8.80417 17.8708C8.7825 18.1175 8.76334 18.3633 8.74167 18.6092C8.71 18.9692 8.51417 19.2058 8.17584 19.2842C8.07474 19.3079 7.97134 19.3205 7.8675 19.3217C7.40334 19.3242 6.93834 19.3208 6.47334 19.3175C6.43334 19.3175 6.3825 19.3333 6.35 19.2633C6.49834 19.1775 6.66417 19.1233 6.835 19.1075C7.09991 19.0761 7.36168 19.0223 7.6175 18.9467C7.9675 18.8517 8.0525 18.7392 8.04417 18.3742C8.025 17.5983 7.96834 16.8242 7.98667 16.0483C7.99 15.895 7.9875 15.7417 7.9875 15.5892C7.96493 15.6948 7.95099 15.8021 7.94584 15.91C7.91796 16.6401 7.86627 17.3691 7.79084 18.0958C7.7475 18.5233 7.54417 18.7192 7.12084 18.7667C6.74917 18.8092 6.38 18.7683 6.01084 18.75C5.92084 18.745 5.81584 18.76 5.72834 18.6967C5.76417 18.6417 5.81667 18.6383 5.86167 18.6242C6.16334 18.5283 6.46584 18.4375 6.76667 18.3375C6.97167 18.27 7.05834 18.1417 7.0625 17.9275C7.06501 17.8631 7.06417 17.7985 7.06 17.7342C7.01667 17.138 6.98749 16.5409 6.9725 15.9433C6.96859 15.8102 6.95886 15.6773 6.94334 15.545C6.92334 15.3883 6.83417 15.3058 6.6975 15.33C6.27667 15.4067 5.8725 15.325 5.47 15.2142C5.42084 15.2008 5.35834 15.2083 5.32167 15.1408C5.39657 15.1039 5.47665 15.0786 5.55917 15.0658C5.77167 15.0225 5.98167 14.965 6.18667 14.8925C6.44667 14.7992 6.65667 14.6033 6.76584 14.35C6.84 14.1808 6.8125 14.0858 6.6725 14.0183C5.49084 13.4492 4.57917 12.5767 3.84667 11.5042C3.42386 10.881 3.1076 10.1919 2.91084 9.465C2.855 9.26 2.78084 9.215 2.59167 9.24833C2.33667 9.2925 2.2575 9.25333 2.14584 9.02083V6.1125C2.26584 5.86 2.31667 5.82833 2.59084 5.83833C2.78667 5.84667 2.79667 5.835 2.84834 5.63667C3.17834 4.38 3.75 3.2525 4.6575 2.31333C5.75 1.18333 7.1025 0.525833 8.61667 0.169167C8.99667 0.0791667 9.385 0.0441667 9.7725 0H10.4842ZM17.1292 7.45667C17.1325 7.19552 17.1192 6.93443 17.0892 6.675C17.0688 6.49343 17.0413 6.31274 17.0067 6.13333C16.5083 3.66333 15.0533 1.95 12.7975 0.91C11.5033 0.314167 10.1225 0.214167 8.7325 0.484167C6.02584 1.01167 4.23584 2.63667 3.28334 5.19417C2.92 6.17167 2.87084 7.19917 2.975 8.23583C3.0475 9.015 3.2575 9.77417 3.59584 10.4808C4.08334 11.4917 4.79917 12.32 5.66 13.0292C5.94584 13.2675 6.25917 13.4692 6.59417 13.6283C6.79 13.7208 6.8 13.7158 6.79834 13.5067C6.80334 13.3733 6.80084 13.24 6.79084 13.1067C6.68667 12.2567 6.6725 11.4025 6.65 10.5492C6.65304 10.4909 6.64042 10.4329 6.61346 10.3812C6.58649 10.3294 6.54617 10.2859 6.49667 10.255C6.17584 10.0317 5.9025 9.76167 5.72917 9.40583C5.33417 8.5975 5.41917 7.43833 6.40667 6.72667C6.52 6.64583 6.5875 6.56833 6.57167 6.41583C6.5644 6.29246 6.57308 6.16866 6.5975 6.0475C6.745 5.05833 7.22084 4.26583 8.0325 3.68083C8.59917 3.27083 9.23417 3.0375 9.9375 3.02917C10.34 3.02333 10.7317 3.12083 11.1158 3.2325C12.4567 3.62167 13.4875 4.9575 13.4867 6.31333C13.4805 6.40436 13.4978 6.49545 13.5369 6.57788C13.576 6.66032 13.6356 6.73134 13.71 6.78417C14.0958 7.09333 14.3942 7.47583 14.4958 7.9725C14.6792 8.87 14.4267 9.62417 13.68 10.1675C13.4583 10.3292 13.3908 10.5058 13.4025 10.7492C13.4042 10.7883 13.4025 10.8283 13.4008 10.8675L13.3492 12.0667C13.3283 12.555 13.2342 13.0375 13.2517 13.5283C13.2583 13.7142 13.2567 13.7167 13.4192 13.635C14.1862 13.2497 14.8652 12.7098 15.4133 12.0492C16.5133 10.735 17.1417 9.23917 17.1292 7.45667ZM7.5975 10.085C8.83834 10.1025 9.63334 8.77 9.0275 7.68583C8.88674 7.43431 8.68118 7.22506 8.43221 7.07984C8.18323 6.93461 7.8999 6.8587 7.61167 6.86C6.7 6.85667 5.98334 7.545 5.98 8.4275C5.97584 9.38417 6.6575 10.0817 7.5975 10.085ZM12.4258 10.085C13.3433 10.0867 14.0383 9.39917 14.0383 8.4875C14.0383 7.57833 13.3333 6.86333 12.4383 6.865C11.5517 6.8675 10.8217 7.58667 10.8192 8.46083C10.8167 9.38167 11.5117 10.0842 12.4258 10.085ZM11.1992 11.6992C11.0258 11.8058 10.86 11.93 10.6742 12.0192C10.2275 12.2333 9.78834 12.2333 9.35834 11.9792C9.22667 11.9008 9.10167 11.8117 8.97167 11.7308C8.9325 11.7075 8.895 11.645 8.84667 11.6792C8.81 11.7042 8.83834 11.7625 8.84584 11.805C8.87667 11.9542 8.89917 12.1067 8.91417 12.2583C8.93667 12.7292 9.15834 13.085 9.5325 13.35C9.625 13.4213 9.73166 13.472 9.84534 13.4987C9.95902 13.5254 10.0771 13.5276 10.1917 13.505C10.6625 13.4058 11.0458 12.9933 11.1283 12.49C11.1642 12.2683 11.1325 12.0367 11.2192 11.8208C11.2283 11.8009 11.2312 11.7786 11.2276 11.757C11.2241 11.7353 11.2142 11.7152 11.1992 11.6992ZM3.8825 7.59917C3.8725 6.68083 4.00167 5.88667 4.3325 5.13167C4.86 3.92917 5.70084 3.00417 6.81584 2.32C6.87673 2.28548 6.94739 2.27224 7.01666 2.28235C7.08592 2.29246 7.14985 2.32535 7.19834 2.37583C7.24834 2.42583 7.22834 2.47417 7.20667 2.52417C7.12372 2.70598 6.98312 2.85536 6.80667 2.94917C5.9075 3.48167 5.2825 4.25833 4.8425 5.18917C4.47048 5.9642 4.29367 6.81847 4.3275 7.6775C4.37334 8.76833 4.69334 9.77417 5.33834 10.6675C5.41167 10.7542 5.46167 10.8592 5.4825 10.9717C5.49084 11.0383 5.53167 11.1117 5.45667 11.1617C5.42245 11.1864 5.38271 11.2025 5.3409 11.2084C5.29908 11.2144 5.25644 11.2101 5.21667 11.1958C5.13755 11.1654 5.06955 11.1116 5.02167 11.0417C4.42167 10.2258 4.0275 9.32833 3.9125 8.31417C3.8825 8.0425 3.90917 7.77 3.8825 7.59917ZM7.45 1.95C7.44899 1.9082 7.45642 1.86663 7.47185 1.82777C7.48728 1.78891 7.51039 1.75356 7.5398 1.72384C7.56921 1.69412 7.60431 1.67064 7.64301 1.6548C7.6817 1.63896 7.7232 1.63109 7.765 1.63167C7.94084 1.6325 8.10584 1.82 8.11167 2.02583C8.115 2.14083 7.85417 2.35083 7.715 2.3475C7.5575 2.34333 7.45 2.18083 7.45 1.95ZM7.0625 8.18333C7.05755 8.04885 7.10621 7.91791 7.19779 7.8193C7.28936 7.72069 7.41636 7.66249 7.55084 7.6575C7.8675 7.655 8.11 7.88333 8.11334 8.185C8.11667 8.48167 7.88834 8.70333 7.58084 8.7025C7.26417 8.70083 7.06334 8.50167 7.0625 8.18333ZM12.4758 8.7025C12.1583 8.70083 11.955 8.49 11.9583 8.16417C11.9627 8.03247 12.016 7.90712 12.1078 7.81264C12.1997 7.71816 12.3235 7.66136 12.455 7.65333C12.5268 7.6519 12.5982 7.66462 12.665 7.69077C12.7319 7.71692 12.793 7.756 12.8448 7.80576C12.8965 7.85552 12.938 7.91499 12.9668 7.98077C12.9956 8.04656 13.0111 8.11737 13.0125 8.18917C13.0133 8.48417 12.7833 8.70417 12.4758 8.7025Z" fill="#EF7B4D"/>
</svg>
