<svg width="20" height="20" viewBox="0 0 20 20" fill="none" xmlns="http://www.w3.org/2000/svg">
<g clip-path="url(#clip0_61_176)">
<path d="M5.63584 8.36332C5.63584 8.60999 5.66251 8.80916 5.70918 8.95499C5.76251 9.10166 5.82917 9.26166 5.92251 9.43499C5.95584 9.48749 5.96918 9.54082 5.96918 9.58749C5.96918 9.65416 5.92918 9.72082 5.84251 9.78749L5.42334 10.0667C5.37268 10.1032 5.31241 10.124 5.25001 10.1267C5.18334 10.1267 5.11667 10.0933 5.05084 10.0333C4.96132 9.93703 4.88123 9.83239 4.81168 9.72082C4.73718 9.59302 4.66823 9.46206 4.60501 9.32832C4.08668 9.93999 3.43418 10.2458 2.64918 10.2458C2.09084 10.2458 1.64501 10.0867 1.31918 9.76749C0.993342 9.44749 0.827509 9.02249 0.827509 8.48999C0.827509 7.92499 1.02668 7.46499 1.43251 7.11999C1.83834 6.77416 2.37668 6.60082 3.06168 6.60082C3.28834 6.60082 3.52084 6.62082 3.76668 6.65416C4.01334 6.68749 4.26668 6.74082 4.53168 6.80082V6.31499C4.53168 5.80916 4.42584 5.45666 4.21918 5.25082C4.00668 5.04416 3.64751 4.94499 3.13584 4.94499C2.90251 4.94499 2.66251 4.97082 2.41668 5.03082C2.17084 5.09082 1.93084 5.16416 1.69834 5.25749C1.62254 5.29143 1.54459 5.32038 1.46501 5.34416C1.43073 5.3552 1.39515 5.36165 1.35918 5.36332C1.26584 5.36332 1.21918 5.29666 1.21918 5.15749V4.83166C1.21918 4.72499 1.23251 4.64499 1.26584 4.59832C1.31618 4.53782 1.38015 4.49013 1.45251 4.45916C1.68501 4.33916 1.96418 4.23916 2.29001 4.15916C2.62919 4.07232 2.97824 4.03002 3.32834 4.03332C4.12001 4.03332 4.69834 4.21332 5.07084 4.57249C5.43668 4.93082 5.62251 5.47666 5.62251 6.20832V8.36332H5.63584ZM2.93584 9.37499C3.15501 9.37499 3.38084 9.33499 3.62084 9.25499C3.86001 9.17499 4.07334 9.02916 4.25251 8.82999C4.35918 8.70332 4.43918 8.56332 4.47918 8.40332C4.51834 8.24416 4.54584 8.05082 4.54584 7.82499V7.54582C4.34396 7.49661 4.13947 7.45877 3.93334 7.43249C3.72604 7.40615 3.5173 7.39279 3.30834 7.39249C2.86251 7.39249 2.53668 7.47916 2.31668 7.65916C2.09751 7.83832 1.99168 8.09082 1.99168 8.42332C1.99168 8.73582 2.07084 8.96916 2.23751 9.12832C2.39668 9.29499 2.62918 9.37499 2.93584 9.37499ZM8.27751 10.0933C8.15751 10.0933 8.07751 10.0733 8.02417 10.0267C7.97084 9.98666 7.92418 9.89332 7.88418 9.76749L6.32168 4.62499C6.29128 4.53876 6.27114 4.44926 6.26167 4.35832C6.26167 4.25166 6.31501 4.19166 6.42084 4.19166H7.07334C7.19917 4.19166 7.28584 4.21249 7.33168 4.25832C7.38584 4.29832 7.42584 4.39166 7.46501 4.51832L8.58334 8.92166L9.62084 4.51832C9.65417 4.38499 9.69417 4.29832 9.74668 4.25832C9.82663 4.20929 9.91972 4.18602 10.0133 4.19166H10.545C10.6717 4.19166 10.7583 4.21249 10.8117 4.25832C10.8642 4.29832 10.9117 4.39166 10.9375 4.51832L11.9883 8.97499L13.1392 4.51832C13.1792 4.38499 13.2258 4.29832 13.2725 4.25832C13.3497 4.20931 13.4404 4.18598 13.5317 4.19166H14.1508C14.2567 4.19166 14.3175 4.24582 14.3175 4.35832C14.3175 4.39166 14.31 4.42499 14.3033 4.46499C14.2929 4.52185 14.2773 4.57764 14.2567 4.63166L12.6542 9.77332C12.6142 9.90666 12.5675 9.99249 12.5142 10.0325C12.4391 10.0807 12.3508 10.104 12.2617 10.0992H11.6892C11.5633 10.0992 11.4767 10.0792 11.4225 10.0325C11.37 9.98582 11.3233 9.89916 11.2975 9.76582L10.2658 5.47582L9.24084 9.75916C9.20751 9.89249 9.16834 9.97916 9.11584 10.0258C9.06168 10.0725 8.96834 10.0925 8.84918 10.0925L8.27751 10.0933ZM16.8242 10.2725C16.4783 10.2725 16.1325 10.2325 15.8 10.1533C15.4675 10.0733 15.2083 9.98666 15.035 9.88666C14.9283 9.82749 14.8558 9.76082 14.8292 9.70082C14.8032 9.642 14.7896 9.57846 14.7892 9.51416V9.17499C14.7892 9.03582 14.8425 8.96916 14.9417 8.96916C14.9817 8.96916 15.0217 8.97582 15.0617 8.98916C15.1017 9.00249 15.1617 9.02916 15.2283 9.05582C15.4542 9.15582 15.7 9.23499 15.96 9.28832C16.2258 9.34166 16.485 9.36832 16.7517 9.36832C17.17 9.36832 17.4967 9.29499 17.7225 9.14832C17.8308 9.08292 17.9198 8.99002 17.9805 8.87908C18.0413 8.76814 18.0716 8.6431 18.0683 8.51666C18.0708 8.43102 18.0562 8.34575 18.0254 8.26578C17.9947 8.18582 17.9484 8.11275 17.8892 8.05082C17.7692 7.92499 17.5425 7.81166 17.2167 7.70499L16.2525 7.40499C15.7667 7.25249 15.4075 7.02666 15.1883 6.72749C14.9738 6.45139 14.8566 6.11212 14.855 5.76249C14.855 5.48332 14.9158 5.23749 15.035 5.02416C15.155 4.81166 15.3142 4.62499 15.5142 4.47916C15.7142 4.32582 15.9392 4.21249 16.2058 4.13332C16.4725 4.05332 16.7517 4.01999 17.0442 4.01999C17.19 4.01999 17.3433 4.02666 17.49 4.04666C17.6425 4.06666 17.7817 4.09332 17.9217 4.11999C18.055 4.15332 18.1817 4.18666 18.3008 4.22582C18.4208 4.26582 18.5142 4.30582 18.5808 4.34582C18.6594 4.38536 18.7278 4.44237 18.7808 4.51249C18.8238 4.5772 18.8446 4.65412 18.84 4.73166V5.04416C18.84 5.18416 18.7867 5.25749 18.6867 5.25749C18.5981 5.24734 18.5124 5.22017 18.4342 5.17749C18.0323 4.99996 17.5968 4.91155 17.1575 4.91832C16.7783 4.91832 16.4783 4.97749 16.2725 5.10416C16.0658 5.23082 15.96 5.42332 15.96 5.69582C15.96 5.88249 16.0267 6.04249 16.16 6.16832C16.2925 6.29499 16.5383 6.42166 16.8908 6.53499L17.8358 6.83332C18.3142 6.98666 18.6608 7.19999 18.8667 7.47249C19.0725 7.74499 19.1725 8.05749 19.1725 8.40332C19.1725 8.68916 19.1125 8.94916 19 9.17499C18.88 9.40166 18.72 9.60082 18.5142 9.76082C18.3075 9.92749 18.0617 10.0467 17.7758 10.1333C17.4758 10.2258 17.1642 10.2725 16.8242 10.2725ZM18.0817 13.5058C15.8933 15.1225 12.7133 15.98 9.98001 15.98C6.14834 15.98 2.69668 14.5633 0.0883419 12.2083C-0.117491 12.0225 0.0683419 11.7692 0.315009 11.9158C3.13501 13.5517 6.61418 14.5433 10.2125 14.5433C12.6408 14.5433 15.3075 14.0375 17.7625 13C18.1283 12.8333 18.4408 13.2392 18.0817 13.5058ZM18.9933 12.4675C18.7133 12.1092 17.1433 12.295 16.4317 12.3817C16.2192 12.4083 16.1858 12.2217 16.3792 12.0817C17.6292 11.2042 19.685 11.4567 19.9242 11.7492C20.1633 12.0492 19.8575 14.1042 18.6867 15.0883C18.5075 15.2417 18.3342 15.1617 18.4142 14.9625C18.6808 14.3042 19.2725 12.8208 18.9933 12.4675Z" fill="#FF9900"/>
</g>
<defs>
<clipPath id="clip0_61_176">
<rect width="20" height="20" fill="white"/>
</clipPath>
</defs>
</svg>
