<svg width="20" height="20" viewBox="0 0 20 20" fill="none" xmlns="http://www.w3.org/2000/svg">
<g clip-path="url(#clip0_56_246)">
<path d="M9.99833 0.0162354C9.27817 0.0162354 8.597 0.107985 8.21125 0.177402V0.179069C3.47758 1.02357 0 5.11399 0 10.0015C0 10.9402 0.131083 11.8622 0.387333 12.7538C0.419583 12.8749 0.463583 13.0032 0.501333 13.1266C1.8405 17.1807 5.68842 19.9816 9.99508 19.9837C10.0493 19.9837 10.2049 19.9834 10.4134 19.9738C11.1271 19.9444 11.7658 19.496 12.0394 18.833L12.4341 17.871L17.0215 6.70249H15.5175L13.5872 11.595L11.6422 6.70249H10.052L12.7798 13.3789C12.1036 15.0207 11.4255 16.6618 10.7503 18.304C10.6829 18.4661 10.529 18.5777 10.3563 18.584C10.2363 18.5882 10.1188 18.5922 9.99667 18.5922C6.176 18.5922 2.774 16.0342 1.72358 12.3714C1.50285 11.6009 1.39107 10.8032 1.3915 10.0017C1.3915 5.76107 4.43492 2.21799 8.56108 1.53165C8.74558 1.50082 9.3015 1.41115 9.99825 1.41115C13.6788 1.41115 16.8891 3.68782 18.107 7.11749C18.1535 7.23749 18.1884 7.36165 18.2291 7.48374C18.4783 8.2959 18.6067 9.14099 18.6067 10.0017C18.6067 13.8097 16.1556 17.1122 12.5097 18.2194L12.9149 19.5524C17.1524 18.2641 19.9978 14.4259 19.9999 10.0032C19.9999 8.71232 19.7513 7.61107 19.4579 6.7594C19.4219 6.6584 19.3852 6.55757 19.3488 6.45665H19.3472C17.8814 2.57949 14.2037 0.0162354 9.99833 0.0162354ZM7.028 6.57549C6.02808 6.57549 5.21575 6.89649 4.54425 7.55532C3.877 8.20999 3.54008 9.03332 3.54008 10.0017C3.54008 10.9637 3.87908 11.7823 4.54425 12.4349C5.21575 13.0937 6.02808 13.4131 7.028 13.4131C8.44883 13.4131 9.65767 12.6172 10.1839 11.3395L10.2116 11.2712L8.85417 10.8089C8.71417 11.1892 8.22483 12.0492 7.028 12.0492C6.46592 12.0492 5.99158 11.8538 5.61683 11.4665C5.23583 11.0749 5.04392 10.5805 5.04392 10.0017C5.04392 9.41849 5.23167 8.93424 5.61683 8.52374C5.99367 8.1364 6.466 7.9394 7.028 7.9394C8.22633 7.9394 8.7145 8.84065 8.85583 9.17965L10.2117 8.71907L10.1839 8.64907C9.65975 7.36924 8.44892 6.57549 7.028 6.57549Z" fill="#69D3A7"/>
</g>
<defs>
<clipPath id="clip0_56_246">
<rect width="20" height="20" fill="white"/>
</clipPath>
</defs>
</svg>
