<svg width="20" height="20" viewBox="0 0 20 20" fill="none" xmlns="http://www.w3.org/2000/svg">
<g clip-path="url(#clip0_61_327)">
<path d="M16.3083 14.2L14.6442 13.1033L13.2567 15.4217L11.6425 14.9492L10.2208 17.1192L10.2933 17.8025L18.0217 16.3775L17.5733 11.5492L16.3083 14.2ZM9.10083 12.1183L10.3408 11.9483C10.5417 12.0383 10.6817 12.0733 10.9217 12.1342C11.2967 12.2317 11.73 12.3258 12.3725 12.0008C12.5225 11.9275 12.8333 11.6425 12.9592 11.48L18.0392 10.5583L18.5575 16.8308L9.85417 18.3992L9.10083 12.1183ZM18.5383 9.85833L18.0367 9.95417L17.0733 0L0.657501 1.90417L2.68 18.315L4.60167 18.0367C4.44833 17.8175 4.20917 17.5525 3.80167 17.2125C3.235 16.7425 3.435 15.9442 3.76917 15.44C4.21083 14.5883 6.48584 13.505 6.3575 12.1433C6.31083 11.6483 6.2325 11.0033 5.7725 10.5617C5.75583 10.745 5.78667 10.9217 5.78667 10.9217C5.78667 10.9217 5.5975 10.6808 5.50333 10.3525C5.41 10.2275 5.33667 10.1867 5.2375 10.0192C5.16667 10.2133 5.17667 10.4383 5.17667 10.4383C5.17667 10.4383 5.02167 10.0742 4.99667 9.76583C4.905 9.90417 4.8825 10.1658 4.8825 10.1658C4.8825 10.1658 4.68167 9.59083 4.7275 9.28083C4.63583 9.01167 4.36417 8.47667 4.44167 7.26083C4.94167 7.61167 6.045 7.52833 6.475 6.895C6.6175 6.68583 6.715 6.1125 6.40333 4.98417C6.20333 4.26083 5.7075 3.18417 5.515 2.775L5.49167 2.79167C5.59333 3.12083 5.80333 3.81083 5.88333 4.14583C6.1275 5.16083 6.19334 5.51417 6.07833 5.9825C5.98167 6.38917 5.7475 6.65583 5.15583 6.95333C4.56417 7.25167 3.77833 6.525 3.72833 6.485C3.15333 6.02667 2.70833 5.27917 2.65833 4.91583C2.60667 4.51833 2.8875 4.28 3.02917 3.955C2.82667 4.01333 2.60083 4.115 2.60083 4.115C2.60083 4.115 2.87 3.83667 3.2025 3.595C3.34 3.50417 3.42083 3.44667 3.56583 3.32583C3.43917 3.32371 3.31246 3.32454 3.18583 3.32833C3.18583 3.32833 3.53583 3.13917 3.89833 3.00167C3.63333 2.99 3.37917 2.99917 3.37917 2.99917C3.37917 2.99917 4.16 2.65 4.7775 2.39333C5.20167 2.22 5.61583 2.27083 5.84917 2.6075C6.155 3.04917 6.47583 3.28833 7.15667 3.4375C7.57417 3.25167 7.70084 3.15667 8.22667 3.01333C8.68834 2.505 9.05167 2.44 9.05167 2.44C9.05167 2.44 8.87167 2.605 8.82334 2.865C9.085 2.6575 9.37334 2.48583 9.37334 2.48583C9.37334 2.48583 9.26167 2.6225 9.1575 2.84083L9.1825 2.87667C9.4875 2.69333 9.84667 2.54833 9.84667 2.54833C9.84667 2.54833 9.74417 2.67833 9.62334 2.84667C9.85417 2.845 10.3217 2.85667 10.5033 2.8775C11.5742 2.90083 11.7967 1.7325 12.2075 1.58583C12.7225 1.4025 12.9525 1.29167 13.83 2.1525C14.5825 2.8925 15.1708 4.21667 14.8792 4.51333C14.6342 4.75917 14.1508 4.4175 13.6158 3.75C13.3108 3.37307 13.1056 2.92543 13.0192 2.44833C12.9628 2.1731 12.8172 1.92415 12.605 1.74C12.605 1.74 12.7967 2.165 12.7967 2.54C12.7967 2.745 12.8217 3.51083 13.15 3.94C13.1175 4.00333 13.1025 4.25167 13.0667 4.29833C12.685 3.83667 11.8642 3.50667 11.73 3.40917C12.1833 3.78 13.2242 4.6325 13.6242 5.45C14.0017 6.2225 13.7792 6.93083 13.9708 7.11417C14.025 7.16667 14.7842 8.11167 14.9292 8.58667C15.1842 9.415 14.945 10.285 14.6117 10.8242L13.6808 10.9692C13.545 10.9317 13.4533 10.9125 13.3308 10.8417C13.3975 10.7225 13.5317 10.425 13.5333 10.365L13.4808 10.2725C13.1908 10.6825 12.7058 11.0808 12.3025 11.31C11.775 11.6092 11.1667 11.5633 10.7708 11.44C9.6475 11.0942 8.585 10.3342 8.32917 10.135C8.32917 10.135 8.32084 10.2942 8.36917 10.33C8.6525 10.6492 9.30167 11.2275 9.92917 11.63L8.59167 11.7775L9.22417 16.7008C8.94334 16.7408 8.89917 16.76 8.59334 16.8042C8.3225 15.8483 7.805 15.225 7.24 14.8608C6.74083 14.5408 6.05333 14.4692 5.395 14.5992L5.35333 14.6483C5.89802 14.589 6.44648 14.7197 6.90583 15.0183C7.45083 15.3625 7.89 16.2525 8.05167 16.7883C8.25834 17.4733 8.40167 18.205 7.845 18.9817C7.44833 19.5333 6.29167 19.8383 5.35667 19.1792C5.60667 19.58 5.94417 19.9092 6.39833 19.9708C7.0725 20.0625 7.7125 19.9458 8.15334 19.4925C8.53 19.1058 8.72834 18.2975 8.67667 17.4458L9.27167 17.3592L9.48667 18.8875L19.3425 17.7008L18.5383 9.85833ZM12.5417 5.70667C12.5133 5.76917 12.4708 5.81083 12.5358 6.015L12.5392 6.02667L12.55 6.05333L12.5767 6.11417C12.6933 6.35333 12.8225 6.57917 13.0367 6.69417C13.0925 6.685 13.15 6.67833 13.2092 6.675C13.4108 6.66667 13.5383 6.69833 13.6192 6.74167C13.6267 6.70167 13.6275 6.6425 13.6233 6.55667C13.6083 6.25333 13.6833 5.73833 13.1017 5.46667C12.8817 5.365 12.5733 5.39667 12.4708 5.52333C12.4873 5.52535 12.5035 5.52898 12.5192 5.53417C12.6742 5.58917 12.5692 5.6425 12.5417 5.70667ZM14.1733 8.53333C14.0967 8.49167 13.74 8.50833 13.4892 8.5375C13.0108 8.59417 12.495 8.76 12.3825 8.8475C12.1767 9.00667 12.27 9.28333 12.4217 9.3975C12.8475 9.71583 13.2217 9.92917 13.615 9.87667C13.8567 9.845 14.07 9.4625 14.2217 9.115C14.325 8.875 14.325 8.61667 14.1733 8.53333ZM9.9425 6.08167C10.0775 5.95333 9.27167 5.78583 8.64584 6.21167C8.18417 6.52667 8.17 7.20083 8.61167 7.58333C8.65584 7.62167 8.69167 7.64833 8.72583 7.67C9.09377 7.49672 9.48611 7.38093 9.88917 7.32667C9.98334 7.2225 10.0917 7.03917 10.0642 6.70583C10.0275 6.25417 9.685 6.32583 9.9425 6.08167Z" fill="white"/>
</g>
<defs>
<clipPath id="clip0_61_327">
<rect width="20" height="20" fill="white"/>
</clipPath>
</defs>
</svg>
