<svg width="20" height="20" viewBox="0 0 20 20" fill="none" xmlns="http://www.w3.org/2000/svg">
<g clip-path="url(#clip0_61_162)">
<path d="M11.6525 9.23166H13.4183C13.4593 9.23166 13.4986 9.21544 13.5277 9.18655C13.5567 9.15767 13.5731 9.11845 13.5733 9.07749V7.50499C13.5733 7.46388 13.557 7.42446 13.528 7.39539C13.4989 7.36632 13.4595 7.34999 13.4183 7.34999H11.6525C11.6116 7.34999 11.5724 7.36623 11.5435 7.39515C11.5146 7.42406 11.4983 7.46327 11.4983 7.50416V9.07749C11.4983 9.16249 11.5675 9.23166 11.6525 9.23166ZM9.19085 4.70666H10.9558C10.997 4.70666 11.0364 4.69033 11.0654 4.66126C11.0945 4.63219 11.1108 4.59277 11.1108 4.55166V2.97832C11.1106 2.93736 11.0942 2.89815 11.0652 2.86926C11.0361 2.84037 10.9968 2.82416 10.9558 2.82416H9.19085C9.14996 2.82416 9.11075 2.8404 9.08184 2.86931C9.05292 2.89822 9.03668 2.93744 9.03668 2.97832V4.55166C9.03668 4.63666 9.10501 4.70666 9.19085 4.70666ZM9.19085 6.96916H10.9558C10.9969 6.96894 11.0362 6.95254 11.0652 6.92352C11.0942 6.8945 11.1106 6.8552 11.1108 6.81416V5.24166C11.1106 5.20069 11.0942 5.16148 11.0652 5.13259C11.0361 5.10371 10.9968 5.08749 10.9558 5.08749H9.19085C9.14996 5.08749 9.11075 5.10373 9.08184 5.13265C9.05292 5.16156 9.03668 5.20077 9.03668 5.24166V6.81416C9.03668 6.89916 9.10501 6.96832 9.19085 6.96916ZM6.74918 6.96916H8.51585C8.55667 6.96872 8.59566 6.95219 8.62437 6.92317C8.65308 6.89415 8.66918 6.85498 8.66918 6.81416V5.24166C8.66918 5.20077 8.65294 5.16156 8.62403 5.13265C8.59512 5.10373 8.5559 5.08749 8.51501 5.08749H6.75001C6.70913 5.08749 6.66991 5.10373 6.641 5.13265C6.61209 5.16156 6.59585 5.20077 6.59585 5.24166V6.81416C6.59585 6.89916 6.66501 6.96832 6.75001 6.96916M4.28001 6.96916H6.04585C6.08681 6.96894 6.12602 6.95251 6.15491 6.92347C6.1838 6.89442 6.20002 6.85512 6.20001 6.81416V5.24166C6.20001 5.20077 6.18377 5.16156 6.15486 5.13265C6.12595 5.10373 6.08674 5.08749 6.04585 5.08749H4.28001C4.23905 5.08749 4.19975 5.10371 4.17071 5.13259C4.14166 5.16148 4.12523 5.20069 4.12501 5.24166V6.81416C4.12501 6.89916 4.19501 6.96832 4.28001 6.96916ZM9.19085 9.23166H10.9558C10.9968 9.23166 11.0361 9.21544 11.0652 9.18655C11.0942 9.15767 11.1106 9.11845 11.1108 9.07749V7.50499C11.1108 7.46388 11.0945 7.42446 11.0654 7.39539C11.0364 7.36632 10.997 7.34999 10.9558 7.34999H9.19085C9.14996 7.34999 9.11075 7.36623 9.08184 7.39515C9.05292 7.42406 9.03668 7.46327 9.03668 7.50416V9.07749C9.03668 9.16249 9.10501 9.23166 9.19085 9.23166ZM6.74918 9.23166H8.51585C8.55659 9.23144 8.59559 9.2151 8.62432 9.18621C8.65305 9.15732 8.66918 9.11823 8.66918 9.07749V7.50499C8.66929 7.48475 8.66541 7.46468 8.65777 7.44593C8.65012 7.42718 8.63885 7.41013 8.62462 7.39573C8.61038 7.38134 8.59344 7.36989 8.57478 7.36204C8.55612 7.3542 8.53609 7.3501 8.51585 7.34999H6.74918C6.70844 7.35021 6.66944 7.36655 6.64071 7.39544C6.61198 7.42433 6.59585 7.46341 6.59585 7.50416V9.07749C6.59585 9.16249 6.66501 9.23166 6.75001 9.23166M4.28001 9.23166H6.04585C6.08674 9.23166 6.12595 9.21542 6.15486 9.1865C6.18377 9.15759 6.20001 9.11838 6.20001 9.07749V7.50499C6.20012 7.48475 6.19625 7.46468 6.1886 7.44593C6.18095 7.42718 6.16969 7.41013 6.15545 7.39573C6.14121 7.38134 6.12428 7.36989 6.10562 7.36204C6.08695 7.3542 6.06693 7.3501 6.04668 7.34999H4.28001C4.23891 7.34999 4.19948 7.36632 4.17041 7.39539C4.14134 7.42446 4.12501 7.46388 4.12501 7.50499V9.07749C4.12501 9.16249 4.19501 9.23166 4.28001 9.23166ZM1.84668 9.23166H3.61335C3.65409 9.23144 3.69309 9.2151 3.72182 9.18621C3.75055 9.15732 3.76668 9.11823 3.76668 9.07749V7.50499C3.76679 7.48475 3.76291 7.46468 3.75527 7.44593C3.74762 7.42718 3.73636 7.41013 3.72212 7.39573C3.70788 7.38134 3.69094 7.36989 3.67228 7.36204C3.65362 7.3542 3.63359 7.3501 3.61335 7.34999H1.84668C1.80594 7.35021 1.76694 7.36655 1.73821 7.39544C1.70947 7.42433 1.69335 7.46341 1.69335 7.50416V9.07749C1.69335 9.16249 1.76085 9.23166 1.84668 9.23166ZM19.8025 8.24166C19.7483 8.19916 19.2425 7.81666 18.1742 7.81666C17.8925 7.81749 17.6108 7.84166 17.3325 7.88916C17.1258 6.47249 15.955 5.78082 15.9025 5.75082L15.6158 5.58499L15.4275 5.85749C15.1908 6.22249 15.0192 6.62582 14.9175 7.04916C14.7258 7.85749 14.8425 8.61749 15.2533 9.26666C14.7575 9.54332 13.9617 9.61082 13.8 9.61666H0.625848C0.460443 9.61688 0.301851 9.68257 0.184736 9.79937C0.0676212 9.91617 0.00150811 10.0746 0.000847521 10.24C-0.0145844 11.394 0.180843 12.5412 0.577514 13.625C1.03168 14.815 1.70668 15.6917 2.58585 16.2283C3.56918 16.8308 5.16918 17.1758 6.98168 17.1758C7.80085 17.1783 8.61751 17.1042 9.42335 16.9542C10.5424 16.7486 11.6192 16.3574 12.6092 15.7967C13.4258 15.3242 14.1592 14.7233 14.7842 14.0167C15.8275 12.835 16.4492 11.5192 16.9117 10.35H17.0958C18.2392 10.35 18.9417 9.89249 19.3292 9.50916C19.5867 9.26499 19.7875 8.96749 19.9183 8.63749L20 8.39749L19.8025 8.24166Z" fill="#2496ED"/>
</g>
<defs>
<clipPath id="clip0_61_162">
<rect width="20" height="20" fill="white"/>
</clipPath>
</defs>
</svg>
