<svg width="20" height="20" viewBox="0 0 20 20" fill="none" xmlns="http://www.w3.org/2000/svg">
<g clip-path="url(#clip0_61_197)">
<path d="M16.9542 13.6083L13.655 12.8367L12.78 11.1617L17.0942 7.38249C17.7206 7.61969 18.2601 8.04181 18.641 8.59282C19.0218 9.14383 19.2261 9.79765 19.2267 10.4675C19.2221 11.1626 19.0007 11.8389 18.5933 12.4021C18.1859 12.9653 17.6129 13.3864 16.9542 13.6083ZM14.4742 17.5092C13.9608 17.5092 13.4575 17.3367 13.0458 17.02L13.6975 13.6225L16.6942 14.3233C16.79 14.5817 16.8375 14.8583 16.8375 15.1458C16.8368 15.7724 16.5876 16.3732 16.1446 16.8162C15.7015 17.2593 15.1008 17.5085 14.4742 17.5092ZM12.2767 17.0208C11.8241 17.6889 11.2146 18.2358 10.5015 18.6136C9.78846 18.9913 8.99362 19.1884 8.18667 19.1875C7.4534 19.1867 6.72943 19.0233 6.06698 18.7089C5.40452 18.3945 4.82009 17.937 4.35582 17.3694C3.89156 16.8018 3.55903 16.1383 3.38221 15.4267C3.2054 14.715 3.1887 13.973 3.33334 13.2542L7.63917 9.36249L12.0325 11.365L13.005 13.2233L12.2767 17.0208ZM0.773335 9.53582C0.777975 8.84088 0.999326 8.1647 1.40653 7.60154C1.81374 7.03838 2.38651 6.61631 3.045 6.39415L6.33667 7.17165L7.10917 8.82166L2.90084 12.6258C2.27507 12.3867 1.73664 11.9633 1.35675 11.4115C0.976862 10.8598 0.77342 10.2057 0.773335 9.53582ZM5.52584 2.49415C6.04447 2.49365 6.54892 2.66346 6.96167 2.97749L6.30417 6.38749L3.30584 5.67915C3.20983 5.4159 3.16129 5.1377 3.1625 4.85749C3.16316 4.23096 3.41223 3.63026 3.85509 3.18709C4.29796 2.74391 4.89848 2.49442 5.525 2.49332M7.74167 2.98499C8.33635 2.11349 9.19477 1.4556 10.1909 1.1079C11.187 0.760207 12.2684 0.741019 13.2762 1.05316C14.284 1.3653 15.1652 1.99232 15.7905 2.84217C16.4157 3.69202 16.752 4.71993 16.75 5.77499C16.75 6.10832 16.7183 6.42582 16.655 6.74499L12.2392 10.6142L7.86334 8.61915L7.00834 6.79415L7.74167 2.98499ZM20 10.4758C20.0017 9.66423 19.7525 8.87195 19.2864 8.2075C18.8204 7.54305 18.1603 7.03892 17.3967 6.76415C17.4664 6.41006 17.5015 6.05004 17.5017 5.68915C17.4997 4.191 16.9036 2.7548 15.844 1.6956C14.7845 0.636406 13.3482 0.0406975 11.85 0.0391541C10.9558 0.0391105 10.0744 0.251642 9.27856 0.65922C8.48268 1.0668 7.79509 1.65774 7.2725 2.38332C6.74726 1.97533 6.10092 1.75421 5.43584 1.75499C4.95233 1.75601 4.47622 1.87376 4.04797 2.09822C3.61972 2.32268 3.25199 2.64722 2.97604 3.04424C2.7001 3.44127 2.52408 3.89906 2.46297 4.37869C2.40185 4.85832 2.45744 5.34561 2.625 5.79915C1.85912 6.07773 1.19695 6.58424 0.727635 7.25052C0.25832 7.9168 0.0043822 8.71086 1.74004e-06 9.52582C-0.00287985 10.3409 0.247172 11.1369 0.715683 11.8039C1.18419 12.4709 1.84809 12.9762 2.61584 13.25C2.54768 13.604 2.51308 13.9636 2.5125 14.3242C2.51427 15.8188 3.10878 17.2517 4.16564 18.3085C5.22249 19.3654 6.65539 19.9599 8.15 19.9617C9.975 19.9617 11.6667 19.085 12.725 17.6083C13.2487 18.0224 13.8966 18.2481 14.5642 18.2492C15.0479 18.2485 15.5243 18.131 15.9529 17.9066C16.3814 17.6822 16.7494 17.3576 17.0255 16.9604C17.3016 16.5631 17.4777 16.1051 17.5387 15.6252C17.5997 15.1453 17.5438 14.6578 17.3758 14.2042C18.1418 13.9255 18.8039 13.4188 19.2731 12.7524C19.7423 12.0859 19.996 11.2909 20 10.4758Z" fill="#F7DF1E"/>
</g>
<defs>
<clipPath id="clip0_61_197">
<rect width="20" height="20" fill="white"/>
</clipPath>
</defs>
</svg>
