<svg width="20" height="20" viewBox="0 0 20 20" fill="none" xmlns="http://www.w3.org/2000/svg">
<g clip-path="url(#clip0_61_206)">
<path d="M11.1617 3.72275e-06C7.23583 3.72275e-06 3.84083 2.26334 2.20333 5.55584H15.2375C16.1734 5.55858 17.0802 5.23102 17.7983 4.63084C18.17 4.31834 18.5183 3.97667 18.8375 3.595L18.8383 3.59334C17.901 2.46761 16.7272 1.56208 15.4005 0.941054C14.0738 0.320028 12.6266 -0.00126158 11.1617 3.72275e-06ZM1.50333 7.4075C1.04782 9.10582 1.04782 10.8942 1.50333 12.5925H13.7533C14.4409 12.5925 15.1003 12.3194 15.5865 11.8332C16.0727 11.347 16.3458 10.6876 16.3458 10C16.3458 9.31243 16.0727 8.65302 15.5865 8.16683C15.1003 7.68064 14.4409 7.4075 13.7533 7.4075H1.50333ZM2.20333 14.4442C3.84166 17.7358 7.23666 20 11.1625 20C14.2467 20 17.005 18.6025 18.8392 16.4067L18.8383 16.405C18.5232 16.0297 18.1755 15.6831 17.7992 15.3692C17.0811 14.769 16.1742 14.4414 15.2383 14.4442H2.20333Z" fill="#FF9900"/>
</g>
<defs>
<clipPath id="clip0_61_206">
<rect width="20" height="20" fill="white"/>
</clipPath>
</defs>
</svg>
