<svg width="20" height="20" viewBox="0 0 20 20" fill="none" xmlns="http://www.w3.org/2000/svg">
<g clip-path="url(#clip0_56_276)">
<path d="M10 0C4.5 0 0 4.5 0 10C0 15.5 4.5 20 10 20C15.5 20 20 15.5 20 10C20 4.5 15.5 0 10 0ZM10 2.1425C12.6425 2.1425 14.9292 3.42833 16.3575 5.3575L15.2858 6.28667C14.0717 4.64333 12.1425 3.57167 10 3.57167C7.21417 3.57167 4.8575 5.3575 3.92833 7.8575L12.1425 16.0717C14.2142 15.3575 15.7867 13.5717 16.2867 11.4283H12.8575V10H17.8575C17.8575 13.7142 15.2142 16.8567 11.7142 17.6417L2.35833 8.28667C3.14333 4.78583 6.28583 2.14167 10 2.14167V2.1425ZM2.1425 10.1425L9.92917 17.8575C7.92917 17.7858 5.92833 17.0717 4.42833 15.5717C2.92833 14.0717 2.1425 12.0708 2.1425 10.1425Z" fill="#663399"/>
</g>
<defs>
<clipPath id="clip0_56_276">
<rect width="20" height="20" fill="white"/>
</clipPath>
</defs>
</svg>
