<svg width="20" height="20" viewBox="0 0 20 20" fill="none" xmlns="http://www.w3.org/2000/svg">
<g clip-path="url(#clip0_61_297)">
<path d="M19.6217 9.1083L10.8892 0.376631C10.3858 -0.125869 9.57083 -0.125869 9.06583 0.376631L7.25667 2.18913L9.55667 4.48913C10.0942 4.30996 10.7058 4.4308 11.1308 4.85663C11.5608 5.2858 11.6792 5.90496 11.4958 6.43996L13.7108 8.65663C14.2483 8.4708 14.8667 8.59163 15.2942 9.01913C15.895 9.61913 15.895 10.5891 15.2942 11.1891C14.695 11.7883 13.7267 11.7883 13.1275 11.1891C12.6783 10.7383 12.5658 10.075 12.7908 9.5258L10.7167 7.46246V12.9C10.8633 12.9716 11.0017 13.0691 11.1233 13.19C11.7175 13.7908 11.7175 14.7591 11.1233 15.3566C10.5242 15.9575 9.54917 15.9575 8.94917 15.3566C8.35 14.7575 8.35 13.7908 8.94917 13.1916C9.10083 13.0416 9.27167 12.9283 9.45333 12.8533V7.36246C9.2725 7.28663 9.1 7.17746 8.95333 7.0283C8.49917 6.57413 8.39 5.90996 8.62333 5.35413L6.36333 3.0833L0.375 9.06746C-0.125 9.57163 -0.125 10.3875 0.375 10.8916L9.10833 19.6225C9.61167 20.1258 10.4267 20.1258 10.93 19.6225L19.6217 10.9308C20.1258 10.4283 20.1258 9.61246 19.6217 9.1083Z" fill="#F05032"/>
</g>
<defs>
<clipPath id="clip0_61_297">
<rect width="20" height="20" fill="white"/>
</clipPath>
</defs>
</svg>
