<svg width="20" height="20" viewBox="0 0 20 20" fill="none" xmlns="http://www.w3.org/2000/svg">
<g clip-path="url(#clip0_61_313)">
<path d="M19.667 7.99391L19.6389 7.92208L16.9167 0.817827C16.8613 0.678546 16.7632 0.560393 16.6365 0.480327C16.5097 0.401667 16.3619 0.363797 16.2129 0.37183C16.0639 0.379862 15.921 0.433409 15.8034 0.525243C15.6871 0.619699 15.6027 0.7477 15.5618 0.891827L13.7238 6.51516H6.28126L4.44318 0.891827C4.40331 0.7469 4.31874 0.618241 4.20151 0.52416C4.08392 0.432351 3.94098 0.378834 3.792 0.370831C3.64303 0.362829 3.49518 0.400727 3.36843 0.47941C3.24202 0.559778 3.14402 0.677797 3.08826 0.816827L0.361012 7.91791L0.333929 7.98974C-0.057948 9.01362 -0.106326 10.1371 0.19609 11.1909C0.498505 12.2447 1.13532 13.1716 2.01051 13.8318L2.01993 13.8391L2.04493 13.8568L6.1916 16.9622L8.24326 18.5149L9.49285 19.4583C9.63902 19.5693 9.81752 19.6294 10.0011 19.6294C10.1846 19.6294 10.3631 19.5693 10.5093 19.4583L11.7588 18.5149L13.8104 16.9622L17.9821 13.8381L17.9925 13.8297C18.8657 13.1694 19.5011 12.2434 19.803 11.1911C20.105 10.1387 20.0573 9.01681 19.667 7.99391Z" fill="#FC6D26"/>
</g>
<defs>
<clipPath id="clip0_61_313">
<rect width="20" height="20" fill="white"/>
</clipPath>
</defs>
</svg>
