<svg width="20" height="20" viewBox="0 0 20 20" fill="none" xmlns="http://www.w3.org/2000/svg">
<g clip-path="url(#clip0_61_190)">
<path d="M1.50917 8.52584C1.47 8.52584 1.46083 8.50667 1.48 8.47667L1.685 8.21417C1.70417 8.185 1.7525 8.16583 1.79167 8.16583H5.26833C5.30667 8.16583 5.31667 8.195 5.2975 8.22417L5.13167 8.47667C5.1125 8.50667 5.06333 8.535 5.03417 8.535L1.50917 8.52584ZM0.0391672 9.42167C5.63759e-07 9.42167 -0.00999944 9.4025 0.0100006 9.37334L0.214167 9.11C0.233334 9.08084 0.282501 9.06167 0.321667 9.06167H4.76167C4.80083 9.06167 4.82 9.09084 4.81 9.12L4.7325 9.35333C4.7225 9.3925 4.68417 9.41167 4.645 9.41167L0.0391672 9.42167ZM2.39583 10.3175C2.35667 10.3175 2.34667 10.2883 2.36667 10.2592L2.5025 10.0158C2.52167 9.98667 2.56083 9.9575 2.6 9.9575H4.5475C4.58667 9.9575 4.60583 9.98667 4.60583 10.0258L4.58667 10.2592C4.58667 10.2983 4.5475 10.3275 4.51833 10.3275L2.39583 10.3175ZM12.5033 8.35083C11.89 8.50667 11.4708 8.62333 10.8675 8.77917C10.7208 8.8175 10.7117 8.8275 10.5842 8.68167C10.4392 8.51584 10.3317 8.40917 10.1275 8.31167C9.51333 8.01 8.91917 8.0975 8.365 8.4575C7.7025 8.88584 7.36167 9.51917 7.37167 10.3075C7.38083 11.0867 7.91667 11.7292 8.68583 11.8367C9.34833 11.9242 9.9025 11.6908 10.3417 11.195C10.4292 11.0867 10.5067 10.97 10.6042 10.8333H8.725C8.52083 10.8333 8.47167 10.7067 8.54 10.5417C8.66667 10.24 8.9 9.73334 9.03667 9.48C9.05753 9.43307 9.09171 9.39329 9.13496 9.36559C9.17822 9.33789 9.22864 9.32349 9.28 9.32417H12.8242C12.805 9.5875 12.805 9.85 12.7658 10.1133C12.665 10.8066 12.3903 11.4631 11.9675 12.0217C11.2667 12.9467 10.3508 13.5217 9.1925 13.6767C8.23833 13.8033 7.35167 13.6183 6.57333 13.035C5.8525 12.4892 5.44333 11.7683 5.33667 10.8725C5.21 9.81084 5.52167 8.85667 6.16417 8.01917C6.85583 7.11417 7.77083 6.53917 8.89083 6.33584C9.80583 6.16917 10.6825 6.2775 11.4708 6.81167C11.9875 7.15333 12.3567 7.62 12.6008 8.185C12.6592 8.2725 12.62 8.32167 12.5033 8.35167M15.7267 13.7358C14.84 13.7158 14.0317 13.4625 13.35 12.8783C12.7829 12.4004 12.4091 11.7325 12.2983 10.9992C12.1233 9.89917 12.425 8.925 13.0875 8.05834C13.7983 7.12334 14.655 6.63667 15.8142 6.43333C16.8075 6.25833 17.7425 6.35417 18.5892 6.92917C19.3583 7.45417 19.8358 8.16584 19.9625 9.1C20.1275 10.415 19.7483 11.4858 18.8425 12.4017C18.2 13.0542 17.4108 13.4625 16.505 13.6475C16.2425 13.6975 15.98 13.7058 15.7267 13.7358ZM18.0433 9.8025C18.0342 9.675 18.0342 9.5775 18.015 9.48C17.84 8.51584 16.9533 7.97167 16.0283 8.185C15.1225 8.38917 14.5383 8.96417 14.3242 9.87917C14.1492 10.6392 14.5192 11.4083 15.22 11.7208C15.7558 11.9542 16.2908 11.9242 16.8075 11.6625C17.5767 11.2625 17.995 10.6392 18.0442 9.80167L18.0433 9.8025Z" fill="#00ADD8"/>
</g>
<defs>
<clipPath id="clip0_61_190">
<rect width="20" height="20" fill="white"/>
</clipPath>
</defs>
</svg>
