<svg width="20" height="20" viewBox="0 0 20 20" fill="none" xmlns="http://www.w3.org/2000/svg">
<path d="M16.2125 6.97417C15.7642 6.35083 14.7308 5.07 13.145 3.16667C12.4567 2.34083 11.8658 1.64 11.575 1.29583C11.4399 1.13548 11.3043 0.975483 11.1683 0.815833L10.9958 0.611667L10.9017 0.500833L10.8833 0.474167L10.875 0.47L10.475 0L9.9675 0.406667C8.67167 1.445 7.61083 2.7825 6.9 4.27333C6.46416 5.16 6.18 6.0275 6.03083 6.92C5.99166 7.12083 5.9575 7.3275 5.93 7.535C5.75583 7.52083 5.57916 7.51167 5.40333 7.5075C5.38833 7.50667 5.37416 7.50583 5.35416 7.505C4.71284 7.48259 4.07192 7.55961 3.45416 7.73333L3.19 7.8075L3.05417 8.04583C2.41667 9.16417 2.05583 10.4367 2.01083 11.7258C1.9525 13.4008 2.40833 15.0208 3.33 16.4133C4.23167 17.7742 5.505 18.815 7.01333 19.4225L7.21 19.5017L7.26916 19.5225L7.27166 19.5217C8.05877 19.8068 8.8858 19.9666 9.7225 19.995C9.8175 19.9983 9.9125 20 10.0075 20C11.0683 20 12.1017 19.7925 13.0825 19.3817L13.0892 19.385L13.35 19.2642C14.673 18.6522 15.8043 17.6914 16.6225 16.485C17.4642 15.2433 17.9367 13.79 17.99 12.2833C18.0525 10.4825 17.4542 8.69667 16.2125 6.97417ZM10.31 12.5533C10.5833 13.59 10.53 14.5867 10.1508 15.5183C9.205 14.585 8.51166 13.5583 8.08833 12.4642C7.63583 11.2942 7.36333 10.1808 7.27667 9.15167C7.67666 9.2825 8.045 9.45667 8.3725 9.67C9.31583 10.2842 9.9675 11.2542 10.31 12.5533ZM10.4825 17.5717C10.8842 17.8783 11.3075 18.165 11.7433 18.4283C11.1008 18.6033 10.4392 18.68 9.76916 18.6558C9.66542 18.6521 9.56179 18.646 9.45833 18.6375C9.84 18.3092 10.1825 17.9517 10.4817 17.5717H10.4825ZM11.605 12.2125C11.175 10.5817 10.3325 9.34833 9.10333 8.5475C8.56417 8.19667 7.94916 7.93 7.275 7.75583C7.28416 7.64417 7.29666 7.5325 7.31083 7.4225C7.3225 7.32833 7.33583 7.2425 7.34916 7.16167C7.46 6.5875 7.62583 6.02 7.84 5.47417C7.9225 5.26583 8.01166 5.05833 8.1075 4.8575L8.11083 4.85083C8.25833 4.5525 8.42417 4.25167 8.61916 3.93L8.69583 3.80333L8.69333 3.8025C9.14667 3.09333 9.69083 2.44667 10.3117 1.87667L10.5517 2.16083C11.1117 2.82417 11.6383 3.45083 12.1167 4.025C13.1925 5.31583 14.5883 7.01083 15.1267 7.75833C16.1908 9.23417 16.7042 10.7408 16.6517 12.2375C16.6108 13.4 16.2675 14.5333 15.6558 15.515C15.0775 16.445 14.2717 17.2233 13.3225 17.7717C12.7925 17.5067 12.0233 17.0725 11.2067 16.4392C11.865 15.1267 12 13.7058 11.6058 12.2125H11.605ZM9.45917 16.71C8.855 17.4925 8.13666 18.0017 7.7175 18.2567C7.65 18.2325 7.58166 18.2067 7.515 18.1792L7.46083 18.1575C6.21916 17.6442 5.17166 16.7775 4.43166 15.6492C3.67583 14.4958 3.30166 13.155 3.35 11.7717C3.38417 10.78 3.63166 9.8325 4.085 8.95583C4.34833 8.8975 4.61666 8.86083 4.885 8.84667L4.955 8.845C5.09 8.8425 5.225 8.8425 5.35333 8.845C5.5425 8.85417 5.73166 8.87417 5.9175 8.90333C5.97833 10.1642 6.28833 11.5242 6.83833 12.9467C7.36916 14.3167 8.25 15.5817 9.45833 16.7092L9.45917 16.71Z" fill="#FF4438"/>
</svg>
