<svg width="20" height="20" viewBox="0 0 20 20" fill="none" xmlns="http://www.w3.org/2000/svg">
<g clip-path="url(#clip0_61_255)">
<path d="M10.0017 0C9.52903 0 9.07575 0.187755 8.74154 0.52196C8.40734 0.856166 8.21958 1.30945 8.21958 1.78208C8.21958 2.25472 8.40734 2.708 8.74154 3.04221C9.07575 3.37641 9.52903 3.56417 10.0017 3.56417C10.4743 3.56417 10.9276 3.37641 11.2618 3.04221C11.596 2.708 11.7837 2.25472 11.7837 1.78208C11.7837 1.30945 11.596 0.856166 11.2618 0.52196C10.9276 0.187755 10.4743 0 10.0017 0ZM17.1183 4.10917C16.6457 4.10917 16.1924 4.29692 15.8582 4.63113C15.524 4.96533 15.3362 5.41861 15.3362 5.89125C15.3362 6.36389 15.524 6.81717 15.8582 7.15137C16.1924 7.48558 16.6457 7.67333 17.1183 7.67333C17.591 7.67333 18.0443 7.48558 18.3785 7.15137C18.7127 6.81717 18.9004 6.36389 18.9004 5.89125C18.9004 5.41861 18.7127 4.96533 18.3785 4.63113C18.0443 4.29692 17.591 4.10917 17.1183 4.10917ZM17.1183 12.3275C16.6457 12.3275 16.1924 12.5153 15.8582 12.8495C15.524 13.1837 15.3362 13.6369 15.3362 14.1096C15.3362 14.5822 15.524 15.0355 15.8582 15.3697C16.1924 15.7039 16.6457 15.8917 17.1183 15.8917C17.591 15.8917 18.0443 15.7039 18.3785 15.3697C18.7127 15.0355 18.9004 14.5822 18.9004 14.1096C18.9004 13.6369 18.7127 13.1837 18.3785 12.8495C18.0443 12.5153 17.591 12.3275 17.1183 12.3275ZM10.0017 16.4367C9.52914 16.4367 9.07596 16.6244 8.74184 16.9585C8.40771 17.2926 8.22 17.7458 8.22 18.2183C8.22 18.6909 8.40771 19.144 8.74184 19.4782C9.07596 19.8123 9.52914 20 10.0017 20C10.4742 20 10.9274 19.8123 11.2615 19.4782C11.5956 19.144 11.7833 18.6909 11.7833 18.2183C11.7833 17.7458 11.5956 17.2926 11.2615 16.9585C10.9274 16.6244 10.4742 16.4367 10.0017 16.4367ZM2.88333 12.3283C2.64936 12.3283 2.41768 12.3744 2.20152 12.464C1.98536 12.5535 1.78895 12.6847 1.6235 12.8502C1.45806 13.0156 1.32682 13.212 1.23729 13.4282C1.14775 13.6443 1.10167 13.876 1.10167 14.11C1.10167 14.344 1.14775 14.5757 1.23729 14.7918C1.32682 15.008 1.45806 15.2044 1.6235 15.3698C1.78895 15.5353 1.98536 15.6665 2.20152 15.756C2.41768 15.8456 2.64936 15.8917 2.88333 15.8917C3.35597 15.8917 3.80925 15.7039 4.14346 15.3697C4.47766 15.0355 4.66542 14.5822 4.66542 14.1096C4.66542 13.6369 4.47766 13.1837 4.14346 12.8495C3.80925 12.5153 3.35597 12.3283 2.88333 12.3283ZM2.88333 4.10917C2.4107 4.10917 1.95742 4.29692 1.62321 4.63113C1.289 4.96533 1.10125 5.41861 1.10125 5.89125C1.10125 6.36389 1.289 6.81717 1.62321 7.15137C1.95742 7.48558 2.4107 7.67333 2.88333 7.67333C3.35597 7.67333 3.80925 7.48558 4.14346 7.15137C4.47766 6.81717 4.66542 6.36389 4.66542 5.89125C4.66542 5.41861 4.47766 4.96533 4.14346 4.63113C3.80925 4.29692 3.35597 4.10917 2.88333 4.10917ZM10.0017 1.29417L2.46083 5.6475V14.3542L10.0017 18.7075L17.5408 14.3542V5.6475L10.0017 1.29417ZM10.0017 2.62833L16.385 13.6867H3.61667L10.0017 2.62833ZM8.84583 2.9375L3.30833 12.5308V6.13583L8.84583 2.9375ZM11.1575 2.9375L16.6958 6.13583V12.5308L11.1575 2.9375ZM4.4625 14.5333H15.54L10.0017 17.73L4.4625 14.5333Z" fill="#E10098"/>
</g>
<defs>
<clipPath id="clip0_61_255">
<rect width="20" height="20" fill="white"/>
</clipPath>
</defs>
</svg>
