<svg width="20" height="20" viewBox="0 0 20 20" fill="none" xmlns="http://www.w3.org/2000/svg">
<g clip-path="url(#clip0_56_251)">
<path d="M18.5425 9.85C18.5415 9.27637 18.3506 8.7192 17.9997 8.26545C17.6487 7.81169 17.1575 7.48687 16.6025 7.34167L19.0925 0H6.75334L9.25001 7.365C8.71103 7.52211 8.23748 7.84967 7.90034 8.29858C7.5632 8.7475 7.38064 9.29359 7.38001 9.855C7.38001 10.7242 7.81334 11.4942 8.47417 11.9683C8.20834 12.3431 7.90572 12.6904 7.57084 13.005C6.95484 13.5917 6.23397 14.0573 5.44584 14.3775C4.75084 13.9083 4.45001 13.0808 4.72167 12.3392C5.31289 12.1555 5.81885 11.7663 6.14797 11.242C6.4771 10.7176 6.60766 10.0928 6.51602 9.48052C6.42438 8.86826 6.1166 8.30902 5.64838 7.90402C5.18016 7.49901 4.58242 7.27499 3.96334 7.2725C3.2756 7.27338 2.61627 7.54698 2.12996 8.03329C1.64365 8.5196 1.37006 9.17892 1.36918 9.86667C1.36918 10.5733 1.65834 11.2217 2.12168 11.685C2.08168 11.7658 2.04084 11.8475 2.00001 11.9342C1.61251 12.7333 1.17251 13.6367 1.00418 14.65C0.668342 16.6767 1.21834 18.3033 2.54501 19.2242C3.26303 19.7306 4.12053 20.0017 4.99918 20C6.52168 20 8.06751 19.2358 9.56168 18.4942C10.6275 17.9675 11.7275 17.4175 12.81 17.1508C13.21 17.0525 13.6267 16.995 14.0667 16.9308C14.9583 16.8033 15.8792 16.6708 16.7067 16.1892C17.1792 15.9184 17.5869 15.5475 17.901 15.1025C18.2151 14.6576 18.4281 14.1493 18.525 13.6133C18.67 12.785 18.525 11.9517 18.155 11.2217C18.4033 10.8217 18.5425 10.3542 18.5425 9.85ZM17.4133 9.85C17.4133 10.6542 16.7592 11.3083 15.955 11.3083C15.6522 11.3075 15.3571 11.2126 15.1106 11.0367C14.8641 10.8608 14.6783 10.6126 14.579 10.3265C14.4797 10.0404 14.4718 9.73054 14.5563 9.43975C14.6408 9.14895 14.8137 8.89161 15.0508 8.70333L15.0567 8.6975C15.1033 8.6625 15.155 8.6275 15.2067 8.59333C15.2067 8.59333 15.2133 8.59333 15.2133 8.5875C15.2367 8.57583 15.2592 8.55833 15.2825 8.54583C15.2883 8.54583 15.2942 8.54083 15.3 8.54083C15.3233 8.52917 15.3525 8.5175 15.3808 8.50583C15.41 8.49417 15.4392 8.48333 15.4625 8.47167C15.4683 8.47167 15.4733 8.46583 15.4792 8.46583C15.5025 8.46 15.5258 8.44833 15.5492 8.4425C15.555 8.4425 15.5658 8.43667 15.5725 8.43667C15.6008 8.43083 15.6242 8.425 15.6533 8.42H15.6592L15.7458 8.40167C15.7517 8.40167 15.7625 8.40167 15.7692 8.39583C15.7925 8.39583 15.815 8.39 15.8383 8.39H15.8675C15.8967 8.39 15.9258 8.38417 15.96 8.38417H16.035C16.0583 8.38417 16.0767 8.38417 16.0992 8.39H16.1108C16.1567 8.39583 16.2033 8.40167 16.25 8.41333C16.5788 8.48377 16.8735 8.66466 17.0851 8.92589C17.2968 9.18712 17.4126 9.51379 17.4133 9.85ZM8.36918 1.15833H17.4775L15.3867 7.325C15.3 7.34167 15.2133 7.37083 15.1267 7.4L12.9267 2.9125L10.72 7.37083C10.6333 7.3425 10.54 7.325 10.4475 7.3075L8.36918 1.15833ZM12.5092 9.34583C12.4027 8.81132 12.1289 8.32452 11.7275 7.95583L12.9258 5.53583L14.1358 8.00833C13.7775 8.36667 13.5167 8.825 13.4125 9.34583H12.5092ZM9.60834 8.43083C9.63667 8.425 9.66001 8.41917 9.68918 8.41417H9.70584C9.73001 8.4075 9.75251 8.4075 9.77584 8.40167H9.79918C9.82251 8.40167 9.84001 8.39583 9.86251 8.39583H10.0883C10.1117 8.39583 10.1292 8.40167 10.1467 8.40167C10.1583 8.40167 10.1633 8.40167 10.1758 8.4075C10.1983 8.41333 10.2158 8.41333 10.2392 8.41917C10.245 8.41917 10.2508 8.41917 10.2625 8.425L10.3433 8.44167H10.3492C10.3725 8.44833 10.3958 8.45417 10.4183 8.46583C10.4242 8.46583 10.43 8.47167 10.4417 8.47167C10.4592 8.4775 10.4825 8.48333 10.5 8.49417C10.5058 8.49417 10.5117 8.5 10.5167 8.5C10.54 8.51167 10.5633 8.5175 10.5867 8.52917H10.5925C10.6193 8.53927 10.6445 8.55301 10.6675 8.57H10.6733C10.6967 8.58167 10.72 8.59833 10.7433 8.61C10.7492 8.61 10.7492 8.61583 10.7542 8.61583C10.7775 8.6275 10.7958 8.645 10.8183 8.65667L10.8242 8.6625C10.8933 8.71417 10.9575 8.7725 11.0208 8.83L11.0267 8.83583C11.2847 9.10766 11.428 9.46853 11.4267 9.84333C11.4139 10.2218 11.2545 10.5805 10.9823 10.8437C10.71 11.1069 10.3462 11.254 9.96751 11.254C9.58883 11.254 9.22497 11.1069 8.95272 10.8437C8.68047 10.5805 8.52113 10.2218 8.50834 9.84333C8.50743 9.51882 8.61528 9.20336 8.81467 8.94732C9.01406 8.69129 9.29349 8.50945 9.60834 8.43083ZM3.91001 8.39C4.71501 8.39 5.36917 9.045 5.36917 9.84917C5.36917 10.6533 4.71501 11.3083 3.91084 11.3083C3.10668 11.3083 2.45084 10.6542 2.45084 9.85C2.45084 9.04583 3.10584 8.39 3.91001 8.39ZM17.3792 13.4108C17.3133 13.7813 17.1665 14.1327 16.9493 14.4399C16.7321 14.7472 16.4498 15.0027 16.1225 15.1883C15.4908 15.5533 14.715 15.6692 13.8983 15.785C13.4392 15.8438 12.9831 15.9248 12.5317 16.0275C11.3275 16.3233 10.17 16.9025 9.04668 17.4583C7.61001 18.17 6.25501 18.8417 4.99918 18.8417C4.35519 18.8457 3.7266 18.6449 3.20418 18.2683C1.93001 17.3883 1.99334 15.7383 2.14418 14.835C2.28334 13.9892 2.67084 13.1967 3.04168 12.4375C3.06501 12.3917 3.08251 12.3508 3.10584 12.3042C3.23251 12.3508 3.36584 12.3858 3.50501 12.4092C3.28501 13.6367 3.91001 14.9042 5.12668 15.53L5.34667 15.6458L5.58334 15.5592C6.59667 15.2 7.53501 14.615 8.36334 13.8333C8.82076 13.4068 9.22507 12.9267 9.56751 12.4033C9.70084 12.4258 9.83418 12.4317 9.96751 12.4317C10.5407 12.4303 11.0974 12.2394 11.5508 11.8887C12.0043 11.5379 12.3289 11.047 12.4742 10.4925H13.4467C13.591 11.0479 13.9156 11.5396 14.3696 11.8906C14.8236 12.2415 15.3812 12.4318 15.955 12.4317C16.435 12.4317 16.88 12.2983 17.2633 12.0733C17.4133 12.5067 17.46 12.9592 17.3792 13.4108Z" fill="#FF4438"/>
</g>
<defs>
<clipPath id="clip0_56_251">
<rect width="20" height="20" fill="white"/>
</clipPath>
</defs>
</svg>
