<svg width="20" height="20" viewBox="0 0 20 20" fill="none" xmlns="http://www.w3.org/2000/svg">
<g clip-path="url(#clip0_56_241)">
<path d="M20 19.705H0L6.65833 5.50251L10.6692 8.45085L15.9 0.295013L20 19.705ZM12.6667 16.6375H12.71C13.2049 16.6384 13.6808 16.4472 14.0375 16.1042C14.2204 15.9383 14.3659 15.7354 14.4643 15.509C14.5627 15.2825 14.6118 15.0377 14.6083 14.7908C14.6164 14.5532 14.5712 14.3168 14.476 14.0989C14.3809 13.881 14.2381 13.6872 14.0583 13.5317C13.755 13.2273 13.3462 13.0512 12.9167 13.04H12.8833C12.8273 13.0397 12.7714 13.0473 12.7175 13.0625L13.7733 11.4933L12.9317 10.9058L12.5342 11.4933L11.5175 13.0467C11.3425 13.305 11.1958 13.5317 11.105 13.6883C11.0117 13.855 10.93 14.03 10.8633 14.2092C10.7874 14.3998 10.7483 14.6031 10.7483 14.8083C10.7459 15.0522 10.7948 15.2938 10.8919 15.5174C10.9889 15.7411 11.132 15.9419 11.3117 16.1067C11.6633 16.4492 12.1358 16.6408 12.6267 16.64L12.6667 16.6375ZM8.19583 14.9483L9.36083 16.5967H10.6075L9.23667 14.6842L10.4533 12.9933L9.645 12.4342L9.28917 12.905L8.19417 14.4492V11.345L7.1025 10.455V16.5967H8.19417V14.9467L8.19583 14.9483ZM12.6683 15.6083C12.4554 15.6083 12.2512 15.5238 12.1006 15.3732C11.95 15.2226 11.8654 15.0184 11.8654 14.8054C11.8654 14.5925 11.95 14.3883 12.1006 14.2377C12.2512 14.0871 12.4554 14.0025 12.6683 14.0025H12.6758C12.7816 14.0026 12.8862 14.024 12.9834 14.0655C13.0807 14.1071 13.1685 14.1678 13.2417 14.2442C13.3186 14.3149 13.3799 14.401 13.4215 14.4969C13.4632 14.5928 13.4842 14.6963 13.4833 14.8008C13.4809 15.0153 13.3941 15.2201 13.2417 15.3709C13.0893 15.5218 12.8836 15.6065 12.6692 15.6067L12.6683 15.6083Z" fill="#7D64FF"/>
</g>
<defs>
<clipPath id="clip0_56_241">
<rect width="20" height="20" fill="white"/>
</clipPath>
</defs>
</svg>
