<svg width="20" height="20" viewBox="0 0 20 20" fill="none" xmlns="http://www.w3.org/2000/svg">
<path d="M8.09169 1.78C7.98068 1.66623 7.84803 1.57582 7.70156 1.51409C7.55508 1.45236 7.39773 1.42056 7.23878 1.42056C7.07982 1.42056 6.92247 1.45236 6.776 1.51409C6.62952 1.57582 6.49687 1.66623 6.38586 1.78H6.38003C6.15346 2.01206 6.02742 2.32402 6.02919 2.64833C6.02919 2.99 6.16336 3.29583 6.38086 3.51417L6.38669 3.52C6.60086 3.74 6.90003 3.875 7.23586 3.875C7.57253 3.875 7.87419 3.74 8.09169 3.52L8.09419 3.51417C8.31169 3.29583 8.44503 2.99 8.44503 2.64833C8.44503 2.30833 8.31253 2.00083 8.09419 1.78H8.09169ZM7.23586 18.5792C7.57253 18.5792 7.87419 18.44 8.09169 18.2217L8.09419 18.215C8.31169 17.9975 8.44503 17.6892 8.44503 17.3517C8.44503 17.01 8.31253 16.7033 8.09419 16.4817H8.09169C7.98068 16.3671 7.84763 16.2761 7.70056 16.2142C7.55348 16.1524 7.39541 16.1209 7.23586 16.1217C7.07714 16.1207 6.91989 16.1521 6.77374 16.214C6.62759 16.2759 6.4956 16.367 6.38586 16.4817H6.38003C6.16336 16.7033 6.02836 17.01 6.02836 17.3517C6.02836 17.69 6.16253 17.9975 6.38003 18.215L6.38586 18.2217C6.60086 18.44 6.90003 18.5792 7.23586 18.5792ZM13.8109 14.8608C14.11 14.7808 14.38 14.5858 14.5459 14.2908L14.5684 14.2475C14.7109 13.9737 14.7449 13.6561 14.6634 13.3583C14.6237 13.2028 14.5536 13.0567 14.457 12.9286C14.3605 12.8004 14.2394 12.6927 14.1009 12.6117L14.0834 12.6C13.8102 12.4462 13.4873 12.4066 13.185 12.49C12.885 12.5658 12.615 12.7692 12.4509 13.0617C12.2842 13.3525 12.25 13.6867 12.3292 13.9942C12.4117 14.2967 12.6042 14.57 12.8917 14.7408H12.8934C13.1817 14.91 13.5075 14.94 13.8109 14.8608ZM8.47336 8.7425C8.31214 8.57756 8.11968 8.44641 7.9072 8.35669C7.69472 8.26698 7.4665 8.22051 7.23586 8.22C6.75253 8.22 6.31669 8.42167 6.00086 8.7425C5.68586 9.06333 5.49086 9.50583 5.49086 9.99833C5.49086 10.4908 5.68503 10.935 6.00086 11.26C6.16219 11.4242 6.35459 11.5545 6.56684 11.6435C6.7791 11.7325 7.00695 11.7784 7.23711 11.7784C7.46727 11.7784 7.69512 11.7325 7.90738 11.6435C8.11963 11.5545 8.31203 11.4242 8.47336 11.26C8.78919 10.935 8.98336 10.4908 8.98336 9.99833C8.98336 9.50583 8.78919 9.06333 8.47336 8.7425ZM7.77753 6.65083C8.48003 6.76833 9.11086 7.11083 9.59253 7.60417H9.59586C9.67253 7.68167 9.74753 7.7675 9.81669 7.85333L11.0217 7.14417C10.8629 6.65635 10.8493 6.1329 10.9825 5.6375C11.0692 5.30331 11.2211 4.98951 11.4293 4.71409C11.6375 4.43868 11.898 4.20706 12.1959 4.0325L12.2167 4.01917C12.5092 3.84923 12.8327 3.73917 13.1682 3.6954C13.5036 3.65162 13.8445 3.675 14.1709 3.76417C14.8125 3.93917 15.3917 4.365 15.7525 4.99917V5.00083C16.1117 5.63167 16.1842 6.35583 16.0134 7.0075C15.927 7.34207 15.7754 7.65626 15.5671 7.93199C15.3589 8.20773 15.0982 8.43957 14.8 8.61417L14.635 8.7125H14.6184C14.0597 8.98244 13.4224 9.04191 12.8234 8.88C12.3353 8.74587 11.8969 8.47252 11.5617 8.09333L10.3584 8.8C10.6438 9.57426 10.6438 10.4249 10.3584 11.1992L11.5617 11.9042C11.9059 11.5125 12.3442 11.2467 12.8234 11.1175C13.1536 11.0259 13.4989 11.0023 13.8385 11.048C14.1781 11.0936 14.5049 11.2077 14.7992 11.3833L14.8392 11.4025V11.4042C15.4209 11.762 15.8414 12.3313 16.0125 12.9925C16.1906 13.669 16.0969 14.3883 15.7517 14.9967L15.73 15.0408L15.7275 15.0367C15.3834 15.6219 14.8257 16.0509 14.1717 16.2333C13.8412 16.3224 13.4964 16.3449 13.1571 16.2994C12.8179 16.2539 12.4912 16.1413 12.1959 15.9683V15.9633C11.5945 15.6101 11.1581 15.0325 10.9825 14.3575C10.8497 13.8629 10.8633 13.3404 11.0217 12.8533L9.81669 12.1467C9.74727 12.232 9.67356 12.3138 9.59586 12.3917L9.59253 12.3958C9.10417 12.8974 8.46819 13.2297 7.77753 13.3442V14.76C8.27201 14.8666 8.72415 15.1164 9.07753 15.4783L9.07919 15.4817C9.55003 15.9583 9.84086 16.6217 9.84086 17.3508C9.84086 18.0783 9.54919 18.7375 9.07919 19.2167L9.07753 19.2242C8.83746 19.4693 8.55096 19.6642 8.23475 19.7974C7.91855 19.9306 7.57898 19.9995 7.23586 20C6.89336 19.9991 6.55446 19.9302 6.23886 19.7971C5.92326 19.6641 5.63727 19.4696 5.39753 19.225H5.39586V19.2175C4.90601 18.7201 4.63177 18.0498 4.63253 17.3517C4.63253 16.6225 4.92419 15.9583 5.39586 15.4825V15.4792H5.39753C5.75075 15.1179 6.20215 14.8682 6.69586 14.7608V13.345C6.00556 13.2309 5.37002 12.8985 4.88253 12.3967L4.87753 12.3925C4.25024 11.7532 3.89919 10.8931 3.90003 9.9975C3.90003 9.0625 4.27669 8.2175 4.87753 7.60417H4.88253C5.37007 7.10145 6.00534 6.76747 6.69586 6.65083V5.24083C6.20259 5.13135 5.75163 4.88126 5.39753 4.52083H5.39586V4.5175C4.90565 4.01898 4.63143 3.34749 4.63253 2.64833C4.63253 1.9225 4.92419 1.2575 5.39586 0.779167L5.39753 0.7775C5.63661 0.531854 5.92242 0.336519 6.23813 0.202993C6.55384 0.0694675 6.89307 0.000448784 7.23586 0C7.95336 0 8.60336 0.295833 9.07753 0.776667V0.778333H9.07919C9.55003 1.25667 9.84086 1.92167 9.84086 2.6475C9.84086 3.3775 9.54919 4.03667 9.07919 4.51667L9.07753 4.52083C8.72282 4.88135 8.2713 5.13142 7.77753 5.24083V6.65083ZM14.545 5.71L14.535 5.69417C14.3754 5.42096 14.1152 5.22113 13.81 5.1375C13.6565 5.09533 13.496 5.08438 13.3381 5.10527C13.1803 5.12617 13.0282 5.1785 12.8909 5.25917H12.8925C12.6034 5.42583 12.4092 5.7 12.3284 6.00583C12.2492 6.31 12.2834 6.64583 12.45 6.93833L12.4559 6.94583C12.6225 7.235 12.8884 7.42833 13.1842 7.50667C13.4817 7.5925 13.8134 7.55583 14.0992 7.38667L14.115 7.37917C14.3863 7.21365 14.5826 6.9492 14.6625 6.64167C14.7466 6.32768 14.7044 5.99329 14.545 5.71Z" fill="white"/>
</svg>
