<svg width="20" height="20" viewBox="0 0 20 20" fill="none" xmlns="http://www.w3.org/2000/svg">
<g clip-path="url(#clip0_61_169)">
<path d="M8.50334 11.9583L8.50917 11.9667L7.67667 13.9775C6.8778 13.4661 6.26999 12.7054 5.9475 11.8133L8.09584 11.4492L8.09917 11.4533C8.1644 11.4413 8.23166 11.4473 8.29378 11.4705C8.35591 11.4937 8.41057 11.5333 8.45196 11.5851C8.49335 11.637 8.51991 11.699 8.52881 11.7648C8.53771 11.8305 8.52862 11.8974 8.5025 11.9583H8.50334ZM7.80917 10.1842C7.87313 10.1667 7.93115 10.1321 7.97704 10.0843C8.02293 10.0364 8.05498 9.97696 8.06978 9.91231C8.08457 9.84766 8.08155 9.78022 8.06105 9.71715C8.04054 9.65408 8.00332 9.59776 7.95334 9.55417L7.955 9.545L6.32084 8.08334C5.82232 8.8948 5.60828 9.84919 5.7125 10.7958L7.80751 10.1917L7.80917 10.1842ZM8.76334 8.53417C8.81696 8.5733 8.8802 8.59715 8.94632 8.60315C9.01243 8.60916 9.07893 8.59711 9.13873 8.56828C9.19853 8.53945 9.24938 8.49492 9.28585 8.43946C9.32233 8.38399 9.34306 8.31966 9.34584 8.25334L9.35417 8.24917L9.47917 6.06584C8.53274 6.17647 7.65015 6.59929 6.97084 7.2675L8.76 8.53667L8.76334 8.53417ZM9.39667 10.8258L9.99917 11.1167L10.6008 10.8275L10.7508 10.1775L10.3342 9.65834H9.66417L9.24751 10.1775L9.39667 10.8258ZM10.6467 8.24667C10.6495 8.31306 10.6703 8.37744 10.7069 8.43293C10.7435 8.48841 10.7944 8.53291 10.8543 8.56167C10.9143 8.59042 10.9809 8.60236 11.047 8.59619C11.1132 8.59003 11.1764 8.566 11.23 8.52667L11.2367 8.52917L13.015 7.26834C12.338 6.60538 11.462 6.18318 10.5217 6.06667L10.645 8.24584L10.6467 8.24667ZM19.71 13.2217L14.8992 19.2058C14.7738 19.3608 14.6154 19.4858 14.4354 19.5714C14.2554 19.6571 14.0585 19.7013 13.8592 19.7008L6.14167 19.7033C5.94235 19.7035 5.74553 19.6589 5.56569 19.573C5.38586 19.487 5.22758 19.3619 5.1025 19.2067L0.289171 13.2233C0.165324 13.0684 0.078005 12.8876 0.0337116 12.6942C-0.0105818 12.5009 -0.0107095 12.3001 0.0333382 12.1067L1.75 4.64417C1.84 4.2525 2.10417 3.92417 2.46917 3.75L9.42084 0.427503C9.60103 0.341388 9.79821 0.296692 9.99792 0.296692C10.1976 0.296692 10.3948 0.341388 10.575 0.427503L17.5292 3.74834C17.8942 3.9225 18.1583 4.25167 18.2483 4.6425L19.9667 12.105C20.0567 12.4967 19.9625 12.9075 19.71 13.2217ZM16.9692 11.5075C16.9342 11.4992 16.8833 11.4858 16.8483 11.4792C16.7033 11.4517 16.5858 11.4583 16.4492 11.4475C16.1575 11.4167 15.9175 11.3917 15.7033 11.3242C15.6158 11.2908 15.5533 11.1867 15.5233 11.1442L15.3558 11.095C15.4451 10.4473 15.4155 9.78873 15.2683 9.15167C15.121 8.50812 14.8566 7.89713 14.4883 7.34917C14.5317 7.31 14.6133 7.23834 14.6358 7.21667C14.6425 7.14167 14.6367 7.06417 14.7142 6.98167C14.8783 6.8275 15.0842 6.7 15.3333 6.54667C15.4517 6.47667 15.5608 6.4325 15.6792 6.345C15.7058 6.325 15.7425 6.29334 15.7708 6.27084C15.9708 6.11167 16.0167 5.8375 15.8733 5.6575C15.73 5.4775 15.4517 5.46084 15.2525 5.62C15.2242 5.6425 15.1858 5.67167 15.16 5.69334C15.0483 5.79 14.9792 5.885 14.885 5.985C14.68 6.19334 14.51 6.36667 14.3242 6.4925C14.2433 6.53917 14.125 6.52334 14.0717 6.52L13.9133 6.6325C13.0019 5.676 11.7742 5.08288 10.4583 4.96334L10.4483 4.7775C10.3942 4.72584 10.3292 4.68167 10.3125 4.56917C10.2942 4.34584 10.325 4.105 10.36 3.815C10.3792 3.67917 10.4108 3.56667 10.4167 3.41917C10.4175 3.38584 10.4158 3.33667 10.4158 3.30084C10.4158 3.04584 10.2292 2.83834 9.99917 2.83834C9.77 2.83834 9.58334 3.04584 9.58334 3.30084L9.58417 3.3125C9.58417 3.34667 9.58251 3.38917 9.58417 3.41917C9.58917 3.56667 9.62084 3.67917 9.64 3.815C9.675 4.105 9.705 4.34584 9.68667 4.57C9.66302 4.65305 9.61619 4.72763 9.55167 4.785L9.54167 4.96084C8.21742 5.06718 6.98002 5.66211 6.07 6.63C6.01954 6.59511 5.96953 6.55955 5.92 6.52334C5.84501 6.53334 5.77 6.55667 5.6725 6.49917C5.48667 6.37417 5.31667 6.20084 5.11167 5.9925C5.0175 5.8925 4.94917 5.7975 4.8375 5.70167C4.8125 5.68 4.77334 5.65 4.745 5.62834C4.66262 5.56155 4.56096 5.52299 4.45501 5.51834C4.39208 5.51499 4.32926 5.52653 4.27164 5.55202C4.21401 5.5775 4.1632 5.61621 4.12334 5.665C3.98 5.845 4.02584 6.12 4.22584 6.27917L4.23167 6.28334L4.31834 6.3525C4.43667 6.44 4.545 6.485 4.66334 6.55417C4.91251 6.70834 5.11834 6.83584 5.28251 6.98917C5.34584 7.0575 5.3575 7.1775 5.36584 7.22917L5.49917 7.34834C4.76279 8.45249 4.4601 9.78969 4.64917 11.1033L4.47584 11.1533C4.43 11.2133 4.36501 11.3067 4.29667 11.3342C4.0825 11.4017 3.84167 11.4258 3.55084 11.4567C3.41417 11.4683 3.29667 11.4617 3.15084 11.4892C3.12 11.495 3.07584 11.5058 3.04 11.5142L3.03667 11.5158L3.03084 11.5175C2.785 11.5767 2.6275 11.8025 2.67834 12.0242C2.72917 12.2467 2.96917 12.3817 3.21584 12.3283L3.22167 12.3275L3.23 12.325L3.3375 12.3008C3.47917 12.2625 3.5825 12.2067 3.71084 12.1575C3.98584 12.0592 4.21417 11.9767 4.43584 11.9442C4.52917 11.9367 4.6275 12.0017 4.67584 12.0283L4.85667 11.9975C5.26397 13.2559 6.11763 14.3218 7.25667 14.9942L7.18167 15.1758C7.20917 15.2458 7.23917 15.3417 7.21834 15.4108C7.1375 15.6208 6.99917 15.8417 6.84167 16.0883C6.76584 16.2017 6.6875 16.29 6.61834 16.4208C6.60167 16.4517 6.58084 16.5 6.565 16.5325C6.45834 16.7617 6.53667 17.025 6.7425 17.1242C6.94917 17.2242 7.20584 17.1183 7.3175 16.8892V16.8875C7.33417 16.855 7.35584 16.8125 7.36917 16.7817C7.42751 16.6467 7.4475 16.5308 7.48917 16.4C7.59917 16.1233 7.66 15.8333 7.81167 15.6525C7.85334 15.6025 7.92 15.5842 7.99084 15.565L8.085 15.3942C9.3204 15.8702 10.688 15.8738 11.9258 15.4042L12.0142 15.5642C12.0858 15.5875 12.1642 15.5992 12.2275 15.6933C12.3408 15.8867 12.4183 16.1158 12.5125 16.3933C12.5542 16.5233 12.5742 16.6392 12.6333 16.7742C12.6467 16.805 12.6692 16.8492 12.685 16.8817C12.7958 17.1117 13.0533 17.2167 13.26 17.1167C13.4658 17.0183 13.5442 16.7542 13.4375 16.525C13.4208 16.4925 13.4 16.445 13.3833 16.4133C13.3142 16.2833 13.2358 16.1958 13.16 16.0817C13.0017 15.835 12.8717 15.6308 12.7908 15.4208C12.7575 15.3125 12.7967 15.2458 12.8225 15.1758C12.8075 15.1575 12.7733 15.0558 12.7533 15.0075C13.8966 14.3299 14.7508 13.2557 15.1533 11.9892C15.2067 11.9975 15.3 12.0142 15.3308 12.0208C15.3933 11.9792 15.4508 11.9258 15.5642 11.9342C15.7858 11.9667 16.0142 12.0492 16.2892 12.1475C16.4175 12.1975 16.52 12.2542 16.6625 12.2917C16.6925 12.3 16.7358 12.3075 16.7708 12.315L16.7783 12.3175L16.7842 12.3183C17.0317 12.3717 17.2708 12.2367 17.3217 12.0142C17.3717 11.7925 17.215 11.5667 16.9692 11.5075ZM13.6667 8.08417L12.0417 9.53917V9.54333C11.9915 9.58689 11.954 9.64326 11.9334 9.70644C11.9128 9.76962 11.9097 9.83721 11.9245 9.90201C11.9393 9.9668 11.9714 10.0263 12.0175 10.0743C12.0635 10.1222 12.1217 10.1567 12.1858 10.1742L12.1883 10.1825L14.2933 10.7892C14.339 10.3224 14.3087 9.85123 14.2033 9.39417C14.0974 8.93078 13.9161 8.48794 13.6667 8.08334V8.08417ZM10.3225 12.5217C10.2903 12.461 10.2417 12.4106 10.1821 12.3764C10.1225 12.3422 10.0545 12.3255 9.98584 12.3283C9.92169 12.3307 9.8593 12.3499 9.8049 12.384C9.75049 12.4181 9.70599 12.4658 9.67584 12.5225H9.67417L8.6175 14.4325C9.51583 14.739 10.4903 14.7399 11.3892 14.435L10.3308 12.5217H10.3225ZM11.8958 11.4442C11.8196 11.4301 11.7408 11.4406 11.6708 11.4742C11.5852 11.5151 11.5188 11.5876 11.4855 11.6765C11.4522 11.7654 11.4548 11.8638 11.4925 11.9508L11.49 11.9542L12.3317 13.9858C13.1359 13.4724 13.7461 12.7056 14.0658 11.8067L11.8992 11.44L11.8958 11.4442Z" fill="#326CE5"/>
</g>
<defs>
<clipPath id="clip0_61_169">
<rect width="20" height="20" fill="white"/>
</clipPath>
</defs>
</svg>
