<svg width="20" height="20" viewBox="0 0 20 20" fill="none" xmlns="http://www.w3.org/2000/svg">
<g clip-path="url(#clip0_61_376)">
<path d="M7.7125 2.91667H2.91667V6.4625L6.04167 10.3917L7.7125 2.91667ZM2.91667 7.4625V13.4H7.6375L2.91667 7.4625ZM16.2875 2.91667H8.35L7.39167 7.19583L16.2875 2.91667ZM15.5375 17.0833H17.0833V10.0833L13.4833 8.32917L15.5375 17.0833ZM10.7125 6.29167L17.0833 9.39167V3.225L10.7125 6.29167ZM2.91667 14.0208V17.0833H8.65L11.0458 14.0208H2.91667ZM9.44167 17.0833H14.8958L13.6375 11.7208L9.44167 17.0833ZM0 0H20V20H0V0Z" fill="#4285F4"/>
</g>
<defs>
<clipPath id="clip0_61_376">
<rect width="20" height="20" fill="white"/>
</clipPath>
</defs>
</svg>
