<svg width="20" height="20" viewBox="0 0 20 20" fill="none" xmlns="http://www.w3.org/2000/svg">
<g clip-path="url(#clip0_61_290)">
<path d="M10.42 0C10.2908 0 10.1575 0.00666667 10.02 0.0175C6.49833 0.295 7.4325 4.02333 7.37833 5.26583C7.315 6.17583 7.12833 6.89333 6.50333 7.7825C5.76583 8.65833 4.73083 10.0742 4.24 11.55C4.00833 12.2433 3.89833 12.9533 4.00083 13.6242C3.96282 13.6549 3.93161 13.6932 3.90917 13.7367C3.6925 13.96 3.53417 14.2367 3.35667 14.4358C3.19083 14.6017 2.9525 14.6583 2.6925 14.7692C2.43167 14.8825 2.14417 14.9933 1.9725 15.3358C1.8975 15.4933 1.85917 15.6642 1.8625 15.8375C1.8625 16.0033 1.885 16.1708 1.90833 16.2842C1.95667 16.6167 2.005 16.8908 1.94167 17.0925C1.73417 17.6592 1.70833 18.0467 1.85333 18.3292C1.99833 18.6075 2.29917 18.7208 2.63667 18.83C3.31167 18.9967 4.22833 18.9425 4.94833 19.33C5.72 19.7183 6.50333 19.8883 7.12833 19.7217C7.56667 19.625 7.93667 19.335 8.135 18.9333C8.62417 18.9308 9.16 18.7092 10.0183 18.655C10.6008 18.6067 11.33 18.8775 12.1658 18.8217C12.1867 18.9333 12.2183 18.9867 12.2608 19.0992L12.2633 19.1017C12.5892 19.75 13.1908 20.045 13.8333 19.9942C14.4758 19.9442 15.16 19.5475 15.7142 18.9058C16.24 18.2683 17.1167 18.0025 17.6958 17.6533C17.9858 17.4875 18.22 17.2625 18.2367 16.9425C18.2558 16.6092 18.07 16.2667 17.6417 15.7958V15.715L17.6392 15.7125C17.4975 15.5458 17.4308 15.2667 17.3575 14.9408C17.2867 14.6067 17.2058 14.2858 16.9475 14.0692H16.945C16.8958 14.0242 16.8425 14.0133 16.7883 13.9567C16.7417 13.9241 16.6868 13.9056 16.63 13.9033C16.9892 12.8383 16.85 11.7783 16.4858 10.825C16.0417 9.65 15.265 8.62667 14.6733 7.9225C14.01 7.085 13.36 6.29167 13.3733 5.11583C13.395 3.3225 13.57 0.005 10.42 0ZM10.8608 2.8375H10.8717C11.0492 2.8375 11.2017 2.88917 11.3583 3.0025C11.5167 3.115 11.6333 3.27917 11.7233 3.44667C11.8108 3.6625 11.855 3.82917 11.8617 4.05C11.8617 4.03333 11.8667 4.01667 11.8667 4V4.0875C11.8648 4.08183 11.8637 4.07595 11.8633 4.07L11.86 4.05C11.8583 4.25252 11.8158 4.45262 11.735 4.63833C11.6961 4.74282 11.6356 4.83794 11.5575 4.9175C11.5339 4.90417 11.5094 4.89247 11.4842 4.8825C11.3975 4.845 11.3192 4.82917 11.2475 4.77167C11.1881 4.74801 11.1268 4.72961 11.0642 4.71667C11.1058 4.66667 11.1858 4.60583 11.2167 4.55167C11.2608 4.445 11.285 4.33167 11.29 4.21667V4.2C11.2919 4.08682 11.2747 3.97414 11.2392 3.86667C11.2017 3.755 11.155 3.7 11.0867 3.58917C11.0167 3.53417 10.9475 3.47917 10.8642 3.47917H10.8508C10.7733 3.47917 10.7042 3.50417 10.6325 3.58917C10.5534 3.66635 10.4947 3.76199 10.4617 3.8675C10.4174 3.97338 10.392 4.0862 10.3867 4.20083V4.21667C10.3883 4.29083 10.3933 4.36583 10.4033 4.43917C10.2425 4.38333 10.0383 4.32667 9.8975 4.27083C9.88909 4.21564 9.88408 4.15998 9.8825 4.10417V4.0875C9.87595 3.86752 9.91866 3.64885 10.0075 3.4475C10.0758 3.26417 10.2008 3.10917 10.3658 3.00333C10.5083 2.89536 10.6821 2.83768 10.8608 2.8375ZM8.3925 2.88667H8.4225C8.54083 2.88667 8.6475 2.92667 8.755 2.99917C8.87667 3.10667 8.975 3.23917 9.04167 3.38667C9.11667 3.5525 9.15833 3.72 9.16917 3.9425V3.94583C9.175 4.0575 9.17417 4.1125 9.1675 4.1675V4.23417C9.1425 4.24 9.12083 4.24917 9.09833 4.25417C8.97167 4.3 8.87 4.36667 8.77083 4.42083C8.78083 4.34583 8.78167 4.27083 8.77333 4.19833V4.18583C8.76333 4.075 8.74 4.01917 8.705 3.90833C8.67902 3.8234 8.63134 3.74671 8.56667 3.68583C8.54613 3.66716 8.52205 3.65281 8.49585 3.64365C8.46964 3.63448 8.44187 3.63069 8.41417 3.6325H8.39667C8.3375 3.6375 8.28833 3.66583 8.24167 3.7425C8.18851 3.80702 8.15394 3.88481 8.14167 3.9675C8.11914 4.05732 8.11265 4.15042 8.1225 4.2425V4.255C8.1325 4.3675 8.15333 4.42167 8.18917 4.53333C8.2275 4.645 8.27083 4.7 8.3275 4.75667C8.33583 4.76417 8.34417 4.77167 8.35583 4.77667C8.2975 4.82417 8.25833 4.835 8.20917 4.89C8.17799 4.91757 8.14049 4.93703 8.1 4.94667C8.01338 4.84236 7.93666 4.73021 7.87083 4.61167C7.79205 4.43655 7.74817 4.24775 7.74167 4.05583C7.72787 3.86772 7.7505 3.6787 7.80833 3.49917C7.85424 3.33543 7.93465 3.18342 8.04417 3.05333C8.15083 2.9425 8.26083 2.88667 8.3925 2.88667ZM9.53417 4.30833C9.81083 4.30833 10.145 4.3625 10.5475 4.64083C10.7917 4.8075 10.9833 4.865 11.4242 5.03083H11.4267C11.6392 5.14417 11.7642 5.2525 11.825 5.36333V5.25417C11.8549 5.31476 11.8716 5.38103 11.8739 5.44856C11.8762 5.5161 11.864 5.58335 11.8383 5.64583C11.7358 5.90417 11.4083 6.18167 10.9525 6.3475V6.34917C10.7292 6.46167 10.535 6.62667 10.3067 6.73667C10.0767 6.84917 9.81667 6.98 9.46333 6.95917C9.33641 6.96574 9.20945 6.94675 9.09 6.90333C8.9977 6.85312 8.90813 6.79804 8.82167 6.73833C8.65917 6.62583 8.51917 6.46167 8.31167 6.35083V6.34667H8.3075C7.97417 6.14167 7.79417 5.92 7.73583 5.755C7.6775 5.53167 7.73167 5.36333 7.89667 5.255C8.08333 5.1425 8.21333 5.02917 8.29917 4.975C8.38583 4.91333 8.41833 4.89 8.44583 4.86583H8.4475V4.86333C8.58833 4.695 8.81083 4.47167 9.14667 4.3625C9.2625 4.3325 9.39167 4.30833 9.535 4.30833H9.53417ZM11.8675 6.09333C12.1658 7.27417 12.8642 8.98917 13.3133 9.82083C13.5517 10.2658 14.0258 11.2033 14.2317 12.3408C14.3617 12.3367 14.5067 12.3558 14.6592 12.3942C15.1975 11.0017 14.2042 9.505 13.7517 9.08917C13.5683 8.9225 13.5583 8.81 13.6492 8.81C14.1408 9.255 14.7867 10.12 15.0208 11.1075C15.1292 11.5533 15.1542 12.0275 15.0383 12.4992C15.0942 12.5225 15.1508 12.5492 15.2092 12.555C16.0692 13 16.3867 13.3367 16.2342 13.8358V13.8C16.1842 13.7975 16.1342 13.8 16.0842 13.8H16.0708C16.1967 13.4108 15.9192 13.1125 15.1833 12.78C14.4208 12.4467 13.8117 12.5 13.7083 13.1675C13.7017 13.2033 13.6975 13.2225 13.6933 13.28C13.6367 13.2992 13.5775 13.3242 13.5192 13.3333C13.1608 13.5567 12.9675 13.8908 12.8583 14.3225C12.75 14.7667 12.7167 15.2858 12.6875 15.88V15.8825C12.6708 16.1608 12.5458 16.5808 12.4217 17.0075C11.1717 17.9008 9.43833 18.2892 7.965 17.2858C7.87254 17.1242 7.75998 16.975 7.63 16.8417C7.56789 16.7382 7.49065 16.6447 7.40083 16.5642C7.5525 16.5642 7.6825 16.5392 7.78833 16.5083C7.90817 16.4527 8.00191 16.353 8.05 16.23C8.14 16.0075 8.05 15.6492 7.7625 15.2608C7.475 14.8717 6.98667 14.4317 6.2725 13.9933C5.7475 13.66 5.45083 13.2683 5.31417 12.83C5.17667 12.385 5.195 11.9258 5.30167 11.4592C5.50583 10.5675 6.02917 9.70083 6.36333 9.15667C6.4525 9.1025 6.39417 9.26917 6.02333 9.96833C5.69333 10.5942 5.07333 12.0492 5.92167 13.18C5.95371 12.3549 6.13644 11.5427 6.46083 10.7833C6.93083 9.71833 7.91333 7.86333 7.99083 6.39333C8.03083 6.42333 8.17167 6.50583 8.23167 6.56167C8.41333 6.6725 8.54833 6.83917 8.72333 6.94917C8.89833 7.11667 9.12083 7.22833 9.45333 7.22833C9.48583 7.23083 9.51583 7.23333 9.545 7.23333C9.88834 7.23333 10.1533 7.12167 10.3758 7.01C10.6175 6.89833 10.8092 6.73167 10.9925 6.67667H10.9967C11.3858 6.56417 11.6925 6.34167 11.8667 6.09333H11.8675ZM13.6883 13.5583C13.7192 14.0583 13.9742 14.5958 14.4233 14.7058C14.9133 14.8175 15.6183 14.4283 15.9158 14.0683L16.0917 14.06C16.3542 14.0542 16.5725 14.0683 16.7975 14.2833L16.8 14.2858C16.9733 14.4517 17.0542 14.7275 17.1258 15.0158C17.1967 15.3492 17.2542 15.6658 17.4667 15.9042C17.8717 16.3433 18.0042 16.6592 17.9967 16.8542L17.9992 16.8483V16.8633L17.9967 16.8542C17.9842 17.0725 17.8425 17.1833 17.5817 17.3492C17.0567 17.6833 16.1267 17.9425 15.5342 18.6575C15.0192 19.2717 14.3925 19.6075 13.8375 19.65C13.2842 19.6942 12.8067 19.4833 12.5258 18.9017L12.5217 18.8992C12.3467 18.5658 12.4217 18.045 12.5683 17.4908C12.715 16.9342 12.925 16.3708 12.9542 15.91C12.985 15.315 13.0175 14.7975 13.1167 14.3983C13.2167 14.0108 13.3733 13.7342 13.6508 13.5783L13.6883 13.56V13.5583ZM4.67667 13.5992H4.685C4.72917 13.5992 4.7725 13.6033 4.81583 13.6108C5.12917 13.6567 5.40417 13.8883 5.66833 14.2375L6.42667 15.6242L6.42917 15.6267C6.63167 16.0708 7.0575 16.5133 7.42 16.9908C7.78167 17.4892 8.06167 17.9333 8.0275 18.2992V18.3042C7.98 18.9242 7.6275 19.2608 7.09 19.3825C6.5525 19.495 5.82333 19.3842 5.09417 18.9958C4.2875 18.5492 3.32917 18.605 2.71333 18.4942C2.40583 18.4392 2.205 18.3275 2.11083 18.1608C2.01917 17.9942 2.01667 17.6592 2.21333 17.1358V17.1325L2.215 17.13C2.3125 16.8517 2.24 16.5033 2.1925 16.1983C2.14667 15.8642 2.12333 15.6067 2.22833 15.415C2.36167 15.1367 2.55833 15.0817 2.80333 14.9708C3.04833 14.8583 3.33667 14.8025 3.56583 14.5792H3.5675V14.5775C3.78083 14.3542 3.93833 14.0767 4.12417 13.8792C4.2825 13.7117 4.44083 13.5992 4.67667 13.5992ZM10.6425 6.0375C10.28 6.205 9.855 6.48333 9.4025 6.48333C8.95083 6.48333 8.59417 6.26083 8.33583 6.095C8.2075 5.98333 8.1025 5.87167 8.025 5.81583C7.88833 5.70417 7.905 5.53833 7.96333 5.53833C8.05417 5.55167 8.07083 5.65 8.12917 5.705C8.20917 5.76 8.30833 5.87167 8.42917 5.9825C8.6725 6.14917 8.99583 6.37167 9.40167 6.37167C9.80583 6.37167 10.2792 6.14917 10.5667 5.98333C10.7292 5.87083 10.9375 5.705 11.1067 5.59417C11.2367 5.48083 11.2308 5.37167 11.3392 5.37167C11.4458 5.385 11.3675 5.48333 11.2167 5.64833C11.0318 5.78812 10.8399 5.91829 10.6417 6.03833L10.6425 6.0375ZM9.74083 4.71833V4.7C9.73583 4.68333 9.75167 4.665 9.765 4.65833C9.82667 4.6225 9.915 4.63583 9.98167 4.66167C10.0342 4.66167 10.115 4.7175 10.1067 4.77417C10.1017 4.815 10.0358 4.82917 9.99417 4.82917C9.94833 4.82917 9.9175 4.79333 9.87667 4.7725C9.83333 4.7575 9.755 4.76583 9.74083 4.71833ZM9.28167 4.71833C9.265 4.76667 9.1875 4.75917 9.14333 4.77333C9.10417 4.79417 9.07167 4.83 9.02667 4.83C8.985 4.83 8.91833 4.81333 8.91333 4.77333C8.905 4.71833 8.98667 4.6625 9.03833 4.6625C9.105 4.63667 9.19167 4.62333 9.25417 4.65833C9.27 4.66583 9.28417 4.68333 9.27917 4.7V4.71667H9.28167V4.71833Z" fill="#FCC624"/>
</g>
<defs>
<clipPath id="clip0_61_290">
<rect width="20" height="20" fill="white"/>
</clipPath>
</defs>
</svg>
