<svg width="20" height="20" viewBox="0 0 20 20" fill="none" xmlns="http://www.w3.org/2000/svg">
<g clip-path="url(#clip0_56_316)">
<path d="M11.7758 0.0391541C11.6317 0.0391541 11.4975 0.0699874 11.3733 0.111654C11.6367 0.286654 11.7817 0.519987 11.8533 0.783321C11.8592 0.819154 11.8692 0.844987 11.8742 0.880821C11.8804 0.911579 11.884 0.942797 11.885 0.974154C11.905 1.42832 11.7658 1.48582 11.6683 1.75415C11.5183 2.09999 11.56 2.47165 11.74 2.77082C11.7565 2.81094 11.7772 2.84921 11.8017 2.88499C11.6058 1.57832 12.6958 1.38249 12.8967 0.974154C12.9125 0.617487 12.6183 0.379987 12.3858 0.214987C12.2031 0.100178 11.9916 0.0395005 11.7758 0.0399874V0.0391541ZM13.4183 0.333321C13.3983 0.452487 13.4133 0.421654 13.4083 0.483321C13.4033 0.524987 13.4033 0.576654 13.3983 0.617487C13.3875 0.659154 13.3775 0.700821 13.3617 0.741654C13.3517 0.783321 13.3367 0.824987 13.32 0.865821L13.2642 0.984154C13.2475 1.00499 13.2383 1.02582 13.2225 1.04665L13.1917 1.09249C13.1671 1.12785 13.1412 1.16232 13.1142 1.19582C13.0833 1.22749 13.0575 1.26332 13.0208 1.28915V1.29415C12.99 1.31999 12.9592 1.35082 12.9225 1.37749C12.8142 1.45999 12.6908 1.52165 12.5767 1.59915C12.5408 1.62415 12.5042 1.64582 12.4733 1.67665C12.4383 1.70131 12.4054 1.72891 12.375 1.75915C12.3392 1.78999 12.3133 1.82082 12.2825 1.85749C12.2567 1.88832 12.2258 1.92415 12.205 1.96082C12.1791 1.99571 12.1549 2.03187 12.1325 2.06915C12.1117 2.11082 12.0967 2.14665 12.0758 2.18749C12.06 2.22915 12.045 2.26499 12.0342 2.30665C12.0205 2.34921 12.0085 2.3923 11.9983 2.43582C11.9933 2.45665 11.9933 2.48249 11.9883 2.50249C11.9825 2.52332 11.9825 2.54415 11.9775 2.56499C11.9775 2.60665 11.9725 2.65249 11.9725 2.69415C11.9725 2.72499 11.9725 2.75582 11.9775 2.78665C11.9775 2.82832 11.9825 2.86999 11.9933 2.91582C11.9983 2.95749 12.0083 2.99915 12.0183 3.04082C12.035 3.08165 12.045 3.12249 12.06 3.16415C12.0708 3.18915 12.0858 3.21582 12.0967 3.23665L10.9083 2.77665C10.7075 2.71999 10.5108 2.66832 10.3092 2.62165L9.98417 2.54415C9.67417 2.48249 9.35917 2.43582 9.04417 2.40499C9.03333 2.40499 9.02833 2.39999 9.01833 2.39999C8.48606 2.34667 7.95015 2.3397 7.41667 2.37915C7.10167 2.39999 6.78667 2.44082 6.47167 2.49249C6.23758 2.53282 6.00494 2.58118 5.77417 2.63749L5.54167 2.69915C5.465 2.72999 5.39167 2.76582 5.32 2.79749L5.14917 2.87499C5.13917 2.87999 5.12917 2.87999 5.12417 2.88499C5.07167 2.91082 5.02583 2.93165 4.97917 2.95749C4.91207 2.98709 4.84644 3.0199 4.7825 3.05582C4.74667 3.07082 4.71083 3.09165 4.67917 3.10749C4.66437 3.11667 4.64907 3.12502 4.63333 3.13249C4.58667 3.15915 4.54 3.18499 4.49833 3.21082C4.45581 3.23433 4.41463 3.2602 4.375 3.28832C4.33833 3.31332 4.3025 3.33415 4.27167 3.35999C4.26667 3.36582 4.26083 3.36582 4.25583 3.37082C4.225 3.39165 4.18917 3.41749 4.1575 3.44332L4.1475 3.45332L4.07 3.51499C4.06 3.52082 4.04917 3.53082 4.03917 3.53582C4.01333 3.55665 3.9875 3.58249 3.96167 3.60249C3.95667 3.61332 3.94583 3.61915 3.94083 3.62332C3.91 3.65499 3.87917 3.68082 3.84833 3.71165C3.8425 3.71165 3.8425 3.71665 3.8375 3.72165C3.80538 3.74973 3.77452 3.7792 3.745 3.80999C3.73917 3.81499 3.73917 3.81999 3.73417 3.81999C3.70704 3.84654 3.68118 3.87434 3.65667 3.90332C3.64667 3.91332 3.63167 3.92332 3.62083 3.93332C3.59316 3.96606 3.56367 3.99722 3.5325 4.02665C3.5275 4.03665 3.5175 4.04249 3.5125 4.05165C3.47083 4.09332 3.435 4.13499 3.39333 4.17665L3.37833 4.19165C3.295 4.27999 3.2075 4.36749 3.11417 4.44499C3.02167 4.52832 2.92333 4.60499 2.825 4.67249C2.62756 4.81352 2.41448 4.93124 2.19 5.02332C2.08167 5.06999 1.9675 5.11165 1.85417 5.14749C1.6375 5.19415 1.415 5.28165 1.22417 5.29749C1.1825 5.29749 1.13667 5.30749 1.095 5.31249L0.965834 5.34332L0.841667 5.38999C0.800001 5.40582 0.759167 5.42665 0.718334 5.44665C0.681667 5.47249 0.640834 5.49332 0.604167 5.51915C0.5674 5.54577 0.532843 5.57531 0.500834 5.60749C0.465001 5.63249 0.428334 5.66915 0.397501 5.69999C0.366667 5.73582 0.335834 5.76665 0.310001 5.80332C0.284167 5.84499 0.253334 5.88082 0.232501 5.92249C0.205357 5.96003 0.18112 5.99959 0.160001 6.04082C0.139167 6.08749 0.118334 6.12915 0.103334 6.17499C0.0875006 6.21665 0.0725007 6.26332 0.0566673 6.30915C0.0466673 6.35082 0.035834 6.39249 0.0316673 6.43415C0.0316673 6.43832 0.025834 6.44415 0.025834 6.44915C0.015834 6.49582 0.015834 6.55749 0.0100006 6.58832C0.00500064 6.62499 6.44282e-07 6.65499 6.44282e-07 6.69165C-0.000958121 6.78152 0.0202205 6.87024 0.0616673 6.94999V6.95499C0.0775006 6.98582 0.098334 7.01749 0.119167 7.04832C0.139167 7.07915 0.160834 7.10999 0.185834 7.14082C0.211667 7.16665 0.242501 7.19832 0.274167 7.22415C0.304279 7.25436 0.336895 7.28196 0.371667 7.30665C0.495834 7.41499 0.526667 7.45082 0.686667 7.53332C0.712501 7.54915 0.738334 7.55915 0.770001 7.57499C0.775001 7.57499 0.780001 7.57999 0.785001 7.57999C0.785001 7.59082 0.785001 7.59582 0.790001 7.60582C0.802064 7.691 0.82445 7.77439 0.856667 7.85415C0.873334 7.88499 0.883334 7.91582 0.898334 7.94665C0.904167 7.95749 0.909167 7.96749 0.915001 7.97249C0.935001 8.01415 0.955834 8.04999 0.975834 8.08665L1.05333 8.19499C1.07917 8.22582 1.11083 8.26165 1.14167 8.29332C1.1725 8.32415 1.20333 8.34999 1.24 8.38082C1.24 8.38082 1.245 8.38582 1.25 8.38582C1.28083 8.41165 1.31167 8.43749 1.34333 8.45832C1.37927 8.48353 1.41717 8.50583 1.45667 8.52499C1.4925 8.54582 1.53417 8.56665 1.575 8.58249C1.6083 8.59751 1.64288 8.6095 1.67833 8.61832C1.68417 8.62332 1.68917 8.62332 1.69917 8.62832C1.72 8.63415 1.74583 8.63915 1.76583 8.64415C1.75083 8.92332 1.74583 9.18582 1.7875 9.27915C1.83333 9.38249 2.06083 9.06749 2.2875 8.70582C2.2575 9.06249 2.23667 9.48082 2.2875 9.60499C2.345 9.73415 2.65417 9.33082 2.92333 8.88665C6.58583 8.03999 9.9275 10.57 10.2783 14.145C10.2117 13.5867 9.52417 13.2775 9.20917 13.355C9.05417 13.7367 8.79083 14.2275 8.3675 14.5325C8.40333 14.1908 8.38833 13.8408 8.31583 13.4992C8.20016 13.9747 7.98139 14.4191 7.675 14.8008C7.185 14.8367 6.69417 14.5992 6.43583 14.2425C6.415 14.2275 6.41 14.1967 6.39417 14.1758C6.37917 14.14 6.36333 14.1033 6.3525 14.0675C6.33751 14.0329 6.32714 13.9965 6.32167 13.9592C6.31667 13.9225 6.31667 13.8867 6.31667 13.845V13.7675C6.32283 13.7308 6.33146 13.6946 6.3425 13.6592C6.35333 13.6233 6.36333 13.5875 6.37917 13.5508C6.39917 13.515 6.415 13.4783 6.44083 13.4425C6.52833 13.1942 6.52833 12.9925 6.36833 12.8742C6.33726 12.8539 6.30433 12.8366 6.27 12.8225C6.25 12.8175 6.22417 12.8075 6.20333 12.8017L6.16167 12.7867C6.12629 12.7752 6.09007 12.7666 6.05333 12.7608C6.01814 12.7505 5.98167 12.7452 5.945 12.745C5.90749 12.7391 5.86963 12.7358 5.83167 12.735C5.80583 12.735 5.78 12.74 5.75417 12.74C5.71555 12.7398 5.6771 12.7451 5.64 12.7558C5.60417 12.7608 5.56833 12.7658 5.53167 12.7758C5.49481 12.7857 5.45862 12.798 5.42333 12.8125C5.3875 12.8275 5.35667 12.8433 5.32 12.8592C5.28917 12.8742 5.25833 12.895 5.22167 12.9108C4.01833 13.6958 4.73667 15.5342 5.5575 16.0667C5.2475 16.1233 4.9325 16.19 4.845 16.2575L4.83417 16.2675C5.05667 16.4017 5.28917 16.5158 5.53167 16.6142C5.8625 16.7225 6.21333 16.82 6.36833 16.8617V16.8667C6.79628 16.9545 7.2339 16.9859 7.67 16.96C9.95833 16.8 11.8333 15.0592 12.1742 12.7658L12.205 12.9C12.2208 12.9933 12.2408 13.0917 12.2517 13.1892V13.1942C12.2617 13.2408 12.2667 13.2875 12.2725 13.3292V13.3492C12.2775 13.3958 12.2825 13.4425 12.2825 13.4842C12.2875 13.5408 12.2925 13.5975 12.2925 13.6542V13.7375C12.2925 13.7625 12.2983 13.7933 12.2983 13.8192C12.2983 13.8508 12.2925 13.8817 12.2925 13.9125V13.985C12.2925 14.0208 12.2875 14.0517 12.2875 14.0883C12.2875 14.1092 12.2875 14.13 12.2825 14.155C12.2825 14.1917 12.2775 14.2275 12.2775 14.2692C12.2725 14.2842 12.2725 14.3 12.2725 14.315L12.2558 14.4342C12.2558 14.45 12.2558 14.465 12.2517 14.4808C12.2458 14.5325 12.2358 14.5792 12.2308 14.6308V14.6408L12.2 14.7858V14.8008L12.1692 14.94C12.1692 14.9458 12.1633 14.9567 12.1633 14.9608C12.1538 15.0081 12.1419 15.0548 12.1275 15.1008V15.1158C12.1117 15.1675 12.0967 15.2142 12.0858 15.2608C12.0808 15.2658 12.0808 15.2708 12.0808 15.2708L12.0342 15.4258C12.0142 15.4775 11.9983 15.5242 11.9775 15.5758C11.9567 15.6275 11.9417 15.6792 11.9208 15.7258C11.9 15.7775 11.8792 15.8233 11.8592 15.8758H11.8533C11.8333 15.9217 11.8117 15.9733 11.7867 16.02C11.7823 16.0323 11.777 16.0443 11.7708 16.0558C11.7658 16.0608 11.7658 16.0667 11.7608 16.0717C11.4192 16.7555 10.922 17.3498 10.3092 17.8067C10.2675 17.8325 10.2267 17.8642 10.185 17.895C10.175 17.905 10.16 17.91 10.1492 17.92C10.1122 17.9473 10.0744 17.9734 10.0358 17.9983L10.0508 18.0292H10.0567L10.2733 17.9983H10.2783C10.4125 17.9775 10.5467 17.9517 10.6808 17.9258C10.7175 17.9208 10.7583 17.91 10.795 17.9L10.8675 17.8842C10.9033 17.8792 10.9392 17.8692 10.9758 17.8642C11.0067 17.8533 11.0375 17.8475 11.0683 17.8383C11.585 17.7133 12.0858 17.5433 12.5667 17.3425C11.7365 18.4732 10.6325 19.3742 9.35833 19.9608C9.95333 19.9192 10.5467 19.8217 11.12 19.6558C13.1952 19.0457 14.9479 17.6452 16.0008 15.7558C15.7882 16.9519 15.3138 18.0861 14.6117 19.0775C15.1123 18.7473 15.5748 18.3627 15.9908 17.9308C17.147 16.7238 17.906 15.1919 18.1658 13.5408C18.3408 14.3575 18.3925 15.1992 18.3158 16.03C22.0442 10.8292 18.625 5.43665 17.1942 4.01665C17.1892 4.00582 17.1842 4.00082 17.1842 3.99082C17.1792 3.99582 17.1792 3.99582 17.1792 4.00082C17.1792 3.99582 17.1792 3.99582 17.1733 3.99082C17.1733 4.05249 17.1683 4.11415 17.1633 4.17665C17.149 4.29235 17.1318 4.40766 17.1117 4.52249C17.0867 4.63582 17.055 4.74999 17.0242 4.86415C16.9875 4.97249 16.9467 5.08582 16.8992 5.19415C16.852 5.30115 16.8005 5.40623 16.745 5.50915C16.6297 5.71163 16.4967 5.90349 16.3475 6.08249C16.27 6.17499 16.1875 6.25749 16.1042 6.34082C16.0555 6.38535 16.0054 6.42843 15.9542 6.46999L15.8358 6.57332C15.7436 6.64609 15.6471 6.71316 15.5467 6.77415C15.4479 6.83773 15.3462 6.89641 15.2417 6.94999C15.1333 7.00165 15.025 7.04832 14.9167 7.09499C14.696 7.17891 14.4677 7.24115 14.235 7.28082C14.1158 7.30165 13.9975 7.31165 13.8833 7.32249C13.801 7.32832 13.7184 7.33165 13.6358 7.33249C13.5184 7.33087 13.401 7.32391 13.2842 7.31165C13.1662 7.30239 13.049 7.28513 12.9333 7.25999C12.8162 7.23873 12.7007 7.2095 12.5875 7.17249H12.5817C12.6958 7.16165 12.8092 7.15165 12.9233 7.13082C13.1559 7.0905 13.3841 7.02828 13.605 6.94499C13.7183 6.90332 13.8267 6.85165 13.93 6.79999C14.0383 6.74832 14.1367 6.69165 14.24 6.62999C14.3383 6.56332 14.4358 6.49582 14.5292 6.42332C14.6225 6.35082 14.71 6.27332 14.7925 6.19082C14.88 6.11332 14.9575 6.02582 15.035 5.93749C15.1125 5.84499 15.185 5.75165 15.2517 5.65915C15.2625 5.64332 15.2733 5.62249 15.2833 5.60749C15.335 5.52415 15.3867 5.44165 15.4333 5.35915C15.5472 5.15359 15.6404 4.93726 15.7117 4.71332C15.7483 4.60499 15.7742 4.49165 15.8 4.37749C15.8208 4.25915 15.8417 4.14582 15.8517 4.03165C15.8617 3.91332 15.8725 3.79415 15.8725 3.68082C15.8725 3.59749 15.8667 3.51499 15.8617 3.43249C15.8514 3.31681 15.8375 3.20147 15.82 3.08665C15.7999 2.97023 15.7743 2.85482 15.7433 2.74082C15.7067 2.63249 15.6708 2.51832 15.6292 2.40999C15.5875 2.30165 15.5367 2.19332 15.485 2.08999C15.4275 1.98665 15.3708 1.88332 15.3092 1.78499C15.2432 1.68845 15.1743 1.59396 15.1025 1.50165C15.025 1.41332 14.9475 1.32499 14.865 1.23749C14.8215 1.19315 14.7768 1.15008 14.7308 1.10832C14.4975 0.927487 14.2558 0.757487 14.0125 0.602487C13.9791 0.58321 13.9446 0.565957 13.9092 0.550821C13.756 0.457015 13.5909 0.383312 13.4183 0.333321Z" fill="#E0234E"/>
</g>
<defs>
<clipPath id="clip0_56_316">
<rect width="20" height="20" fill="white"/>
</clipPath>
</defs>
</svg>
