<svg width="20" height="20" viewBox="0 0 20 20" fill="none" xmlns="http://www.w3.org/2000/svg">
<g clip-path="url(#clip0_56_321)">
<path d="M9.99832 20C9.73082 20 9.46415 19.93 9.22999 19.7942L6.78332 18.3467C6.41832 18.1425 6.59665 18.07 6.71665 18.0275C7.20415 17.8583 7.30249 17.8192 7.82332 17.5242C7.87749 17.4933 7.94915 17.505 8.00499 17.5383L9.88499 18.6542C9.95332 18.6917 10.0492 18.6917 10.1117 18.6542L17.4408 14.4242C17.5092 14.385 17.5525 14.3067 17.5525 14.2258V5.76749C17.5525 5.68499 17.5083 5.60749 17.4383 5.56583L10.1125 1.33916C10.045 1.29999 9.95499 1.29999 9.88665 1.33916L2.56249 5.56666C2.49165 5.60749 2.44665 5.68749 2.44665 5.76749V14.2258C2.44665 14.3067 2.49165 14.3833 2.56249 14.4217L4.56999 15.5817C5.65915 16.1267 6.32665 15.485 6.32665 14.84V6.48916C6.32665 6.37083 6.42165 6.27833 6.53999 6.27833H7.46915C7.58499 6.27833 7.68165 6.37166 7.68165 6.48916V14.84C7.68165 16.2942 6.88999 17.1275 5.51165 17.1275C5.08832 17.1275 4.75415 17.1275 3.82332 16.6683L1.89999 15.5625C1.42499 15.2883 1.13165 14.775 1.13165 14.2258V5.76749C1.13165 5.21833 1.42582 4.70499 1.89999 4.43166L9.22915 0.196661C9.69332 -0.0658386 10.3092 -0.0658386 10.7692 0.196661L18.0975 4.43166C18.5725 4.70583 18.8675 5.21833 18.8675 5.76749V14.2258C18.8675 14.775 18.5725 15.2867 18.0975 15.5625L10.7692 19.7942C10.5358 19.93 10.27 20 9.99832 20ZM15.9158 11.6608C15.9158 10.0775 14.8458 9.65583 12.5933 9.35833C10.3175 9.05749 10.0858 8.90166 10.0858 8.36916C10.0858 7.92916 10.2817 7.34166 11.9675 7.34166C13.4733 7.34166 14.0283 7.66583 14.2567 8.68083C14.2767 8.77666 14.3642 8.84666 14.4625 8.84666H15.4133C15.4725 8.84666 15.5283 8.82083 15.5683 8.77916C15.6083 8.73416 15.63 8.67666 15.6242 8.61583C15.4767 6.86749 14.315 6.05249 11.9675 6.05249C9.87749 6.05249 8.63082 6.93416 8.63082 8.41333C8.63082 10.0175 9.87082 10.4608 11.8767 10.6592C14.2767 10.8942 14.4625 11.245 14.4625 11.7167C14.4625 12.5358 13.805 12.885 12.2608 12.885C10.3217 12.885 9.89499 12.3983 9.75165 11.4333C9.73499 11.33 9.64665 11.2542 9.54082 11.2542H8.59332C8.47582 11.2542 8.38165 11.3475 8.38165 11.465C8.38165 12.7 9.05332 14.1717 12.2608 14.1717C14.5842 14.1725 15.9158 13.2583 15.9158 11.6608Z" fill="#5DD03E"/>
</g>
<defs>
<clipPath id="clip0_56_321">
<rect width="20" height="20" fill="white"/>
</clipPath>
</defs>
</svg>
