<svg width="20" height="20" viewBox="0 0 20 20" fill="none" xmlns="http://www.w3.org/2000/svg">
<g clip-path="url(#clip0_61_248)">
<path d="M19.6328 12.269C19.6214 12.2341 19.6056 12.2007 19.5859 12.1698C19.4701 11.9504 19.1886 11.8849 18.7464 11.9763C17.3687 12.2606 16.8352 12.0857 16.6417 11.9604C17.7601 10.2536 18.6792 8.19209 19.176 6.269C19.4022 5.39342 19.8412 3.33258 19.2778 2.326C19.2418 2.2571 19.1998 2.19157 19.1521 2.13017C18.0776 0.757168 16.5006 0.0206678 14.5916 0.000417836C13.346 -0.0127488 12.2828 0.288835 11.9948 0.399918C11.8522 0.373294 11.7088 0.350619 11.5649 0.331918C11.2042 0.266593 10.8387 0.230973 10.4721 0.225418C9.48691 0.210085 8.63558 0.445585 7.93058 0.925918C7.21616 0.658335 3.93991 -0.444915 1.91233 0.991585C0.77991 1.79383 0.25716 3.22775 0.358494 5.25358C0.392577 5.93525 0.78091 8.03192 1.39374 10.0399C1.77691 11.2953 2.17599 12.2915 2.58824 13.0249C3.04908 13.8534 3.52649 14.3527 4.01683 14.5162C4.38966 14.6404 4.96074 14.6363 5.56524 13.9096C6.23291 13.1067 6.89049 12.3881 7.18574 12.0705C7.54833 12.2668 7.94108 12.3726 8.34408 12.3848C8.34415 12.386 8.34426 12.3871 8.34441 12.3883C8.27424 12.4719 8.20556 12.5567 8.13841 12.6428C7.85599 13.0013 7.79724 13.0758 6.88824 13.263C6.62974 13.3163 5.94291 13.4579 5.93291 13.9393C5.93083 14.0413 5.96033 14.1317 6.00949 14.2116C6.19858 14.5642 6.77749 14.7197 6.85533 14.7392C7.96741 15.0171 8.94233 14.8158 9.66483 14.1736C9.65066 16.0328 9.72941 17.8548 9.95266 18.4131C10.137 18.8738 10.5875 20.0002 12.0103 20C12.2191 20 12.4489 19.9758 12.7017 19.9216C14.1866 19.6032 14.8314 18.9469 15.0808 17.5C15.2061 16.7744 15.4155 15.1039 15.5298 14.0823C15.5439 14.0238 15.5596 13.9818 15.5773 13.9688C15.5779 13.9684 15.6354 13.9296 15.9333 13.9944C15.9455 13.9971 15.9578 13.999 15.9702 14.0001L16.1818 14.0187L16.1942 14.0195C16.8999 14.0515 17.7871 13.9007 18.3036 13.6605C18.8401 13.4115 19.8083 12.8003 19.6328 12.269ZM1.97583 9.89708C1.35624 7.86725 0.994244 5.82617 0.965577 5.25383C0.875077 3.44433 1.31316 2.18475 2.26749 1.50992C3.79808 0.427751 6.30066 1.05925 7.35749 1.40158C7.35483 1.40425 7.35199 1.40667 7.34933 1.40942C5.66283 3.11275 5.70283 6.02275 5.70699 6.20067C5.70683 6.26925 5.71249 6.36642 5.72049 6.50008C5.74949 6.9895 5.80349 7.90042 5.65924 8.93209C5.52516 9.89075 5.82066 10.8291 6.46991 11.5064C6.53708 11.5765 6.60724 11.6423 6.67974 11.7043C6.39074 12.0138 5.76274 12.6981 5.09433 13.5023C4.62124 14.071 4.29458 13.962 4.18716 13.9262C3.86058 13.8173 3.50966 13.4369 3.15541 12.8243C2.75574 12.1251 2.35249 11.1312 1.97583 9.89708ZM6.98183 14.1363C6.83924 14.1007 6.70924 14.042 6.62166 13.9887C6.69574 13.9558 6.81949 13.9135 7.02441 13.8713C8.09383 13.6512 8.25899 13.4958 8.61966 13.0378C8.70233 12.9328 8.79599 12.8138 8.92574 12.6689C8.95365 12.6376 8.97459 12.6008 8.98716 12.5608C9.12949 12.4347 9.21416 12.4692 9.35124 12.526C9.48124 12.5798 9.60774 12.7427 9.65916 12.922C9.68341 13.0067 9.71074 13.1674 9.62149 13.2923C8.86791 14.3472 7.77016 14.3335 6.98183 14.1363ZM8.72683 10.813L8.68308 10.9305C8.57224 11.2277 8.46916 11.5039 8.40524 11.7663C7.84908 11.7646 7.30791 11.527 6.89649 11.0977C6.37324 10.5518 6.13558 9.79233 6.24441 9.014C6.39674 7.92408 6.34049 6.975 6.31024 6.46517C6.30608 6.39375 6.30233 6.33125 6.30008 6.28192C6.54649 6.0635 7.68833 5.45175 8.50249 5.63825C8.87408 5.72342 9.10049 5.97634 9.19458 6.41158C9.68174 8.66475 9.25908 9.60383 8.91941 10.3585C8.84941 10.514 8.78333 10.6609 8.72683 10.813ZM14.8632 14.6234C14.8492 14.7708 14.8334 14.9368 14.8117 15.12L14.6901 15.4853C14.6804 15.5142 14.6753 15.5445 14.6749 15.575C14.67 15.9706 14.6299 16.1158 14.5791 16.2994C14.5262 16.4904 14.4663 16.707 14.4296 17.1807C14.3379 18.3593 13.6977 19.0363 12.4152 19.3111C11.1523 19.582 10.9283 18.8971 10.7309 18.293C10.7107 18.2297 10.6893 18.1667 10.6668 18.1042C10.4873 17.616 10.5076 16.9276 10.5357 15.9749C10.5494 15.5073 10.5149 14.3905 10.2605 13.7698C10.2642 13.5254 10.2693 13.2773 10.2763 13.0266C10.2772 12.9948 10.2729 12.9631 10.2636 12.9328C10.2555 12.8742 10.2433 12.8163 10.227 12.7594C10.1248 12.4025 9.87591 12.1039 9.57724 11.9802C9.45858 11.931 9.24074 11.8408 8.97908 11.9078C9.03491 11.6778 9.13166 11.4182 9.23658 11.137L9.28066 11.0187C9.33024 10.8853 9.39233 10.7473 9.45816 10.601C9.81358 9.81133 10.3003 8.72992 9.77199 6.28667C9.57416 5.37158 8.91333 4.92475 7.91166 5.0285C7.31108 5.09067 6.76174 5.333 6.48766 5.47192C6.43271 5.49977 6.37831 5.52869 6.32449 5.55867C6.40099 4.63667 6.68999 2.91358 7.77091 1.82342C7.8512 1.74251 7.93556 1.66575 8.02366 1.59342C8.0674 1.58489 8.10863 1.56654 8.14424 1.53975C8.77124 1.06425 9.55633 0.830918 10.4792 0.846001C10.8202 0.851585 11.1473 0.874251 11.4577 0.913501C13.0736 1.20883 14.161 2.11917 14.821 2.89908C15.4996 3.701 15.867 4.50867 16.0137 4.94433C14.911 4.83217 14.1608 5.05 13.7806 5.5935C12.9534 6.77592 14.2331 9.07092 14.8482 10.1738C14.9609 10.376 15.0583 10.5507 15.0889 10.6249C15.2892 11.1103 15.5485 11.4343 15.7378 11.6709C15.7958 11.7434 15.8522 11.8138 15.8949 11.8751C15.5609 11.9713 14.9609 12.1938 15.0156 13.3059C15.0053 13.4362 14.9803 13.6783 14.9461 13.9849C14.9077 14.158 14.8876 14.3685 14.8632 14.6234ZM15.6053 13.2725C15.5716 12.5795 15.8296 12.5071 16.1026 12.4304C16.1403 12.4201 16.1779 12.4088 16.2151 12.3966C16.2503 12.4278 16.2877 12.4565 16.3269 12.4824C16.8022 12.7962 17.6455 12.8335 18.8326 12.5944C18.6646 12.7418 18.4002 12.9273 18.0382 13.0953C17.6967 13.2539 17.1251 13.3728 16.5821 13.3983C15.9823 13.4263 15.6772 13.3311 15.6053 13.2725ZM16.0799 5.5465C16.075 5.83883 16.0347 6.10417 15.9921 6.38125C15.9462 6.67925 15.8987 6.98742 15.8867 7.36142C15.8749 7.72542 15.9204 8.10384 15.9644 8.46983C16.0532 9.209 16.1444 9.97008 15.7915 10.721C15.7329 10.6172 15.6807 10.5099 15.6352 10.3997C15.5912 10.2933 15.4961 10.1225 15.3642 9.88617C14.8512 8.96608 13.6497 6.8115 14.2648 5.93233C14.5811 5.48008 15.3822 5.46058 16.0799 5.5465ZM16.2702 11.3913C16.2467 11.3613 16.223 11.3315 16.1992 11.3018L16.1696 11.2648C16.7747 10.2652 16.6564 9.27625 16.5511 8.39933C16.5078 8.0395 16.467 7.69967 16.4773 7.3805C16.4881 7.04208 16.5328 6.75192 16.5761 6.47125C16.6293 6.12542 16.6834 5.76767 16.6685 5.34583C16.6797 5.30158 16.6842 5.24933 16.6783 5.18734C16.6402 4.78275 16.1784 3.57233 15.2372 2.4765C14.7308 1.88708 13.9958 1.22883 12.9964 0.776918C13.434 0.688085 14.0237 0.607335 14.6834 0.622001C16.393 0.660001 17.7456 1.29992 18.7036 2.524C18.7239 2.55057 18.7425 2.57847 18.7592 2.6075C19.3617 3.73717 18.529 7.83675 16.2702 11.3913ZM8.92308 6.29442C8.90224 6.44392 8.66566 6.6465 8.40549 6.6465C8.38294 6.64651 8.36041 6.64496 8.33808 6.64183C8.18199 6.62017 8.02433 6.52183 7.91649 6.37883C7.87833 6.32842 7.81624 6.2305 7.82858 6.14183C7.83316 6.10842 7.85033 6.05975 7.90566 6.01783C8.00416 5.94333 8.19883 5.91567 8.41366 5.94558C8.67724 5.98233 8.94916 6.10708 8.92308 6.29442ZM15.5318 5.95158C15.5411 6.01758 15.491 6.11908 15.4042 6.21008C15.3473 6.26983 15.2276 6.3735 15.0643 6.39608C15.0436 6.39896 15.0227 6.40041 15.0018 6.40042C14.7572 6.40042 14.5507 6.20508 14.5346 6.09067C14.5146 5.94358 14.7547 5.83183 15.0022 5.79733C15.2497 5.76283 15.5114 5.80467 15.5318 5.95158Z" fill="#4169E1"/>
</g>
<defs>
<clipPath id="clip0_61_248">
<rect width="20" height="20" fill="white"/>
</clipPath>
</defs>
</svg>
