<svg width="20" height="20" viewBox="0 0 20 20" fill="none" xmlns="http://www.w3.org/2000/svg">
<path d="M18.1723 15.2373L11.294 0.630406C11.1215 0.265239 10.7615 0.0243224 10.3535 0.00198903C9.93492 -0.0224276 9.55992 0.179489 9.34833 0.523072L1.88833 12.6059C1.65725 12.9824 1.66183 13.4468 1.9015 13.8188L5.54808 19.4677C5.76542 19.8048 6.142 20 6.53333 20C6.64433 20 6.75583 19.9843 6.86558 19.9519L17.4505 16.8212C17.7747 16.7253 18.0398 16.4959 18.1786 16.1918C18.3173 15.8877 18.3147 15.5395 18.1723 15.2373ZM16.6323 15.8639L7.65117 18.5202C7.37683 18.6014 7.11383 18.3641 7.1715 18.0873L10.3799 2.72182C10.4399 2.43449 10.8371 2.38882 10.9624 2.65491L16.9031 15.2699C17.0151 15.5079 16.8873 15.7886 16.6323 15.8639Z" fill="#7D64FF"/>
</svg>
