<svg width="20" height="20" viewBox="0 0 20 20" fill="none" xmlns="http://www.w3.org/2000/svg">
<g clip-path="url(#clip0_61_234)">
<path d="M19.1958 8.00082H12.7983C12.6929 8.00148 12.5883 7.9812 12.4908 7.94115C12.3932 7.9011 12.3046 7.84207 12.23 7.7675C12.1554 7.69292 12.0964 7.60428 12.0563 7.50672C12.0163 7.40916 11.996 7.30461 11.9967 7.19915V0.801652C11.9967 0.69661 11.9759 0.592605 11.9355 0.495622C11.8952 0.398638 11.8361 0.310591 11.7616 0.236548C11.687 0.162505 11.5986 0.103928 11.5014 0.0641868C11.4042 0.0244458 11.3 0.00432602 11.195 0.00498527H8.79999C8.69495 0.00432602 8.59081 0.0244458 8.49358 0.0641868C8.39635 0.103928 8.30793 0.162505 8.23342 0.236548C8.15892 0.310591 8.09979 0.398638 8.05944 0.495622C8.01909 0.592605 7.99832 0.69661 7.99832 0.801652V7.19999C7.99898 7.30545 7.9787 7.40999 7.93865 7.50755C7.8986 7.60512 7.83957 7.69376 7.765 7.76833C7.69042 7.8429 7.60179 7.90193 7.50422 7.94198C7.40666 7.98203 7.30212 8.00232 7.19665 8.00165H4.80165C4.69626 8.00221 4.59181 7.98184 4.49434 7.94174C4.39688 7.90164 4.30834 7.8426 4.23385 7.76803C4.15936 7.69347 4.10041 7.60487 4.06041 7.50736C4.02041 7.40985 4.00016 7.30538 4.00082 7.19999V0.801652C4.00148 0.69619 3.9812 0.591646 3.94115 0.494084C3.9011 0.396521 3.84207 0.307882 3.7675 0.233308C3.69292 0.158734 3.60429 0.0997084 3.50672 0.059656C3.40916 0.0196037 3.30462 -0.000678724 3.19915 -1.47264e-05H0.799154C0.694113 -1.67952e-05 0.590107 0.0207541 0.493124 0.0611027C0.396141 0.101451 0.308094 0.160581 0.234051 0.235089C0.160008 0.309596 0.10143 0.398011 0.0616892 0.495245C0.0219482 0.592479 0.00182846 0.696612 0.00248771 0.801652V19.1983C0.00182372 19.3038 0.0221061 19.4083 0.0621585 19.5059C0.102211 19.6035 0.161236 19.6921 0.23581 19.7667C0.310384 19.8412 0.399023 19.9003 0.496586 19.9403C0.594148 19.9804 0.698693 20.0007 0.804154 20H19.1958C19.3013 20.0007 19.4058 19.9804 19.5034 19.9403C19.601 19.9003 19.6896 19.8412 19.7642 19.7667C19.8387 19.6921 19.8978 19.6035 19.9378 19.5059C19.9779 19.4083 19.9982 19.3038 19.9975 19.1983V8.81665C20.0002 8.70994 19.9814 8.60378 19.9422 8.50447C19.9031 8.40516 19.8444 8.31473 19.7696 8.23855C19.6948 8.16237 19.6055 8.102 19.5069 8.06102C19.4084 8.02004 19.3026 8.00012 19.1958 8.00082ZM15.9792 14.7942C15.9798 14.9518 15.9493 15.1081 15.8894 15.254C15.8296 15.3998 15.7415 15.5324 15.6302 15.6441C15.5189 15.7559 15.3867 15.8445 15.2411 15.905C15.0955 15.9655 14.9393 15.9967 14.7817 15.9967H13.1783C13.0207 15.9965 12.8647 15.9653 12.7192 15.9048C12.5736 15.8442 12.4415 15.7556 12.3303 15.6439C12.2192 15.5321 12.1311 15.3996 12.0713 15.2538C12.0115 15.1079 11.981 14.9518 11.9817 14.7942V13.1967C11.981 13.039 12.0115 12.8829 12.0713 12.737C12.1311 12.5912 12.2192 12.4587 12.3303 12.347C12.4415 12.2352 12.5736 12.1466 12.7192 12.086C12.8647 12.0255 13.0207 11.9943 13.1783 11.9942H14.7817C14.9393 11.9942 15.0955 12.0253 15.2411 12.0858C15.3867 12.1463 15.5189 12.2349 15.6302 12.3467C15.7415 12.4584 15.8296 12.591 15.8894 12.7369C15.9493 12.8827 15.9798 13.039 15.9792 13.1967V14.7942Z" fill="#FF6600"/>
</g>
<defs>
<clipPath id="clip0_61_234">
<rect width="20" height="20" fill="white"/>
</clipPath>
</defs>
</svg>
