<svg width="20" height="20" viewBox="0 0 20 20" fill="none" xmlns="http://www.w3.org/2000/svg">
<path d="M9.6 20C7.90262 20 6.27475 19.3257 5.07452 18.1255C3.87428 16.9252 3.2 15.2974 3.2 13.6C3.2 11.9026 3.87428 10.2747 5.07452 9.07452C6.27475 7.87428 7.90262 7.2 9.6 7.2V20ZM9.6 0V6.4H3.2V0H9.6ZM13.6 6.4C12.7513 6.4 11.9374 6.06286 11.3373 5.46274C10.7371 4.86263 10.4 4.04869 10.4 3.2C10.4 2.35131 10.7371 1.53737 11.3373 0.937258C11.9374 0.337142 12.7513 0 13.6 0C14.4487 0 15.2626 0.337142 15.8627 0.937258C16.4629 1.53737 16.8 2.35131 16.8 3.2C16.8 4.04869 16.4629 4.86263 15.8627 5.46274C15.2626 6.06286 14.4487 6.4 13.6 6.4Z" fill="white"/>
</svg>
