<svg width="20" height="20" viewBox="0 0 20 20" fill="none" xmlns="http://www.w3.org/2000/svg">
<g clip-path="url(#clip0_61_241)">
<path d="M18.925 10.9542C17.5417 12.6975 16.0483 14.69 13.06 14.69C10.3908 14.69 9.39583 12.3358 9.32667 10.4233C9.91083 11.66 11.0542 12.6608 12.8383 12.615C16.2692 12.5042 18.6217 9.40499 18.6217 6.58249C18.6217 3.20749 16.1033 0.772491 11.7317 0.772491C8.605 0.772491 4.73167 1.96249 2.18583 3.84332C2.15833 5.78082 3.2375 8.29833 3.625 8.02166C5.83167 6.43499 7.58167 5.41332 9.27833 4.90166C6.76667 7.70332 0.738333 14.2083 0 15.3542C0.0833333 16.405 1.38333 19.2275 2.02 19.2275C2.21333 19.2275 2.37917 19.1167 2.57333 18.9233C4.19329 17.112 5.73364 15.2311 7.19 13.2858C7.375 15.8725 8.64667 19.0342 12.2017 19.0342C15.3842 19.0342 18.5383 16.7375 19.9767 11.5633C20.1433 10.9267 19.3683 10.4292 18.9258 10.955L18.925 10.9542ZM15.3008 6.77666C15.3008 8.40916 13.6958 9.21166 12.23 9.21166C11.4458 9.21166 10.8433 9.00583 10.3675 8.73832C11.2433 7.41166 12.1108 6.05082 13.0425 4.59416C14.6858 4.87249 15.3008 5.78582 15.3008 6.77666Z" fill="#FF4438"/>
</g>
<defs>
<clipPath id="clip0_61_241">
<rect width="20" height="20" fill="white"/>
</clipPath>
</defs>
</svg>
