<svg width="20" height="20" viewBox="0 0 20 20" fill="none" xmlns="http://www.w3.org/2000/svg">
<g clip-path="url(#clip0_56_256)">
<path d="M18.5158 9.81996L9.81996 18.5158C9.4808 18.855 9.4808 19.4058 9.81996 19.7458C10.1591 20.085 10.71 20.085 11.05 19.7458L19.7458 11.05C20.085 10.71 20.085 10.1591 19.7458 9.81996C19.4058 9.4808 18.855 9.4808 18.5158 9.81996ZM16.7766 0.254131L0.254131 16.7766C-0.0850358 17.1158 -0.0850358 17.6666 0.254131 18.0066C0.594131 18.3458 1.14496 18.3458 1.48413 18.0066L18.0066 1.48413C18.3458 1.14496 18.3458 0.594131 18.0066 0.254131C17.6666 -0.0850358 17.1158 -0.0850358 16.7766 0.254131Z" fill="white"/>
</g>
<defs>
<clipPath id="clip0_56_256">
<rect width="20" height="20" fill="white"/>
</clipPath>
</defs>
</svg>
