<svg width="20" height="20" viewBox="0 0 20 20" fill="none" xmlns="http://www.w3.org/2000/svg">
<g clip-path="url(#clip0_56_266)">
<path d="M10.0008 4C7.33417 4 5.66751 5.33333 5.00084 8C6.00084 6.66667 7.16751 6.16667 8.50084 6.5C9.26167 6.69 9.80501 7.24167 10.4075 7.85333C11.3883 8.84833 12.5225 10 15.0008 10C17.6675 10 19.3342 8.66667 20.0008 6C19.0008 7.33333 17.8342 7.83333 16.5008 7.5C15.74 7.31 15.1967 6.75833 14.5942 6.14667C13.6142 5.15167 12.48 4 10.0008 4ZM5.00084 10C2.33417 10 0.667506 11.3333 0.000839233 14C1.00084 12.6667 2.16751 12.1667 3.50084 12.5C4.26167 12.69 4.80501 13.2417 5.40751 13.8533C6.38834 14.8483 7.52251 16 10.0008 16C12.6675 16 14.3342 14.6667 15.0008 12C14.0008 13.3333 12.8342 13.8333 11.5008 13.5C10.74 13.31 10.1967 12.7583 9.59417 12.1467C8.61417 11.1517 7.48001 10 5.00084 10Z" fill="#06B6D4"/>
</g>
<defs>
<clipPath id="clip0_56_266">
<rect width="20" height="20" fill="white"/>
</clipPath>
</defs>
</svg>
