<svg width="20" height="20" viewBox="0 0 20 20" fill="none" xmlns="http://www.w3.org/2000/svg">
<g clip-path="url(#clip0_56_281)">
<path d="M6.90501 8.81499L7.33167 1.60083C7.33507 1.54438 7.35713 1.49066 7.39439 1.44812C7.43165 1.40558 7.482 1.37663 7.53751 1.36583L14.4808 0.00499291C14.5237 -0.00342819 14.568 -0.000687624 14.6096 0.0129516C14.6511 0.0265909 14.6884 0.0506711 14.7179 0.0828818C14.7475 0.115092 14.7682 0.154353 14.7782 0.196895C14.7882 0.239437 14.7871 0.283834 14.775 0.325826L13.4767 4.82833C13.4646 4.87024 13.4635 4.91454 13.4735 4.957C13.4834 4.99945 13.5041 5.03865 13.5336 5.07083C13.563 5.10302 13.6002 5.12712 13.6416 5.14083C13.683 5.15454 13.7272 5.15741 13.77 5.14916L15.76 4.76583C15.8068 4.75667 15.8553 4.76083 15.8999 4.77784C15.9444 4.79485 15.9833 4.82403 16.0122 4.86205C16.041 4.90007 16.0586 4.94542 16.0629 4.99293C16.0672 5.04044 16.0581 5.08822 16.0367 5.13083L10.3783 16.4225L10.2758 16.5808C10.2538 16.6167 10.2229 16.6462 10.1861 16.6667C10.1493 16.6871 10.1079 16.6977 10.0658 16.6975C9.91834 16.6975 9.77417 16.5708 9.81167 16.39L10.7242 11.9725C10.7331 11.9292 10.7307 11.8844 10.7171 11.8423C10.7035 11.8003 10.6792 11.7625 10.6466 11.7327C10.614 11.7028 10.5742 11.682 10.5311 11.6722C10.488 11.6624 10.4431 11.6639 10.4008 11.6767L9.20667 12.0392C9.1644 12.052 9.11949 12.0537 9.07638 12.044C9.03326 12.0343 8.9934 12.0136 8.96071 11.9838C8.92802 11.9541 8.90363 11.9164 8.88992 11.8743C8.87621 11.8323 8.87365 11.7875 8.88251 11.7442L9.45751 8.93166C9.46622 8.88967 9.46421 8.84616 9.45165 8.80515C9.43909 8.76414 9.41639 8.72696 9.38566 8.69706C9.35492 8.66715 9.31713 8.64548 9.2758 8.63405C9.23446 8.62261 9.19091 8.62179 9.14917 8.63166L7.21584 9.07833C7.17725 9.08719 7.13713 9.08695 7.09866 9.07762C7.06018 9.06829 7.02441 9.05013 6.99417 9.02458C6.96393 8.99903 6.94005 8.96679 6.92443 8.93041C6.90881 8.89403 6.90187 8.85452 6.90417 8.81499H6.90501ZM19.385 2.20999L14.4033 3.11666L13.95 4.68916L15.6808 4.35583C15.815 4.32909 15.9541 4.34425 16.0793 4.39926C16.2045 4.45427 16.3098 4.54646 16.3808 4.66333C16.4411 4.76052 16.4754 4.8716 16.4804 4.98587C16.4853 5.10014 16.4608 5.21377 16.4092 5.31583L10.75 16.6083L10.7392 16.6292L10.7267 16.6483L10.625 16.8067C10.5649 16.9008 10.4822 16.9784 10.3843 17.0322C10.2865 17.0861 10.1767 17.1146 10.065 17.115C9.96386 17.1144 9.86408 17.0916 9.77276 17.0481C9.68145 17.0046 9.60084 16.9415 9.53667 16.8633C9.47426 16.7861 9.4299 16.6958 9.40683 16.5992C9.38377 16.5026 9.38257 16.4021 9.40334 16.305L10.2608 12.1542L9.32751 12.4375C9.19984 12.4759 9.06365 12.4757 8.9361 12.4369C8.80856 12.398 8.69538 12.3223 8.61084 12.2192C8.54781 12.1422 8.50276 12.0521 8.47897 11.9555C8.45518 11.8589 8.45326 11.7583 8.47334 11.6608L8.99834 9.09416L7.30917 9.48416C7.19482 9.51035 7.07562 9.50621 6.96336 9.47216C6.8511 9.4381 6.74969 9.3753 6.66917 9.28999C6.60675 9.22323 6.55854 9.1445 6.52745 9.05855C6.49637 8.9726 6.48306 8.88124 6.48834 8.78999L6.81251 3.31499L0.612505 2.20666C0.516979 2.18942 0.418517 2.1998 0.328686 2.23658C0.238855 2.27336 0.161387 2.33502 0.105381 2.4143C0.0493752 2.49358 0.0171587 2.5872 0.0125161 2.68416C0.00787357 2.78112 0.0309977 2.87739 0.079172 2.96166L9.65001 19.7425C9.69471 19.821 9.75949 19.8863 9.83771 19.9316C9.91592 19.9769 10.0048 20.0005 10.0951 20.0002C10.1855 19.9999 10.2742 19.9755 10.3521 19.9296C10.4299 19.8838 10.4942 19.818 10.5383 19.7392L19.9217 2.95999C19.9687 2.87557 19.9908 2.77952 19.9853 2.68303C19.9799 2.58655 19.9471 2.49359 19.8909 2.415C19.8347 2.33641 19.7573 2.27541 19.6677 2.23912C19.5781 2.20282 19.4801 2.19272 19.385 2.20999Z" fill="#646CFF"/>
</g>
<defs>
<clipPath id="clip0_56_281">
<rect width="20" height="20" fill="white"/>
</clipPath>
</defs>
</svg>
