<svg width="20" height="20" viewBox="0 0 20 20" fill="none" xmlns="http://www.w3.org/2000/svg">
<g clip-path="url(#clip0_61_348)">
<path d="M10 0C4.47917 0 0 4.47917 0 10C0 15.5208 4.47917 20 10 20C15.5208 20 20 15.5208 20 10C20 4.47917 15.5208 0 10 0ZM10.64 3.42083C10.7925 3.42083 10.9425 3.465 11.0775 3.55167C11.1817 3.62083 11.3167 3.70583 11.7067 4.51333C11.965 4.44 12.0967 4.47833 12.1658 4.4975C12.3358 4.54417 12.4708 4.65583 12.5517 4.81C12.9492 5.57417 13.0033 6.9375 12.83 7.81417C12.6292 8.84083 12.2008 9.505 11.8875 9.96083C12.1575 10.235 12.5358 10.71 12.8183 11.4817C13.05 12.1267 13.0767 12.7133 13.0458 13.1608C13.2186 13.08 13.3861 12.9884 13.5475 12.8867C14.0417 12.5817 14.7867 12.1225 15.675 12.1108C16.27 12.1033 16.7325 12.4817 16.8025 13.03C16.8364 13.2833 16.7744 13.5401 16.6287 13.7501C16.483 13.9601 16.2641 14.108 16.015 14.165C15.4742 14.2967 15.2233 14.3967 14.4975 14.8675C13.4708 15.5317 12.3817 15.9025 11.9875 16.0258C11.8171 16.1658 11.6161 16.2638 11.4008 16.3117C10.7867 16.4625 8.67917 16.5742 8.5125 16.5742H8.47417C7.82167 16.5742 7.4625 16.3733 7.26583 16.165C6.7175 16.4392 6.0075 16.3233 5.4975 16.0533C5.32405 15.9668 5.18326 15.8264 5.09615 15.6532C5.00904 15.4801 4.98028 15.2834 5.01417 15.0925C4.96636 15.0427 4.92365 14.9883 4.88667 14.93C4.75167 14.7217 4.44667 14.15 4.50833 13.3083C4.555 12.7058 4.97167 12.1692 5.24167 11.8833C5.22223 11.2398 5.33806 10.5993 5.58167 10.0033C5.83667 9.3975 6.31917 8.88 6.68167 8.55583C6.415 8.10833 6.145 7.41667 6.4075 6.71417C6.59667 6.2125 6.75083 5.93417 7.09083 5.81417H7.08667C7.2525 5.7525 7.41083 5.68667 7.49167 5.59833C7.9876 5.05648 8.67369 4.72717 9.40667 4.67917C9.4375 4.60167 9.4725 4.525 9.51083 4.44333C9.76917 3.895 10.0433 3.58583 10.3642 3.47C10.4516 3.43718 10.5441 3.42024 10.6375 3.42L10.64 3.42083ZM10.645 4.00417C10.2225 4.0175 9.81083 5.27 9.81083 5.27C9.81083 5.27 8.7525 5.1 7.9225 5.99583C7.75667 6.1775 7.5325 6.27417 7.30083 6.3625C7.235 6.38583 7.15417 6.38167 6.95333 6.9225C6.64417 7.74833 7.47417 8.6675 7.47417 8.6675C7.47417 8.6675 6.48583 9.36667 6.11917 10.235C5.71417 11.1883 5.8375 12.1192 5.8375 12.1192C5.8375 12.1192 5.135 12.7292 5.08833 13.3583C5.04583 13.9108 5.20417 14.3583 5.37417 14.6208C5.56333 14.9067 5.79917 14.7675 5.79917 14.7675C5.79917 14.7675 5.33167 15.3117 5.76833 15.5433C6.16583 15.7517 6.8375 15.8717 7.19333 15.5125C7.45167 15.2542 7.5025 14.6783 7.59833 14.4433C7.62167 14.3892 7.69833 14.5358 7.7725 14.6092C7.85333 14.6867 7.9925 14.7717 7.9925 14.7717C7.9925 14.7717 7.36333 15.0417 7.62167 15.66C7.70667 15.865 8.01167 15.9958 8.51 15.9917C8.695 15.9875 10.73 15.8758 11.2708 15.745C11.5833 15.6717 11.6917 15.5092 11.6917 15.5092C11.6917 15.5092 12.9967 15.15 14.19 14.3783C14.9542 13.88 15.2675 13.745 15.885 13.5983C16.395 13.475 16.36 12.6833 15.6842 12.695C14.985 12.7025 14.3717 13.0617 13.8542 13.3825C12.885 13.9808 12.4025 13.9425 12.4025 13.9425L12.3875 13.9158C12.3217 13.8075 12.6967 12.8383 12.2758 11.6842C11.82 10.4217 11.0983 10.1167 11.1558 10.02C11.4033 9.60333 12.0208 8.93917 12.2675 7.70333C12.4142 6.95417 12.3758 5.7225 12.0433 5.0775C11.9817 4.9575 11.4333 5.27833 11.4333 5.27833C11.4333 5.27833 10.92 4.13583 10.7767 4.0425C10.738 4.01655 10.6915 4.00316 10.645 4.00417Z" fill="#00AFFF"/>
</g>
<defs>
<clipPath id="clip0_61_348">
<rect width="20" height="20" fill="white"/>
</clipPath>
</defs>
</svg>
