<svg width="1108" height="99" viewBox="0 0 1108 99" fill="none" xmlns="http://www.w3.org/2000/svg">
<path d="M84 99H68V87L56 99H14C10.2667 99 7 97.6 4.2 94.8C1.4 92 1.78814e-07 88.7333 1.78814e-07 85V15C1.78814e-07 11.2667 1.4 8 4.2 5.2C7 2.4 10.2667 0.999998 14 0.999998H84V15H16V85H68V57H42L56 43H84V99ZM185.063 99H115.063V29L129.063 15H115.063V0.999998H185.063V15H131.063V55L143.063 43H185.063V57H131.063V85H185.063V99ZM292.063 99H208.063V82L275.063 15H208.063V0.999998H292.063V18.2L225.063 85H292.063V99ZM337.117 99H321.117V0.999998H337.117V99ZM443.07 99H373.07V29L387.07 15H373.07V0.999998H443.07V15H389.07V55L401.07 43H443.07V57H389.07V85H443.07V99ZM543.07 99H473.07V0.999998H489.07V85H527.07V71H543.07V99ZM673.148 99H603.148V29L617.148 15H603.148V0.999998H673.148V15H619.148V55L631.148 43H673.148V57H619.148V85H673.148V99ZM773.148 99H703.148V0.999998H719.148V85H757.148V71H773.148V99ZM873.188 57C873.188 60.8667 871.788 64.2 868.988 67C866.321 69.6667 863.054 71 859.188 71H839.188V99H823.188V71H803.188C799.321 71 795.988 69.6667 793.188 67C790.521 64.2 789.188 60.8667 789.188 57V0.999998H805.188V57H857.188V0.999998H873.188V57ZM988.102 85C988.102 88.8667 986.702 92.2 983.902 95C981.235 97.6667 977.968 99 974.102 99H918.102C914.235 99 910.902 97.6667 908.102 95C905.435 92.2 904.102 88.8667 904.102 85V15C904.102 11.1333 905.435 7.86666 908.102 5.2C910.902 2.4 914.235 0.999998 918.102 0.999998H974.102C977.968 0.999998 981.235 2.4 983.902 5.2C986.702 7.86666 988.102 11.1333 988.102 15V85ZM972.102 85V15H920.102V85H972.102ZM1107.07 98.8H1079.07L1041.07 15.8H1033.07L1039.07 25.8V98.8H1023.07V0.799995H1051.27L1089.07 83.8H1097.07L1091.07 73.8V0.799995H1107.07V98.8Z" fill="white"/>
</svg>
