<svg width="913" height="158" viewBox="0 0 913 158" fill="none" xmlns="http://www.w3.org/2000/svg">
<path d="M84 116H68V104L56 116H14C10.2667 116 7 114.6 4.2 111.8C1.4 109 1.78814e-07 105.733 1.78814e-07 102V32C1.78814e-07 28.2667 1.4 25 4.2 22.2C7 19.4 10.2667 18 14 18H84V32H16V102H68V74H42L56 60H84V116ZM181.063 116H125.063C121.196 116 117.863 114.667 115.063 112C112.396 109.2 111.063 105.867 111.063 102V60C111.063 56.1333 112.396 52.8667 115.063 50.2C117.863 47.4 121.196 46 125.063 46H167.063C170.929 46 174.196 47.4 176.863 50.2C179.663 52.8667 181.063 56.1333 181.063 60V74L167.063 88H127.063L139.063 76H167.063V58H125.063V104H181.063V116ZM257.055 116H197.055V102L241.055 60V58H197.055V46H257.055V60L213.055 102V104H257.055V116ZM293.031 34H279.031V18H293.031V34ZM293.031 116H279.031V56L293.031 42V116ZM391.023 116H335.023C331.157 116 327.823 114.667 325.023 112C322.357 109.2 321.023 105.867 321.023 102V60C321.023 56.1333 322.357 52.8667 325.023 50.2C327.823 47.4 331.157 46 335.023 46H377.023C380.89 46 384.157 47.4 386.823 50.2C389.623 52.8667 391.023 56.1333 391.023 60V74L377.023 88H337.023L349.023 76H377.023V58H335.023V104H391.023V116ZM429.016 116H415.016V14L429.016 -8.58307e-06V116ZM573.148 116H503.148V46L517.148 32H503.148V18H573.148V32H519.148V72L531.148 60H573.148V74H519.148V102H573.148V116ZM615.148 116H601.148V14L615.148 -8.58307e-06V116ZM715.242 144C715.242 147.867 713.842 151.133 711.042 153.8C708.376 156.6 705.109 158 701.242 158H643.242L655.242 146H701.242V106L691.242 116H659.242C655.376 116 652.042 114.667 649.242 112C646.576 109.2 645.242 105.867 645.242 102V46H659.242V104H701.242V46H715.242V144ZM814.266 102C814.266 105.867 812.866 109.2 810.066 112C807.399 114.667 804.132 116 800.266 116H758.266C754.399 116 751.066 114.667 748.266 112C745.599 109.2 744.266 105.867 744.266 102V60C744.266 56.1333 745.599 52.8667 748.266 50.2C751.066 47.4 754.399 46 758.266 46H800.266C804.132 46 807.399 47.4 810.066 50.2C812.866 52.8667 814.266 56.1333 814.266 60V102ZM800.266 104V58H758.266V104H800.266ZM912.313 116H898.313V58H856.313V116H842.313V46H856.313V56L866.313 46H898.313C902.179 46 905.446 47.4 908.113 50.2C910.913 52.8667 912.313 56.1333 912.313 60V116Z" fill="white"/>
</svg>
