<svg width="260" height="69" viewBox="0 0 260 69" fill="none" xmlns="http://www.w3.org/2000/svg">
<path d="M65.6099 30.7273C65.6099 30.9873 65.5238 31.2045 65.3518 31.3841C65.1795 31.5637 64.9667 31.6536 64.7222 31.6536H59.1202C58.8713 31.6536 58.6629 31.5637 58.4908 31.3841C58.3188 31.2045 58.2325 30.9826 58.2325 30.7273V2.37871C58.2325 2.11878 58.3188 1.90136 58.4908 1.72176C58.6629 1.54216 58.8757 1.45236 59.1202 1.45236H64.7993C65.0709 1.45236 65.3246 1.52798 65.56 1.68395C65.7955 1.83992 65.9721 2.03369 66.0989 2.26529L73.7071 18.0654C73.7796 18.2214 73.8928 18.297 74.0423 18.297C74.1916 18.297 74.3004 18.2214 74.3774 18.0654L82.0126 2.26056C82.135 2.02898 82.3162 1.83519 82.5515 1.67922C82.7871 1.52325 83.0408 1.44763 83.3124 1.44763H88.9913C89.2358 1.44763 89.4488 1.53743 89.6209 1.71703C89.7929 1.89663 89.8789 2.11878 89.8789 2.374V30.7225C89.8789 30.9826 89.7929 31.1998 89.6209 31.3794C89.4488 31.559 89.2358 31.6489 88.9913 31.6489H83.3895C83.1404 31.6489 82.932 31.559 82.7599 31.3794C82.5879 31.1998 82.5018 30.9778 82.5018 30.7225V16.9405C82.5018 16.8366 82.4565 16.7751 82.3705 16.7468C82.2845 16.7231 82.2164 16.7609 82.1667 16.8649L76.8908 27.9008C76.7684 28.1325 76.5874 28.3263 76.3519 28.4822C76.1163 28.6381 75.8628 28.7138 75.591 28.7138H72.5115C72.2399 28.7138 71.9862 28.6381 71.7506 28.4822C71.5153 28.3263 71.3341 28.1325 71.2117 27.9008L65.9404 16.8649C65.8907 16.7609 65.8226 16.7231 65.7366 16.7468C65.6506 16.7751 65.6053 16.8366 65.6053 16.9405V30.7273H65.6099Z" fill="white"/>
<path d="M103.503 2.29837C103.602 2.03842 103.761 1.83519 103.987 1.67922C104.209 1.52325 104.458 1.44763 104.73 1.44763H110.296C110.568 1.44763 110.817 1.52325 111.039 1.67922C111.261 1.83519 111.423 2.04315 111.523 2.29837L122.546 30.803C122.618 31.0108 122.6 31.2045 122.492 31.3841C122.378 31.5637 122.215 31.6536 121.989 31.6536H115.681C115.409 31.6536 115.169 31.5779 114.956 31.422C114.748 31.2661 114.589 31.0628 114.494 30.803L113.457 27.9765C113.285 27.485 112.95 27.2392 112.456 27.2392H102.547C102.054 27.2392 101.719 27.485 101.546 27.9765L100.509 30.803C100.41 31.0628 100.256 31.2661 100.047 31.422C99.8391 31.5779 99.5945 31.6536 99.3229 31.6536H93.0144C92.7925 31.6536 92.625 31.5637 92.5117 31.3841C92.3985 31.2045 92.3803 31.0108 92.4574 30.803L103.503 2.29837ZM109.92 20.23C110.119 20.23 110.26 20.1545 110.346 19.9986C110.432 19.8424 110.45 19.6771 110.4 19.4975L107.764 12.1008C107.715 11.9732 107.628 11.907 107.506 11.907C107.384 11.907 107.298 11.9732 107.248 12.1008L104.576 19.4975C104.526 19.6771 104.544 19.8471 104.631 19.9986C104.717 20.1545 104.857 20.23 105.056 20.23H109.92Z" fill="white"/>
<path d="M125.1 2.3787C125.1 2.11875 125.186 1.90133 125.358 1.72173C125.53 1.54213 125.743 1.45233 125.988 1.45233H131.63C131.875 1.45233 132.088 1.54213 132.26 1.72173C132.432 1.90133 132.518 2.12348 132.518 2.3787V30.7273C132.518 30.9871 132.432 31.2046 132.26 31.3842C132.088 31.5637 131.875 31.6536 131.63 31.6536H125.988C125.739 31.6536 125.53 31.5637 125.358 31.3842C125.186 31.2046 125.1 30.9824 125.1 30.7273V2.3787Z" fill="white"/>
<path d="M148.106 32.2356C146.471 32.2356 144.94 32.0465 143.505 31.6732C142.069 31.2998 140.806 30.7515 139.719 30.0284C138.632 29.3053 137.744 28.4168 137.065 27.3579C136.385 26.2992 135.982 25.0752 135.86 23.6808C135.838 23.3973 135.924 23.1467 136.118 22.9247C136.318 22.7073 136.553 22.5937 136.825 22.5937H141.833C142.255 22.5937 142.549 22.66 142.726 22.7875C142.898 22.9153 143.097 23.1893 143.319 23.6006C143.591 24.1157 144.102 24.5695 144.859 24.9569C145.615 25.3445 146.647 25.5383 147.956 25.5383C149.342 25.5383 150.298 25.3397 150.832 24.9382C151.362 24.5364 151.629 24.1204 151.629 23.6808C151.629 23.0381 151.244 22.4804 150.479 22.0173C149.713 21.554 148.45 21.0105 146.693 20.3913C145.529 20.0039 144.324 19.5453 143.074 19.016C141.824 18.4866 140.679 17.8344 139.642 17.0593C138.604 16.2842 137.744 15.3436 137.06 14.2329C136.381 13.1223 136.041 11.7942 136.041 10.2439C136.041 8.79767 136.318 7.50266 136.875 6.34943C137.432 5.20093 138.211 4.21784 139.211 3.40492C140.212 2.59198 141.408 1.96812 142.794 1.52857C144.184 1.08429 145.706 0.866882 147.363 0.866882C149.043 0.866882 150.592 1.08429 152 1.52384C153.409 1.96339 154.636 2.58254 155.673 3.38129C156.71 4.18003 157.534 5.14422 158.141 6.26434C158.748 7.38922 159.101 8.62278 159.201 9.96507C159.224 10.2486 159.138 10.4991 158.943 10.7213C158.744 10.9387 158.508 11.0521 158.236 11.0521H153.078C152.73 11.0521 152.467 10.967 152.281 10.8016C152.095 10.6362 151.942 10.3715 151.819 10.0076C151.597 9.36483 151.131 8.79294 150.429 8.3014C149.723 7.80986 148.753 7.56409 147.517 7.56409C146.253 7.56409 145.352 7.77678 144.809 8.20214C144.265 8.62751 143.994 9.10014 143.994 9.61532C143.994 10.2108 144.356 10.7118 145.09 11.1277C145.819 11.5389 147.05 12.0588 148.78 12.678C149.768 13.0419 150.895 13.4862 152.159 14.0155C153.422 14.5449 154.6 15.216 155.705 16.0289C156.805 16.8419 157.734 17.8344 158.49 19.0113C159.246 20.1882 159.622 21.6013 159.622 23.2508C159.622 24.7207 159.332 26.0205 158.748 27.1452C158.168 28.2701 157.362 29.2059 156.334 29.9527C155.306 30.6995 154.093 31.2714 152.698 31.659C151.289 32.0418 149.763 32.2356 148.106 32.2356Z" fill="white"/>
<path d="M58.1255 37.3063C58.1255 37.0463 58.2115 36.829 58.3836 36.6494C58.5558 36.4698 58.7686 36.3799 59.0131 36.3799H72.2595C74.1163 36.3799 75.7239 36.6684 77.0825 37.2495C78.441 37.8309 79.5688 38.625 80.4608 39.6316C81.353 40.6384 82.0143 41.8152 82.4445 43.1575C82.8792 44.4999 83.092 45.9224 83.092 47.416C83.092 49.4058 82.6844 51.268 81.8694 53.0119C81.0542 54.756 79.777 56.1171 78.047 57.1002C77.8478 57.2041 77.7301 57.3506 77.6939 57.5444C77.6576 57.7382 77.6985 57.9273 77.8253 58.1069L83.1329 65.8155C83.2551 65.9951 83.2732 66.17 83.1872 66.3401C83.1012 66.5103 82.9563 66.5907 82.7614 66.5907H75.6742C75.1035 66.5907 74.637 66.3307 74.2658 65.8155L69.737 59.1137C69.6148 58.9057 69.4382 58.7545 69.2162 58.6504C68.9943 58.5465 68.7725 58.4944 68.5459 58.4944H66.2453C66.0461 58.4944 65.8741 58.5701 65.7246 58.7261C65.5753 58.882 65.5028 59.0616 65.5028 59.2696V65.6596C65.5028 65.9194 65.4168 66.1369 65.2445 66.3165C65.0725 66.4961 64.8597 66.586 64.6152 66.586H59.0131C58.764 66.586 58.5558 66.4961 58.3836 66.3165C58.2115 66.1369 58.1255 65.9147 58.1255 65.6596V37.3063ZM75.9368 47.4915C75.9368 46.329 75.6288 45.36 75.0085 44.5848C74.3879 43.8097 73.3374 43.4223 71.852 43.4223H66.2499C66.0507 43.4223 65.8787 43.4978 65.7292 43.6537C65.5797 43.8097 65.5072 43.9893 65.5072 44.1972V50.7055C65.5072 50.9135 65.5797 51.0931 65.7292 51.249C65.8787 51.405 66.0507 51.4805 66.2499 51.4805H71.852C72.5947 51.4805 73.224 51.3719 73.7448 51.1497C74.2658 50.9322 74.6869 50.6393 75.0085 50.2801C75.3298 49.9209 75.5654 49.4907 75.7149 49.004C75.8644 48.5125 75.9368 48.0114 75.9368 47.4915Z" fill="white"/>
<path d="M87.4395 66.586C87.1904 66.586 86.9822 66.4961 86.81 66.3165C86.6379 66.1369 86.5519 65.9147 86.5519 65.6596V37.3063C86.5519 37.0463 86.6379 36.829 86.81 36.6494C86.9822 36.4698 87.195 36.3799 87.4395 36.3799H107.886C108.131 36.3799 108.344 36.4698 108.516 36.6494C108.688 36.829 108.774 37.051 108.774 37.3063V42.959C108.774 43.219 108.688 43.4365 108.516 43.6161C108.344 43.7957 108.131 43.8854 107.886 43.8854H94.7126C94.5132 43.8854 94.3412 43.9611 94.1919 44.117C94.0424 44.273 93.9699 44.4526 93.9699 44.6605V47.4491C93.9699 47.6569 94.0424 47.8365 94.1919 47.9926C94.3412 48.1486 94.5132 48.2241 94.7126 48.2241H105.251C105.5 48.2241 105.708 48.314 105.88 48.4936C106.052 48.6732 106.138 48.8954 106.138 49.1505V54.3022C106.138 54.5622 106.052 54.7795 105.88 54.9591C105.708 55.1387 105.495 55.2286 105.251 55.2286H94.7126C94.5132 55.2286 94.3412 55.3043 94.1919 55.4602C94.0424 55.6162 93.9699 55.7958 93.9699 56.0037V58.329C93.9699 58.537 94.0424 58.7166 94.1919 58.8726C94.3412 59.0285 94.5132 59.1042 94.7126 59.1042H107.886C108.131 59.1042 108.344 59.1939 108.516 59.3735C108.688 59.5531 108.774 59.7753 108.774 60.0306V65.6454C108.774 65.9054 108.688 66.1227 108.516 66.3023C108.344 66.4819 108.131 66.5718 107.886 66.5718H87.4395V66.586Z" fill="white"/>
<path d="M111.487 43.8901C111.238 43.8901 111.029 43.8004 110.857 43.6208C110.685 43.441 110.599 43.219 110.599 42.9637V37.3063C110.599 37.0463 110.685 36.829 110.857 36.6494C111.029 36.4698 111.242 36.3799 111.487 36.3799H135.163C135.412 36.3799 135.62 36.4698 135.792 36.6494C135.964 36.829 136.05 37.051 136.05 37.3063V42.959C136.05 43.219 135.964 43.4365 135.792 43.6161C135.62 43.7957 135.407 43.8854 135.163 43.8854H127.776C127.577 43.8854 127.405 43.9611 127.256 44.117C127.106 44.273 127.034 44.4525 127.034 44.6605V65.6501C127.034 65.9102 126.948 66.1274 126.776 66.307C126.604 66.4866 126.391 66.5765 126.146 66.5765H120.503C120.254 66.5765 120.046 66.4866 119.874 66.307C119.702 66.1274 119.616 65.9054 119.616 65.6501V44.6653C119.616 44.4573 119.543 44.2777 119.394 44.1217C119.244 43.9658 119.072 43.8901 118.873 43.8901H111.487Z" fill="white"/>
<path d="M152.716 67.1679C150.637 67.1679 148.663 66.7567 146.797 65.9295C144.931 65.1025 143.296 63.9823 141.897 62.5597C140.497 61.1417 139.392 59.4829 138.577 57.5829C137.762 55.6828 137.355 53.6504 137.355 51.4811C137.355 49.3117 137.762 47.2794 138.577 45.3795C139.392 43.4795 140.502 41.8252 141.897 40.4026C143.296 38.9848 144.926 37.8599 146.797 37.0327C148.663 36.2057 150.637 35.7944 152.716 35.7944C154.817 35.7944 156.805 36.2057 158.671 37.0327C160.537 37.8599 162.172 38.9801 163.571 40.4026C164.97 41.8205 166.071 43.4795 166.872 45.3795C167.674 47.2794 168.077 49.3117 168.077 51.4811C168.077 53.6504 167.674 55.6828 166.872 57.5829C166.066 59.4829 164.966 61.1417 163.571 62.5597C162.172 63.9776 160.541 65.1025 158.671 65.9295C156.805 66.7567 154.817 67.1679 152.716 67.1679ZM152.716 43.2715C151.624 43.2715 150.606 43.4842 149.654 43.9096C148.703 44.3349 147.866 44.9162 147.15 45.6535C146.434 46.3909 145.868 47.2605 145.461 48.2673C145.053 49.2739 144.85 50.3469 144.85 51.4811C144.85 52.6154 145.053 53.6883 145.461 54.6951C145.868 55.7017 146.43 56.5713 147.15 57.3086C147.866 58.0459 148.703 58.6273 149.654 59.0528C150.606 59.4782 151.629 59.6907 152.716 59.6907C153.83 59.6907 154.863 59.4782 155.813 59.0528C156.765 58.6273 157.593 58.0459 158.3 57.3086C159.006 56.5713 159.563 55.7017 159.971 54.6951C160.378 53.6883 160.582 52.6154 160.582 51.4811C160.582 50.3469 160.378 49.2739 159.971 48.2673C159.563 47.2605 159.006 46.3909 158.3 45.6535C157.593 44.9162 156.765 44.3349 155.813 43.9096C154.863 43.4842 153.83 43.2715 152.716 43.2715Z" fill="white"/>
<path d="M171.161 37.3063C171.161 37.0463 171.247 36.829 171.419 36.6494C171.591 36.4698 171.804 36.3799 172.049 36.3799H185.295C187.152 36.3799 188.76 36.6684 190.118 37.2495C191.477 37.8309 192.605 38.625 193.497 39.6316C194.388 40.6384 195.05 41.8152 195.48 43.1575C195.916 44.4999 196.128 45.9224 196.128 47.416C196.128 49.4058 195.721 51.268 194.904 53.0119C194.09 54.756 192.813 56.1171 191.083 57.1002C190.884 57.2041 190.766 57.3506 190.729 57.5444C190.693 57.7382 190.734 57.9273 190.861 58.1069L196.168 65.8155C196.29 65.9951 196.31 66.17 196.224 66.3401C196.137 66.5103 195.992 66.5907 195.797 66.5907H188.71C188.139 66.5907 187.673 66.3307 187.301 65.8155L182.773 59.1137C182.65 58.9057 182.474 58.7545 182.252 58.6504C182.03 58.5465 181.808 58.4944 181.582 58.4944H179.281C179.082 58.4944 178.91 58.5701 178.76 58.7261C178.611 58.882 178.538 59.0616 178.538 59.2696V65.6596C178.538 65.9194 178.452 66.1369 178.28 66.3165C178.108 66.4961 177.895 66.586 177.651 66.586H172.049C171.8 66.586 171.591 66.4961 171.419 66.3165C171.247 66.1369 171.161 65.9147 171.161 65.6596V37.3063ZM188.972 47.4915C188.972 46.329 188.664 45.36 188.044 44.5848C187.424 43.8097 186.373 43.4223 184.888 43.4223H179.286C179.086 43.4223 178.914 43.4978 178.765 43.6537C178.615 43.8097 178.543 43.9893 178.543 44.1972V50.7055C178.543 50.9135 178.615 51.0931 178.765 51.249C178.914 51.405 179.086 51.4805 179.286 51.4805H184.888C185.63 51.4805 186.26 51.3719 186.781 51.1497C187.301 50.9322 187.722 50.6393 188.044 50.2801C188.366 49.9209 188.601 49.4907 188.75 49.004C188.895 48.5125 188.972 48.0114 188.972 47.4915Z" fill="white"/>
<path d="M207.006 65.6549C207.006 65.9147 206.92 66.1321 206.748 66.3117C206.576 66.4913 206.362 66.5812 206.119 66.5812H200.475C200.227 66.5812 200.018 66.4913 199.846 66.3117C199.674 66.1321 199.588 65.91 199.588 65.6549V37.3063C199.588 37.0463 199.674 36.829 199.846 36.6494C200.018 36.4698 200.231 36.3799 200.475 36.3799H205.004C205.624 36.3799 206.104 36.6258 206.453 37.1173L218.364 52.648C218.436 52.7755 218.532 52.8181 218.639 52.7661C218.754 52.7142 218.807 52.6243 218.807 52.4968V37.3063C218.807 37.0463 218.893 36.829 219.065 36.6494C219.237 36.4698 219.45 36.3799 219.694 36.3799H225.298C225.546 36.3799 225.755 36.4698 225.927 36.6494C226.099 36.829 226.185 37.051 226.185 37.3063V65.6549C226.185 65.9147 226.099 66.1321 225.927 66.3117C225.755 66.4913 225.54 66.5812 225.298 66.5812H220.805C220.184 66.5812 219.704 66.3354 219.356 65.8439L207.446 50.3511C207.373 50.2233 207.277 50.1857 207.168 50.2328C207.056 50.2848 207 50.3747 207 50.5023V65.6549H207.006Z" fill="white"/>
<path d="M244.635 67.1679C242.555 67.1679 240.58 66.7567 238.714 65.9295C236.849 65.1025 235.214 63.9823 233.815 62.5597C232.415 61.1417 231.31 59.4829 230.496 57.5829C229.681 55.6828 229.272 53.6504 229.272 51.4811C229.272 49.3117 229.681 47.2794 230.496 45.3795C231.31 43.4795 232.421 41.8252 233.815 40.4026C235.214 38.9848 236.845 37.8599 238.714 37.0327C240.58 36.2057 242.555 35.7944 244.635 35.7944C246.736 35.7944 248.724 36.2057 250.59 37.0327C252.456 37.8599 254.091 38.9801 255.49 40.4026C256.89 41.8205 257.989 43.4795 258.792 45.3795C259.593 47.2794 259.996 49.3117 259.996 51.4811C259.996 53.6504 259.593 55.6828 258.792 57.5829C257.985 59.4829 256.884 61.1417 255.49 62.5597C254.091 63.9776 252.46 65.1025 250.59 65.9295C248.724 66.7567 246.736 67.1679 244.635 67.1679ZM244.635 43.2715C243.544 43.2715 242.525 43.4842 241.573 43.9096C240.622 44.3349 239.783 44.9162 239.068 45.6535C238.353 46.3909 237.787 47.2605 237.38 48.2673C236.971 49.2739 236.768 50.3469 236.768 51.4811C236.768 52.6154 236.971 53.6883 237.38 54.6951C237.787 55.7017 238.349 56.5713 239.068 57.3086C239.783 58.0459 240.622 58.6273 241.573 59.0528C242.525 59.4782 243.547 59.6907 244.635 59.6907C245.748 59.6907 246.78 59.4782 247.732 59.0528C248.682 58.6273 249.512 58.0459 250.217 57.3086C250.925 56.5713 251.481 55.7017 251.888 54.6951C252.298 53.6883 252.5 52.6154 252.5 51.4811C252.5 50.3469 252.298 49.2739 251.888 48.2673C251.481 47.2605 250.925 46.3909 250.217 45.6535C249.512 44.9162 248.682 44.3349 247.732 43.9096C246.78 43.4842 245.748 43.2715 244.635 43.2715Z" fill="white"/>
<path d="M0 2.12415L16.9191 20.0889H32.1718V36.0072L49.3851 53.6647V2.12415H0ZM33.7883 18.4016V3.80672H47.7685V18.4016H33.7883ZM47.7685 20.0889V49.6426L33.7883 35.2983V20.0889H47.7685ZM32.1718 18.4016H17.5939L3.85391 3.80672H32.1718V18.4016Z" fill="url(#paint0_linear_49_26)"/>
<defs>
<linearGradient id="paint0_linear_49_26" x1="1.24173e-06" y1="53.6647" x2="51.4936" y2="4.32466" gradientUnits="userSpaceOnUse">
<stop stop-color="#1DDD58"/>
<stop offset="1" stop-color="#39B8B9"/>
</linearGradient>
</defs>
</svg>
