<svg width="190" height="94" viewBox="0 0 190 94" fill="none" xmlns="http://www.w3.org/2000/svg">
<path d="M1.0833 1.4H40.6083V12.05L40.0083 12.875H1.0833V1.4ZM0.258301 41.975L19.6083 15.875H37.7583L10.1583 53H0.258301V41.975ZM22.6083 41.525H40.6083V53H14.0583L22.6083 41.525ZM48.4956 1.4H63.4956V53H48.4956V1.4ZM66.6456 1.4H85.6956V12.875H66.6456V1.4ZM66.6456 21.2H82.1706V32.675H66.6456V21.2ZM66.6456 41.525H85.6956V53H66.6456V41.525ZM94.7114 1.4H109.711V53H94.7114V1.4ZM115.861 35.45H112.861V23.975H115.411C116.961 23.975 118.136 23.925 118.936 23.825C119.736 23.675 120.361 23.425 120.811 23.075C121.211 22.725 121.486 22.2 121.636 21.5C121.786 20.8 121.861 19.775 121.861 18.425C121.861 17.075 121.786 16.05 121.636 15.35C121.486 14.6 121.211 14.05 120.811 13.7C120.411 13.35 119.811 13.125 119.011 13.025C118.261 12.925 117.061 12.875 115.411 12.875H112.861V1.4H120.586C124.136 1.4 127.011 1.75 129.211 2.45C131.411 3.15 133.111 4.225 134.311 5.675C135.411 7.025 136.136 8.7 136.486 10.7C136.886 12.7 137.086 15.275 137.086 18.425C137.086 22.475 136.711 25.6 135.961 27.8C134.911 30.6 133.061 32.575 130.411 33.725L138.211 53H122.461L115.861 35.45ZM173.899 27.2C173.899 22.85 173.874 20 173.824 18.65C173.724 16.6 173.449 15.125 172.999 14.225C172.549 13.275 171.824 12.7 170.824 12.5C169.824 12.35 168.399 12.275 166.549 12.275C164.399 12.275 162.999 12.375 162.349 12.575V0.874996C162.799 0.824997 163.474 0.799997 164.374 0.799997H166.549C172.149 0.799997 176.474 1.25 179.524 2.15C182.624 3 184.874 4.425 186.274 6.425C187.574 8.275 188.374 10.7 188.674 13.7C189.024 16.7 189.199 21.2 189.199 27.2C189.199 32.45 189.074 36.5 188.824 39.35C188.624 42.15 188.074 44.475 187.174 46.325C186.174 48.425 184.624 50.025 182.524 51.125C180.474 52.225 177.599 52.95 173.899 53.3V27.2ZM166.549 53.6C159.249 53.6 153.999 52.8 150.799 51.2C149.149 50.4 147.849 49.325 146.899 47.975C145.949 46.625 145.249 44.95 144.799 42.95C144.399 41.2 144.149 39.2 144.049 36.95C143.949 34.65 143.899 31.4 143.899 27.2C143.899 21.95 143.999 17.925 144.199 15.125C144.449 12.325 145.024 9.975 145.924 8.075C146.924 6.025 148.449 4.45 150.499 3.35C152.549 2.25 155.449 1.5 159.199 1.1V27.2C159.199 30.15 159.249 32.975 159.349 35.675C159.449 37.725 159.699 39.225 160.099 40.175C160.549 41.125 161.274 41.675 162.274 41.825C163.124 42.025 164.549 42.125 166.549 42.125C168.599 42.125 169.999 42.05 170.749 41.9V53.525C170.299 53.575 169.624 53.6 168.724 53.6H166.549Z" fill="#FCF300"/>
<path d="M0.351289 62.04H25.6863V69.24H0.351289V62.04ZM8.49629 71.04H17.4963V93H8.49629V71.04ZM29.0188 62.04H38.0188V93H29.0188V62.04ZM41.7088 82.47H39.9088V75.585H41.4388C42.3688 75.585 43.0738 75.555 43.5538 75.495C44.0338 75.405 44.4088 75.255 44.6788 75.045C44.9188 74.835 45.0838 74.52 45.1738 74.1C45.2638 73.68 45.3088 73.065 45.3088 72.255C45.3088 71.445 45.2638 70.83 45.1738 70.41C45.0838 69.96 44.9188 69.63 44.6788 69.42C44.4388 69.21 44.0788 69.075 43.5988 69.015C43.1488 68.955 42.4288 68.925 41.4388 68.925H39.9088V62.04H44.5438C46.6738 62.04 48.3988 62.25 49.7188 62.67C51.0388 63.09 52.0588 63.735 52.7788 64.605C53.4388 65.415 53.8738 66.42 54.0838 67.62C54.3238 68.82 54.4438 70.365 54.4438 72.255C54.4438 74.685 54.2188 76.56 53.7688 77.88C53.1388 79.56 52.0288 80.745 50.4388 81.435L55.1188 93H45.6688L41.7088 82.47ZM59.341 62.04H68.341V93H59.341V62.04ZM74.1945 62.04H83.1945V93H74.1945V62.04ZM85.0845 86.115H86.9295C87.7695 86.115 88.3995 86.1 88.8195 86.07C89.2695 86.01 89.5995 85.89 89.8095 85.71C90.0195 85.53 90.1545 85.275 90.2145 84.945C90.3045 84.615 90.3495 84.135 90.3495 83.505C90.3495 82.845 90.3045 82.35 90.2145 82.02C90.1545 81.69 90.0195 81.435 89.8095 81.255C89.4495 80.955 88.4895 80.805 86.9295 80.805H85.0845V73.92H86.6595C87.4995 73.92 88.1295 73.905 88.5495 73.875C88.9995 73.815 89.3295 73.695 89.5395 73.515C89.7495 73.335 89.8845 73.095 89.9445 72.795C90.0345 72.465 90.0795 72.015 90.0795 71.445C90.0795 70.845 90.0345 70.395 89.9445 70.095C89.8845 69.765 89.7495 69.51 89.5395 69.33C89.3295 69.15 88.9995 69.045 88.5495 69.015C88.1295 68.955 87.4995 68.925 86.6595 68.925H85.0845V62.04H90.2145C96.2445 62.04 99.2595 64.635 99.2595 69.825C99.2595 72.015 98.8245 73.665 97.9545 74.775C97.1145 75.885 95.7645 76.665 93.9045 77.115V77.295C95.8545 77.745 97.2495 78.45 98.0895 79.41C99.0495 80.55 99.5295 82.32 99.5295 84.72C99.5295 87.48 98.7945 89.55 97.3245 90.93C95.8545 92.31 93.4995 93 90.2595 93H85.0845V86.115ZM116.941 93.36C113.791 93.36 111.361 93.105 109.651 92.595C107.941 92.085 106.681 91.26 105.871 90.12C105.121 89.07 104.656 87.735 104.476 86.115C104.296 84.495 104.206 82.08 104.206 78.87V62.04H113.206V80.67C113.206 81.78 113.236 82.845 113.296 83.865C113.356 84.675 113.491 85.26 113.701 85.62C113.911 85.98 114.271 86.205 114.781 86.295C115.231 86.415 115.951 86.475 116.941 86.475H117.976C118.216 86.475 118.486 86.445 118.786 86.385V93.315C118.576 93.345 118.276 93.36 117.886 93.36H116.941ZM120.676 62.04H129.676V78.87C129.676 81.81 129.616 84.03 129.496 85.53C129.376 87.03 129.046 88.29 128.506 89.31C127.906 90.48 126.991 91.38 125.761 92.01C124.531 92.64 122.836 93.045 120.676 93.225V62.04ZM132.89 62.04H158.225V69.24H132.89V62.04ZM141.035 71.04H150.035V93H141.035V71.04ZM178.748 77.52C178.748 74.91 178.733 73.2 178.703 72.39C178.643 71.16 178.478 70.275 178.208 69.735C177.938 69.165 177.503 68.82 176.903 68.7C176.303 68.61 175.448 68.565 174.338 68.565C173.048 68.565 172.208 68.625 171.818 68.745V61.725C172.088 61.695 172.493 61.68 173.033 61.68H174.338C177.698 61.68 180.293 61.95 182.123 62.49C183.983 63 185.333 63.855 186.173 65.055C186.953 66.165 187.433 67.62 187.613 69.42C187.823 71.22 187.928 73.92 187.928 77.52C187.928 80.67 187.853 83.1 187.703 84.81C187.583 86.49 187.253 87.885 186.713 88.995C186.113 90.255 185.183 91.215 183.923 91.875C182.693 92.535 180.968 92.97 178.748 93.18V77.52ZM174.338 93.36C169.958 93.36 166.808 92.88 164.888 91.92C163.898 91.44 163.118 90.795 162.548 89.985C161.978 89.175 161.558 88.17 161.288 86.97C161.048 85.92 160.898 84.72 160.838 83.37C160.778 81.99 160.748 80.04 160.748 77.52C160.748 74.37 160.808 71.955 160.928 70.275C161.078 68.595 161.423 67.185 161.963 66.045C162.563 64.815 163.478 63.87 164.708 63.21C165.938 62.55 167.678 62.1 169.928 61.86V77.52C169.928 79.29 169.958 80.985 170.018 82.605C170.078 83.835 170.228 84.735 170.468 85.305C170.738 85.875 171.173 86.205 171.773 86.295C172.283 86.415 173.138 86.475 174.338 86.475C175.568 86.475 176.408 86.43 176.858 86.34V93.315C176.588 93.345 176.183 93.36 175.643 93.36H174.338Z" fill="white"/>
</svg>
