<svg width="1200" height="650" viewBox="0 0 1200 650" fill="none" xmlns="http://www.w3.org/2000/svg">
<rect x="160" y="385" width="880" height="220" rx="20" fill="#FCF300"/>
<path d="M162.222 90.2H346.672V139.9L343.872 143.75H162.222V90.2ZM158.372 279.55L248.672 157.75H333.372L204.572 331H158.372V279.55ZM262.672 277.45H346.672V331H222.772L262.672 277.45ZM383.479 90.2H453.479V331H383.479V90.2ZM468.179 90.2H557.08V143.75H468.179V90.2ZM468.179 182.6H540.629V236.15H468.179V182.6ZM468.179 277.45H557.08V331H468.179V277.45ZM599.153 90.2H669.153V331H599.153V90.2ZM697.853 249.1H683.853V195.55H695.753C702.987 195.55 708.47 195.317 712.203 194.85C715.937 194.15 718.853 192.983 720.953 191.35C722.82 189.717 724.103 187.267 724.803 184C725.503 180.733 725.853 175.95 725.853 169.65C725.853 163.35 725.503 158.567 724.803 155.3C724.103 151.8 722.82 149.233 720.953 147.6C719.087 145.967 716.287 144.917 712.553 144.45C709.053 143.983 703.453 143.75 695.753 143.75H683.853V90.2H719.903C736.47 90.2 749.887 91.8333 760.153 95.1C770.42 98.3667 778.353 103.383 783.953 110.15C789.087 116.45 792.47 124.267 794.103 133.6C795.97 142.933 796.903 154.95 796.903 169.65C796.903 188.55 795.153 203.133 791.653 213.4C786.753 226.467 778.12 235.683 765.753 241.05L802.153 331H728.653L697.853 249.1ZM968.693 210.6C968.693 190.3 968.577 177 968.343 170.7C967.877 161.133 966.593 154.25 964.493 150.05C962.393 145.617 959.01 142.933 954.343 142C949.677 141.3 943.026 140.95 934.393 140.95C924.36 140.95 917.827 141.417 914.793 142.35V87.75C916.893 87.5167 920.043 87.4 924.243 87.4H934.393C960.527 87.4 980.71 89.5 994.943 93.7C1009.41 97.6667 1019.91 104.317 1026.44 113.65C1032.51 122.283 1036.24 133.6 1037.64 147.6C1039.28 161.6 1040.09 182.6 1040.09 210.6C1040.09 235.1 1039.51 254 1038.34 267.3C1037.41 280.367 1034.84 291.217 1030.64 299.85C1025.98 309.65 1018.74 317.117 1008.94 322.25C999.377 327.383 985.96 330.767 968.693 332.4V210.6ZM934.393 333.8C900.327 333.8 875.827 330.067 860.893 322.6C853.193 318.867 847.126 313.85 842.693 307.55C838.26 301.25 834.993 293.433 832.893 284.1C831.026 275.933 829.86 266.6 829.393 256.1C828.926 245.367 828.693 230.2 828.693 210.6C828.693 186.1 829.16 167.317 830.093 154.25C831.26 141.183 833.943 130.217 838.143 121.35C842.81 111.783 849.926 104.433 859.493 99.3C869.06 94.1667 882.593 90.6667 900.093 88.8V210.6C900.093 224.367 900.327 237.55 900.793 250.15C901.26 259.717 902.427 266.717 904.293 271.15C906.393 275.583 909.777 278.15 914.443 278.85C918.41 279.783 925.06 280.25 934.393 280.25C943.96 280.25 950.493 279.9 953.993 279.2V333.45C951.893 333.683 948.743 333.8 944.543 333.8H934.393Z" fill="white"/>
<path d="M200.872 430.28H307.842V460.68H200.872V430.28ZM235.262 468.28H273.262V561H235.262V468.28ZM321.913 430.28H359.913V561H321.913V430.28ZM375.493 516.54H367.893V487.47H374.353C378.279 487.47 381.256 487.343 383.283 487.09C385.309 486.71 386.893 486.077 388.033 485.19C389.046 484.303 389.743 482.973 390.123 481.2C390.503 479.427 390.693 476.83 390.693 473.41C390.693 469.99 390.503 467.393 390.123 465.62C389.743 463.72 389.046 462.327 388.033 461.44C387.019 460.553 385.499 459.983 383.473 459.73C381.573 459.477 378.533 459.35 374.353 459.35H367.893V430.28H387.463C396.456 430.28 403.739 431.167 409.313 432.94C414.886 434.713 419.193 437.437 422.233 441.11C425.019 444.53 426.856 448.773 427.743 453.84C428.756 458.907 429.263 465.43 429.263 473.41C429.263 483.67 428.313 491.587 426.413 497.16C423.753 504.253 419.066 509.257 412.353 512.17L432.113 561H392.213L375.493 516.54ZM449.94 430.28H487.94V561H449.94V430.28ZM512.655 430.28H550.655V561H512.655V430.28ZM558.635 531.93H566.425C569.971 531.93 572.631 531.867 574.405 531.74C576.305 531.487 577.698 530.98 578.585 530.22C579.471 529.46 580.041 528.383 580.295 526.99C580.675 525.597 580.865 523.57 580.865 520.91C580.865 518.123 580.675 516.033 580.295 514.64C580.041 513.247 579.471 512.17 578.585 511.41C577.065 510.143 573.011 509.51 566.425 509.51H558.635V480.44H565.285C568.831 480.44 571.491 480.377 573.265 480.25C575.165 479.997 576.558 479.49 577.445 478.73C578.331 477.97 578.901 476.957 579.155 475.69C579.535 474.297 579.725 472.397 579.725 469.99C579.725 467.457 579.535 465.557 579.155 464.29C578.901 462.897 578.331 461.82 577.445 461.06C576.558 460.3 575.165 459.857 573.265 459.73C571.491 459.477 568.831 459.35 565.285 459.35H558.635V430.28H580.295C605.755 430.28 618.485 441.237 618.485 463.15C618.485 472.397 616.648 479.363 612.975 484.05C609.428 488.737 603.728 492.03 595.875 493.93V494.69C604.108 496.59 609.998 499.567 613.545 503.62C617.598 508.433 619.625 515.907 619.625 526.04C619.625 537.693 616.521 546.433 610.315 552.26C604.108 558.087 594.165 561 580.485 561H558.635V531.93ZM693.14 562.52C679.84 562.52 669.58 561.443 662.36 559.29C655.14 557.137 649.82 553.653 646.4 548.84C643.233 544.407 641.27 538.77 640.51 531.93C639.75 525.09 639.37 514.893 639.37 501.34V430.28H677.37V508.94C677.37 513.627 677.497 518.123 677.75 522.43C678.003 525.85 678.573 528.32 679.46 529.84C680.347 531.36 681.867 532.31 684.02 532.69C685.92 533.197 688.96 533.45 693.14 533.45H697.51C698.523 533.45 699.663 533.323 700.93 533.07V562.33C700.043 562.457 698.777 562.52 697.13 562.52H693.14ZM708.91 430.28H746.91V501.34C746.91 513.753 746.657 523.127 746.15 529.46C745.643 535.793 744.25 541.113 741.97 545.42C739.437 550.36 735.573 554.16 730.38 556.82C725.187 559.48 718.03 561.19 708.91 561.95V430.28ZM760.481 430.28H867.451V460.68H760.481V430.28ZM794.871 468.28H832.871V561H794.871V468.28ZM954.102 495.64C954.102 484.62 954.039 477.4 953.912 473.98C953.659 468.787 952.962 465.05 951.822 462.77C950.682 460.363 948.845 458.907 946.312 458.4C943.779 458.02 940.169 457.83 935.482 457.83C930.035 457.83 926.489 458.083 924.842 458.59V428.95C925.982 428.823 927.692 428.76 929.972 428.76H935.482C949.669 428.76 960.625 429.9 968.352 432.18C976.205 434.333 981.905 437.943 985.452 443.01C988.745 447.697 990.772 453.84 991.532 461.44C992.419 469.04 992.862 480.44 992.862 495.64C992.862 508.94 992.545 519.2 991.912 526.42C991.405 533.513 990.012 539.403 987.732 544.09C985.199 549.41 981.272 553.463 975.952 556.25C970.759 559.037 963.475 560.873 954.102 561.76V495.64ZM935.482 562.52C916.989 562.52 903.689 560.493 895.582 556.44C891.402 554.413 888.109 551.69 885.702 548.27C883.295 544.85 881.522 540.607 880.382 535.54C879.369 531.107 878.735 526.04 878.482 520.34C878.229 514.513 878.102 506.28 878.102 495.64C878.102 482.34 878.355 472.143 878.862 465.05C879.495 457.957 880.952 452.003 883.232 447.19C885.765 441.997 889.629 438.007 894.822 435.22C900.015 432.433 907.362 430.533 916.862 429.52V495.64C916.862 503.113 916.989 510.27 917.242 517.11C917.495 522.303 918.129 526.103 919.142 528.51C920.282 530.917 922.119 532.31 924.652 532.69C926.805 533.197 930.415 533.45 935.482 533.45C940.675 533.45 944.222 533.26 946.122 532.88V562.33C944.982 562.457 943.272 562.52 940.992 562.52H935.482Z" fill="black"/>
</svg>
