<svg width="173" height="86" viewBox="0 0 173 86" fill="none" xmlns="http://www.w3.org/2000/svg">
<path d="M1.84886 1.216H37.6849V10.872L37.1409 11.62H1.84886V1.216ZM1.10086 38.004L18.6449 14.34H35.1009L10.0769 48H1.10086V38.004ZM21.3649 37.596H37.6849V48H13.6129L21.3649 37.596ZM44.836 1.216H58.436V48H44.836V1.216ZM61.292 1.216H78.564V11.62H61.292V1.216ZM61.292 19.168H75.368V29.572H61.292V19.168ZM61.292 37.596H78.564V48H61.292V37.596ZM86.7384 1.216H100.338V48H86.7384V1.216ZM105.914 32.088H103.194V21.684H105.506C106.912 21.684 107.977 21.6387 108.702 21.548C109.428 21.412 109.994 21.1853 110.402 20.868C110.765 20.5507 111.014 20.0747 111.15 19.44C111.286 18.8053 111.354 17.876 111.354 16.652C111.354 15.428 111.286 14.4987 111.15 13.864C111.014 13.184 110.765 12.6853 110.402 12.368C110.04 12.0507 109.496 11.8467 108.77 11.756C108.09 11.6653 107.002 11.62 105.506 11.62H103.194V1.216H110.198C113.417 1.216 116.024 1.53333 118.018 2.168C120.013 2.80266 121.554 3.77733 122.642 5.092C123.64 6.316 124.297 7.83466 124.614 9.648C124.977 11.4613 125.158 13.796 125.158 16.652C125.158 20.324 124.818 23.1573 124.138 25.152C123.186 27.6907 121.509 29.4813 119.106 30.524L126.178 48H111.898L105.914 32.088ZM158.535 24.608C158.535 20.664 158.512 18.08 158.467 16.856C158.376 14.9973 158.127 13.66 157.719 12.844C157.311 11.9827 156.653 11.4613 155.747 11.28C154.84 11.144 153.548 11.076 151.871 11.076C149.921 11.076 148.652 11.1667 148.063 11.348V0.739996C148.471 0.694664 149.083 0.671997 149.899 0.671997H151.871C156.948 0.671997 160.869 1.08 163.635 1.896C166.445 2.66667 168.485 3.95866 169.755 5.772C170.933 7.44933 171.659 9.648 171.931 12.368C172.248 15.088 172.407 19.168 172.407 24.608C172.407 29.368 172.293 33.04 172.067 35.624C171.885 38.1627 171.387 40.2707 170.571 41.948C169.664 43.852 168.259 45.3027 166.355 46.3C164.496 47.2973 161.889 47.9547 158.535 48.272V24.608ZM151.871 48.544C145.252 48.544 140.492 47.8187 137.591 46.368C136.095 45.6427 134.916 44.668 134.055 43.444C133.193 42.22 132.559 40.7013 132.151 38.888C131.788 37.3013 131.561 35.488 131.471 33.448C131.38 31.3627 131.335 28.416 131.335 24.608C131.335 19.848 131.425 16.1987 131.607 13.66C131.833 11.1213 132.355 8.99066 133.171 7.268C134.077 5.40933 135.46 3.98133 137.319 2.984C139.177 1.98666 141.807 1.30667 145.207 0.943998V24.608C145.207 27.2827 145.252 29.844 145.343 32.292C145.433 34.1507 145.66 35.5107 146.023 36.372C146.431 37.2333 147.088 37.732 147.995 37.868C148.765 38.0493 150.057 38.14 151.871 38.14C153.729 38.14 154.999 38.072 155.679 37.936V48.476C155.271 48.5213 154.659 48.544 153.843 48.544H151.871Z" fill="#FCF300"/>
<path d="M0.764508 56.792H23.8475V63.352H0.764508V56.792ZM8.18551 64.992H16.3855V85H8.18551V64.992ZM26.8838 56.792H35.0838V85H26.8838V56.792ZM38.4458 75.406H36.8058V69.133H38.1998C39.0471 69.133 39.6894 69.1057 40.1268 69.051C40.5641 68.969 40.9058 68.8323 41.1518 68.641C41.3704 68.4497 41.5208 68.1627 41.6028 67.78C41.6848 67.3973 41.7258 66.837 41.7258 66.099C41.7258 65.361 41.6848 64.8007 41.6028 64.418C41.5208 64.008 41.3704 63.7073 41.1518 63.516C40.9331 63.3247 40.6051 63.2017 40.1678 63.147C39.7578 63.0923 39.1018 63.065 38.1998 63.065H36.8058V56.792H41.0288C42.9694 56.792 44.5411 56.9833 45.7438 57.366C46.9464 57.7487 47.8758 58.3363 48.5318 59.129C49.1331 59.867 49.5294 60.7827 49.7208 61.876C49.9394 62.9693 50.0488 64.377 50.0488 66.099C50.0488 68.313 49.8438 70.0213 49.4338 71.224C48.8598 72.7547 47.8484 73.8343 46.3998 74.463L50.6638 85H42.0538L38.4458 75.406ZM54.5107 56.792H62.7107V85H54.5107V56.792ZM68.0439 56.792H76.2439V85H68.0439V56.792ZM77.9659 78.727H79.6469C80.4122 78.727 80.9862 78.7133 81.3689 78.686C81.7789 78.6313 82.0796 78.522 82.2709 78.358C82.4622 78.194 82.5852 77.9617 82.6399 77.661C82.7219 77.3603 82.7629 76.923 82.7629 76.349C82.7629 75.7477 82.7219 75.2967 82.6399 74.996C82.5852 74.6953 82.4622 74.463 82.2709 74.299C81.9429 74.0257 81.0682 73.889 79.6469 73.889H77.9659V67.616H79.4009C80.1662 67.616 80.7402 67.6023 81.1229 67.575C81.5329 67.5203 81.8336 67.411 82.0249 67.247C82.2162 67.083 82.3392 66.8643 82.3939 66.591C82.4759 66.2903 82.5169 65.8803 82.5169 65.361C82.5169 64.8143 82.4759 64.4043 82.3939 64.131C82.3392 63.8303 82.2162 63.598 82.0249 63.434C81.8336 63.27 81.5329 63.1743 81.1229 63.147C80.7402 63.0923 80.1662 63.065 79.4009 63.065H77.9659V56.792H82.6399C88.1339 56.792 90.8809 59.1563 90.8809 63.885C90.8809 65.8803 90.4846 67.3837 89.6919 68.395C88.9266 69.4063 87.6966 70.117 86.0019 70.527V70.691C87.7786 71.101 89.0496 71.7433 89.8149 72.618C90.6896 73.6567 91.1269 75.2693 91.1269 77.456C91.1269 79.9707 90.4572 81.8567 89.1179 83.114C87.7786 84.3713 85.6329 85 82.6809 85H77.9659V78.727ZM106.991 85.328C104.121 85.328 101.907 85.0957 100.349 84.631C98.7907 84.1663 97.6427 83.4147 96.9047 82.376C96.2214 81.4193 95.7977 80.203 95.6337 78.727C95.4697 77.251 95.3877 75.0507 95.3877 72.126V56.792H103.588V73.766C103.588 74.7773 103.615 75.7477 103.67 76.677C103.724 77.415 103.847 77.948 104.039 78.276C104.23 78.604 104.558 78.809 105.023 78.891C105.433 79.0003 106.089 79.055 106.991 79.055H107.934C108.152 79.055 108.398 79.0277 108.672 78.973V85.287C108.48 85.3143 108.207 85.328 107.852 85.328H106.991ZM110.394 56.792H118.594V72.126C118.594 74.8047 118.539 76.8273 118.43 78.194C118.32 79.5607 118.02 80.7087 117.528 81.638C116.981 82.704 116.147 83.524 115.027 84.098C113.906 84.672 112.362 85.041 110.394 85.205V56.792ZM121.522 56.792H144.605V63.352H121.522V56.792ZM128.943 64.992H137.143V85H128.943V64.992ZM163.304 70.896C163.304 68.518 163.29 66.96 163.263 66.222C163.208 65.1013 163.058 64.295 162.812 63.803C162.566 63.2837 162.169 62.9693 161.623 62.86C161.076 62.778 160.297 62.737 159.286 62.737C158.11 62.737 157.345 62.7917 156.99 62.901V56.505C157.236 56.4777 157.605 56.464 158.097 56.464H159.286C162.347 56.464 164.711 56.71 166.379 57.202C168.073 57.6667 169.303 58.4457 170.069 59.539C170.779 60.5503 171.217 61.876 171.381 63.516C171.572 65.156 171.668 67.616 171.668 70.896C171.668 73.766 171.599 75.98 171.463 77.538C171.353 79.0687 171.053 80.3397 170.561 81.351C170.014 82.499 169.167 83.3737 168.019 83.975C166.898 84.5763 165.326 84.9727 163.304 85.164V70.896ZM159.286 85.328C155.295 85.328 152.425 84.8907 150.676 84.016C149.774 83.5787 149.063 82.991 148.544 82.253C148.024 81.515 147.642 80.5993 147.396 79.506C147.177 78.5493 147.04 77.456 146.986 76.226C146.931 74.9687 146.904 73.192 146.904 70.896C146.904 68.026 146.958 65.8257 147.068 64.295C147.204 62.7643 147.519 61.4797 148.011 60.441C148.557 59.3203 149.391 58.4593 150.512 57.858C151.632 57.2567 153.218 56.8467 155.268 56.628V70.896C155.268 72.5087 155.295 74.053 155.35 75.529C155.404 76.6497 155.541 77.4697 155.76 77.989C156.006 78.5083 156.402 78.809 156.949 78.891C157.413 79.0003 158.192 79.055 159.286 79.055C160.406 79.055 161.172 79.014 161.582 78.932V85.287C161.336 85.3143 160.967 85.328 160.475 85.328H159.286Z" fill="white"/>
</svg>
